<?xml version="1.0" encoding="UTF-8" standalone="no"?><!DOCTYPE svg PUBLIC "-//W3C//DTD SVG 1.1//EN" "http://www.w3.org/Graphics/SVG/1.1/DTD/svg11.dtd"><svg width="100%" height="100%" viewBox="0 0 2048 2048" version="1.1" xmlns="http://www.w3.org/2000/svg" xmlns:xlink="http://www.w3.org/1999/xlink" xml:space="preserve" style="fill-rule:evenodd;clip-rule:evenodd;stroke-linejoin:round;stroke-miterlimit:1.41421;"><g><g><g><path d="M2021.44,796.298c-82.496,-335.68 -282.724,-574.977 -597.782,-714.982c-126.438,-56.085 -260.338,-83.505 -399.212,-80.181c0,85.582 0,171.579 0,257.161c35.237,6.231 70.888,5.4 106.539,11.217c137.631,22.849 260.338,77.688 367.707,166.593c147.994,122.972 240.439,280.011 270.701,469.869c35.237,221.433 -15.338,423.755 -153.384,601.566c-122.292,157.454 -284.381,251.76 -480.049,286.657c-36.481,6.647 -73.79,7.478 -110.685,10.802c0,81.012 0,161.608 0,242.62c75.448,2.493 149.653,-7.478 223.028,-24.096c224.686,-50.684 411.649,-164.932 560.058,-341.081c132.656,-157.454 209.763,-339.419 233.392,-544.649c12.022,-115.078 7.462,-229.326 -20.313,-341.496Z" style="fill:#f59f1a;fill-rule:nonzero;"/><path d="M1021.54,1805c-147.58,1.662 -285.626,-32.82 -411.649,-110.509c-209.763,-130.034 -335.786,-318.231 -368.121,-563.344c-53.891,-408.383 220.956,-783.531 625.557,-859.973c50.575,-9.555 101.979,-12.878 153.384,-13.294c1.243,0 2.072,0 3.316,0c0,-85.582 0,-171.579 0,-257.161c-56.793,-2.908 -113.172,3.324 -169.137,12.879c-238.366,41.545 -440.252,151.222 -599.025,334.018c-215.981,249.268 -295.989,540.08 -237.123,864.543c50.161,278.348 197.741,498.119 430.718,658.481c172.453,118.818 364.805,176.149 574.567,176.565c0,-81.012 0,-161.609 0,-242.621c-0.829,0.416 -1.658,0.416 -2.487,0.416Z" style="fill:#fdc912;fill-rule:nonzero;"/><path d="M1020.71,258.296c0,0.415 0.414,0.831 0.414,0.831c0.829,-0.416 1.658,-0.831 2.488,-1.247c-0.83,0.416 -1.659,0.416 -2.902,0.416Z" style="fill:#fefefe;fill-rule:nonzero;"/><path d="M1021.54,1805c0.829,0 1.658,0 2.902,0c-0.415,-0.831 -0.829,-1.247 -1.244,-1.662c-0.829,0.415 -1.244,1.246 -1.658,1.662Z" style="fill:#fefefe;fill-rule:nonzero;"/></g><path d="M1323.33,944.612c33.993,-92.644 65.913,-181.55 98.663,-270.04c18.24,-48.607 65.913,-75.611 113.587,-65.64c63.84,13.294 97.419,73.949 75.033,136.681c-38.138,106.355 -77.106,212.709 -116.074,318.647c-24.044,66.056 -48.088,132.112 -72.546,198.168c-16.582,45.283 -52.234,71.041 -98.249,71.041c-46.844,0 -83.324,-24.927 -99.906,-69.379c-63.012,-172.826 -126.024,-346.067 -188.621,-518.892c-17.826,-49.023 -1.244,-97.214 40.626,-122.972c41.04,-25.342 93.274,-18.28 126.852,17.033c11.608,12.464 18.655,27.42 24.459,42.791c30.262,83.089 60.524,165.763 90.787,248.852c1.243,3.324 2.487,6.232 5.389,13.71Z" style="fill:#1d1d1b;fill-rule:nonzero;"/><path d="M810.534,607.27c44.771,0 80.422,26.589 97.419,72.703c42.699,117.156 85.397,234.311 128.096,351.467c19.899,55.254 40.626,110.093 60.11,165.347c21.557,62.317 -13.266,122.557 -77.521,135.02c-48.502,9.555 -94.932,-19.526 -114.001,-71.456c-53.063,-144.576 -105.711,-289.981 -158.359,-434.972c-10.364,-28.666 -21.556,-56.501 -31.091,-85.582c-21.142,-66.056 26.946,-132.527 95.347,-132.527Z" style="fill:#1d1d1b;fill-rule:nonzero;"/><path d="M800.999,1236.67c0,51.1 -33.579,92.645 -79.179,101.369c-50.99,9.971 -97.42,-14.956 -116.074,-64.394c-29.019,-77.273 -56.794,-155.377 -84.983,-233.065c-34.408,-94.722 -68.816,-189.028 -103.223,-283.75c-21.557,-59.408 2.487,-116.74 56.793,-136.681c54.721,-19.942 110.27,7.478 131.827,66.471c62.597,170.748 124.78,341.912 187.377,512.66c4.975,13.294 8.291,26.589 7.462,37.39Z" style="fill:#1d1d1b;fill-rule:nonzero;"/><path d="M687.827,1501.31c0,-63.979 50.575,-113.832 114.416,-113.832c62.597,0.415 113.172,51.1 113.586,113.001c0.415,63.148 -50.989,115.079 -114.001,115.079c-63.012,0.415 -114.001,-50.685 -114.001,-114.248Z" style="fill:#1d1d1b;fill-rule:nonzero;"/><path d="M1223.43,1387.48c63.426,0 114.831,51.1 114.416,114.247c0,63.148 -52.233,114.663 -115.245,114.248c-62.597,-0.415 -112.758,-50.684 -112.758,-113.832c0,-63.979 49.746,-114.663 113.587,-114.663Z" style="fill:#1d1d1b;fill-rule:nonzero;"/></g></g></svg>