<?xml version="1.0" encoding="UTF-8" standalone="no"?><!DOCTYPE svg PUBLIC "-//W3C//DTD SVG 1.1//EN" "http://www.w3.org/Graphics/SVG/1.1/DTD/svg11.dtd"><svg width="100%" height="100%" viewBox="0 0 203 203" version="1.1" xmlns="http://www.w3.org/2000/svg" xmlns:xlink="http://www.w3.org/1999/xlink" xml:space="preserve" style="fill-rule:evenodd;clip-rule:evenodd;stroke-linejoin:round;stroke-miterlimit:1.41421;"><g><path d="M73.1,126.6c-2.4,0 -4.3,1.9 -4.3,4.3c0,2.4 1.9,4.3 4.3,4.3c2.4,0 4.3,-1.9 4.3,-4.3c-0.1,-2.4 -2,-4.3 -4.3,-4.3Zm0,12.8c-4.7,0 -8.6,-3.8 -8.6,-8.6c0,-4.7 3.8,-8.6 8.6,-8.6c4.7,0 8.6,3.8 8.6,8.6c-0.1,4.8 -3.9,8.6 -8.6,8.6Z" style="fill:#fff;fill-rule:nonzero;"/><path d="M120.3,126.6c-2.4,0 -4.3,1.9 -4.3,4.3c0,2.4 1.9,4.3 4.3,4.3c2.4,0 4.3,-1.9 4.3,-4.3c-0.1,-2.4 -2,-4.3 -4.3,-4.3Zm0,12.8c-4.7,0 -8.6,-3.8 -8.6,-8.6c0,-4.7 3.8,-8.6 8.6,-8.6c4.7,0 8.6,3.8 8.6,8.6c-0.1,4.8 -3.9,8.6 -8.6,8.6Z" style="fill:#fff;fill-rule:nonzero;"/><path d="M120.3,126.6l-47.2,0c-1.2,0 -2.1,-1 -2.1,-2.1c0,-1.2 1,-2.1 2.1,-2.1l45.5,0l13.2,-57.5c0.2,-1 1.1,-1.7 2.1,-1.7l15,0c1.2,0 2.1,1 2.1,2.1c0,1.2 -1,2.1 -2.1,2.1l-13.3,0l-13.3,57.3c-0.2,1.2 -1,1.9 -2,1.9Z" style="fill:#fff;fill-rule:nonzero;"/><path d="M122.4,118l-55.8,0c-0.9,0 -1.7,-0.6 -2,-1.5l-12.9,-38.6c-0.2,-0.7 -0.1,-1.4 0.3,-1.9c0.4,-0.6 1,-0.9 1.7,-0.9l77.2,0c1.2,0 2.1,1 2.1,2.1c0,1.1 -1,2.1 -2.1,2.1l-74.2,0l11.4,34.3l54.2,0c1.2,0 2.1,1 2.1,2.1c0,1.1 -0.8,2.3 -2,2.3Z" style="fill:#fff;fill-rule:nonzero;"/></g><path d="M101.669,18.1l0.269,0.001l0.269,0.003l0.268,0.003l0.269,0.003l0.268,0.005l0.268,0.006l0.268,0.006l0.267,0.007l0.267,0.008l0.268,0.009l0.267,0.01l0.266,0.01l0.267,0.012l0.266,0.012l0.266,0.013l0.266,0.014l0.266,0.015l0.265,0.015l0.265,0.017l0.265,0.017l0.265,0.018l0.265,0.019l0.264,0.02l0.264,0.02l0.264,0.022l0.264,0.022l0.263,0.023l0.263,0.024l0.263,0.024l0.263,0.026l0.263,0.026l0.262,0.027l0.262,0.028l0.262,0.029l0.261,0.029l0.261,0.031l0.262,0.031l0.26,0.032l0.261,0.032l0.26,0.034l0.26,0.034l0.26,0.035l0.26,0.036l0.259,0.037l0.259,0.038l0.259,0.038l0.258,0.039l0.259,0.04l0.258,0.041l0.258,0.041l0.257,0.043l0.257,0.043l0.257,0.044l0.257,0.044l0.256,0.046l0.257,0.046l0.256,0.047l0.255,0.048l0.256,0.048l0.255,0.05l0.254,0.05l0.255,0.051l0.254,0.051l0.254,0.053l0.254,0.053l0.253,0.054l0.254,0.055l0.252,0.055l0.253,0.057l0.252,0.057l0.252,0.057l0.252,0.059l0.251,0.059l0.251,0.06l0.251,0.061l0.251,0.062l0.25,0.062l0.25,0.063l0.25,0.064l0.249,0.065l0.249,0.065l0.249,0.066l0.248,0.067l0.248,0.068l0.248,0.068l0.248,0.069l0.247,0.07l0.247,0.071l0.246,0.071l0.247,0.072l0.246,0.073l0.245,0.074l0.246,0.074l0.245,0.075l0.244,0.076l0.245,0.076l0.244,0.078l0.243,0.077l0.244,0.079l0.243,0.08l0.242,0.08l0.243,0.081l0.242,0.081l0.242,0.082l0.241,0.083l0.241,0.084l0.241,0.085l0.24,0.085l0.24,0.086l0.24,0.086l0.24,0.087l0.239,0.089l0.238,0.088l0.239,0.09l0.238,0.09l0.237,0.091l0.238,0.091l0.237,0.092l0.236,0.093l0.236,0.094l0.236,0.094l0.236,0.095l0.235,0.096l0.235,0.097l0.234,0.097l0.235,0.098l0.233,0.098l0.234,0.099l0.233,0.1l0.232,0.101l0.233,0.101l0.232,0.102l0.231,0.103l0.231,0.103l0.231,0.104l0.231,0.105l0.23,0.105l0.229,0.106l0.23,0.107l0.229,0.107l0.228,0.108l0.228,0.109l0.228,0.109l0.228,0.11l0.228,0.112l0.452,0.223l0.451,0.226l0.45,0.229l0.448,0.231l0.446,0.234l0.446,0.237l0.443,0.239l0.442,0.242l0.44,0.244l0.438,0.247l0.437,0.25l0.436,0.252l0.433,0.255l0.432,0.257l0.43,0.26l0.429,0.262l0.427,0.265l0.425,0.267l0.423,0.27l0.422,0.272l0.42,0.275l0.418,0.277l0.416,0.279l0.415,0.282l0.412,0.285l0.411,0.287l0.41,0.289l0.407,0.291l0.405,0.294l0.404,0.297l0.402,0.299l0.4,0.301l0.398,0.303l0.396,0.306l0.395,0.308l0.392,0.31l0.391,0.313l0.388,0.315l0.387,0.317l0.385,0.319l0.382,0.322l0.381,0.324l0.379,0.326l0.377,0.329l0.375,0.331l0.373,0.332l0.37,0.336l0.369,0.337l0.367,0.339l0.365,0.342l0.362,0.344l0.361,0.346l0.359,0.348l0.356,0.35l0.354,0.352l0.353,0.354l0.35,0.357l0.348,0.358l0.346,0.361l0.344,0.363l0.341,0.365l0.34,0.366l0.337,0.369l0.335,0.371l0.333,0.373l0.331,0.375l0.328,0.377l0.326,0.378l0.324,0.381l0.322,0.383l0.32,0.385l0.317,0.386l0.315,0.389l0.312,0.391l0.311,0.392l0.308,0.394l0.306,0.396l0.303,0.399l0.301,0.4l0.299,0.401l0.296,0.404l0.294,0.406l0.292,0.407l0.289,0.409l0.287,0.411l0.284,0.413l0.282,0.414l0.28,0.417l0.277,0.418l0.274,0.42l0.273,0.421l0.269,0.424l0.268,0.425l0.264,0.427l0.263,0.428l0.259,0.43l0.258,0.432l0.254,0.434l0.253,0.435l0.249,0.437l0.247,0.439l0.245,0.44l0.241,0.442l0.24,0.443l0.236,0.445l0.234,0.447l0.232,0.448l0.229,0.45l0.226,0.451l0.223,0.452l0.111,0.228l0.11,0.227l0.11,0.228l0.108,0.228l0.108,0.229l0.108,0.229l0.106,0.229l0.106,0.23l0.106,0.23l0.104,0.23l0.104,0.231l0.104,0.231l0.102,0.232l0.102,0.232l0.102,0.232l0.1,0.233l0.1,0.233l0.099,0.233l0.099,0.234l0.098,0.234l0.097,0.235l0.096,0.234l0.096,0.236l0.095,0.235l0.094,0.236l0.094,0.236l0.093,0.237l0.092,0.237l0.092,0.237l0.091,0.238l0.09,0.238l0.089,0.238l0.089,0.239l0.088,0.239l0.087,0.239l0.087,0.24l0.086,0.24l0.085,0.241l0.084,0.24l0.084,0.241l0.083,0.242l0.082,0.242l0.082,0.242l0.081,0.242l0.08,0.243l0.079,0.243l0.079,0.243l0.078,0.244l0.077,0.244l0.077,0.244l0.075,0.245l0.075,0.245l0.075,0.245l0.073,0.246l0.073,0.246l0.072,0.246l0.072,0.247l0.07,0.247l0.07,0.247l0.069,0.247l0.068,0.248l0.068,0.248l0.067,0.249l0.066,0.249l0.066,0.249l0.064,0.249l0.064,0.249l0.063,0.25l0.063,0.251l0.061,0.25l0.061,0.251l0.06,0.251l0.059,0.252l0.059,0.251l0.058,0.252l0.057,0.253l0.056,0.252l0.056,0.253l0.054,0.253l0.054,0.254l0.054,0.253l0.052,0.254l0.052,0.254l0.051,0.255l0.05,0.255l0.049,0.255l0.049,0.255l0.048,0.256l0.047,0.256l0.046,0.256l0.045,0.256l0.045,0.257l0.044,0.257l0.043,0.257l0.042,0.258l0.042,0.258l0.04,0.258l0.04,0.258l0.039,0.259l0.039,0.258l0.037,0.26l0.037,0.259l0.036,0.259l0.035,0.26l0.035,0.26l0.033,0.261l0.033,0.26l0.032,0.261l0.031,0.261l0.03,0.261l0.03,0.262l0.028,0.262l0.028,0.262l0.027,0.262l0.027,0.262l0.025,0.263l0.025,0.263l0.024,0.263l0.023,0.264l0.022,0.263l0.021,0.264l0.021,0.264l0.019,0.265l0.019,0.264l0.018,0.265l0.018,0.265l0.016,0.265l0.016,0.266l0.014,0.265l0.014,0.266l0.013,0.266l0.013,0.267l0.011,0.266l0.011,0.267l0.009,0.267l0.009,0.267l0.008,0.267l0.008,0.268l0.006,0.268l0.005,0.268l0.005,0.268l0.004,0.268l0.003,0.269l0.002,0.269l0.001,0.269l0.001,0.269l-0.001,0.269l-0.001,0.269l-0.002,0.269l-0.003,0.268l-0.004,0.269l-0.005,0.268l-0.005,0.268l-0.006,0.267l-0.008,0.268l-0.008,0.267l-0.009,0.268l-0.009,0.267l-0.011,0.266l-0.011,0.267l-0.013,0.266l-0.013,0.266l-0.014,0.266l-0.014,0.266l-0.016,0.265l-0.016,0.265l-0.018,0.265l-0.018,0.265l-0.019,0.265l-0.019,0.264l-0.021,0.264l-0.021,0.264l-0.022,0.264l-0.023,0.263l-0.024,0.263l-0.025,0.263l-0.025,0.263l-0.027,0.263l-0.027,0.262l-0.028,0.262l-0.028,0.262l-0.03,0.261l-0.03,0.261l-0.031,0.262l-0.032,0.26l-0.033,0.261l-0.033,0.26l-0.035,0.26l-0.035,0.26l-0.036,0.26l-0.037,0.259l-0.037,0.259l-0.039,0.259l-0.039,0.258l-0.04,0.259l-0.04,0.258l-0.042,0.258l-0.042,0.257l-0.043,0.257l-0.044,0.257l-0.045,0.257l-0.045,0.256l-0.046,0.257l-0.047,0.256l-0.048,0.255l-0.049,0.256l-0.049,0.255l-0.05,0.254l-0.051,0.255l-0.052,0.254l-0.052,0.254l-0.054,0.254l-0.054,0.253l-0.054,0.254l-0.056,0.252l-0.056,0.253l-0.057,0.252l-0.058,0.252l-0.059,0.252l-0.059,0.251l-0.06,0.252l-0.061,0.25l-0.061,0.251l-0.063,0.25l-0.063,0.25l-0.064,0.25l-0.064,0.249l-0.066,0.249l-0.066,0.249l-0.067,0.248l-0.068,0.248l-0.068,0.248l-0.069,0.248l-0.07,0.247l-0.07,0.247l-0.072,0.246l-0.072,0.247l-0.073,0.246l-0.073,0.245l-0.075,0.246l-0.075,0.245l-0.075,0.244l-0.077,0.245l-0.077,0.244l-0.078,0.243l-0.079,0.244l-0.079,0.243l-0.08,0.242l-0.081,0.243l-0.082,0.242l-0.082,0.242l-0.083,0.241l-0.084,0.241l-0.084,0.241l-0.085,0.24l-0.086,0.24l-0.087,0.24l-0.087,0.24l-0.088,0.239l-0.089,0.238l-0.089,0.239l-0.09,0.238l-0.091,0.237l-0.092,0.238l-0.092,0.237l-0.093,0.236l-0.094,0.236l-0.094,0.236l-0.095,0.236l-0.096,0.235l-0.096,0.235l-0.097,0.234l-0.098,0.235l-0.099,0.233l-0.099,0.234l-0.1,0.233l-0.1,0.232l-0.102,0.233l-0.102,0.232l-0.102,0.231l-0.104,0.231l-0.104,0.231l-0.104,0.231l-0.106,0.23l-0.106,0.229l-0.106,0.23l-0.108,0.229l-0.108,0.228l-0.108,0.228l-0.11,0.228l-0.11,0.228l-0.111,0.228l-0.223,0.452l-0.226,0.451l-0.229,0.45l-0.232,0.448l-0.234,0.446l-0.236,0.446l-0.24,0.443l-0.241,0.442l-0.245,0.44l-0.247,0.438l-0.249,0.437l-0.253,0.436l-0.254,0.433l-0.258,0.432l-0.259,0.43l-0.263,0.429l-0.264,0.427l-0.268,0.425l-0.269,0.423l-0.273,0.422l-0.274,0.42l-0.277,0.418l-0.28,0.416l-0.282,0.415l-0.284,0.412l-0.287,0.411l-0.289,0.41l-0.292,0.407l-0.294,0.405l-0.296,0.404l-0.299,0.402l-0.301,0.4l-0.303,0.398l-0.306,0.396l-0.308,0.395l-0.311,0.392l-0.312,0.39l-0.315,0.389l-0.317,0.387l-0.32,0.385l-0.322,0.382l-0.324,0.381l-0.326,0.379l-0.328,0.377l-0.331,0.375l-0.333,0.373l-0.335,0.37l-0.337,0.369l-0.34,0.367l-0.341,0.365l-0.344,0.362l-0.346,0.361l-0.348,0.359l-0.35,0.356l-0.353,0.354l-0.354,0.353l-0.356,0.35l-0.359,0.348l-0.361,0.346l-0.362,0.344l-0.365,0.341l-0.367,0.34l-0.369,0.337l-0.37,0.335l-0.373,0.333l-0.375,0.331l-0.377,0.328l-0.379,0.326l-0.381,0.324l-0.383,0.322l-0.384,0.319l-0.387,0.318l-0.389,0.315l-0.39,0.312l-0.392,0.311l-0.395,0.308l-0.396,0.306l-0.398,0.303l-0.4,0.301l-0.402,0.299l-0.404,0.296l-0.405,0.294l-0.407,0.292l-0.41,0.289l-0.411,0.287l-0.412,0.284l-0.415,0.282l-0.416,0.28l-0.418,0.277l-0.42,0.274l-0.422,0.273l-0.423,0.269l-0.425,0.268l-0.427,0.264l-0.429,0.263l-0.43,0.259l-0.432,0.258l-0.433,0.254l-0.436,0.253l-0.437,0.249l-0.438,0.247l-0.44,0.245l-0.442,0.241l-0.443,0.24l-0.446,0.236l-0.446,0.234l-0.448,0.232l-0.45,0.229l-0.451,0.226l-0.452,0.223l-0.228,0.111l-0.228,0.11l-0.228,0.11l-0.228,0.108l-0.228,0.108l-0.229,0.108l-0.23,0.106l-0.229,0.106l-0.23,0.106l-0.231,0.105l-0.231,0.104l-0.231,0.103l-0.231,0.102l-0.232,0.102l-0.233,0.102l-0.232,0.1l-0.233,0.1l-0.234,0.099l-0.234,0.099l-0.234,0.098l-0.234,0.097l-0.235,0.096l-0.235,0.096l-0.236,0.095l-0.236,0.094l-0.236,0.094l-0.236,0.093l-0.237,0.092l-0.238,0.092l-0.237,0.091l-0.238,0.09l-0.239,0.089l-0.238,0.089l-0.239,0.088l-0.24,0.087l-0.24,0.087l-0.24,0.086l-0.24,0.085l-0.241,0.084l-0.241,0.084l-0.241,0.083l-0.242,0.082l-0.242,0.082l-0.243,0.081l-0.242,0.08l-0.243,0.079l-0.244,0.079l-0.243,0.078l-0.244,0.077l-0.245,0.077l-0.245,0.075l-0.244,0.075l-0.246,0.075l-0.245,0.073l-0.246,0.073l-0.247,0.072l-0.246,0.072l-0.247,0.07l-0.247,0.07l-0.248,0.069l-0.248,0.069l-0.248,0.067l-0.248,0.067l-0.249,0.066l-0.249,0.066l-0.249,0.064l-0.25,0.064l-0.25,0.063l-0.25,0.063l-0.251,0.061l-0.251,0.061l-0.251,0.06l-0.251,0.059l-0.252,0.059l-0.252,0.058l-0.252,0.057l-0.253,0.056l-0.252,0.056l-0.254,0.054l-0.253,0.054l-0.254,0.054l-0.254,0.052l-0.254,0.052l-0.255,0.051l-0.254,0.05l-0.255,0.049l-0.256,0.049l-0.255,0.048l-0.256,0.047l-0.257,0.046l-0.256,0.045l-0.257,0.045l-0.257,0.044l-0.257,0.043l-0.257,0.042l-0.258,0.042l-0.258,0.04l-0.259,0.04l-0.258,0.039l-0.259,0.039l-0.259,0.037l-0.259,0.037l-0.26,0.036l-0.26,0.035l-0.26,0.035l-0.26,0.033l-0.261,0.033l-0.26,0.032l-0.262,0.031l-0.261,0.03l-0.261,0.03l-0.262,0.028l-0.262,0.028l-0.262,0.027l-0.263,0.027l-0.263,0.025l-0.263,0.025l-0.263,0.024l-0.263,0.023l-0.264,0.022l-0.264,0.021l-0.264,0.021l-0.264,0.019l-0.265,0.019l-0.265,0.018l-0.265,0.018l-0.265,0.016l-0.265,0.016l-0.266,0.014l-0.266,0.014l-0.266,0.013l-0.266,0.013l-0.267,0.011l-0.266,0.011l-0.267,0.009l-0.268,0.009l-0.267,0.008l-0.268,0.008l-0.267,0.006l-0.268,0.005l-0.268,0.005l-0.269,0.004l-0.268,0.003l-0.269,0.002l-0.269,0.001l-0.269,0.001l-0.269,-0.001l-0.269,-0.001l-0.269,-0.002l-0.269,-0.003l-0.268,-0.004l-0.268,-0.005l-0.268,-0.005l-0.268,-0.006l-0.268,-0.008l-0.267,-0.008l-0.267,-0.009l-0.267,-0.009l-0.267,-0.011l-0.266,-0.011l-0.267,-0.013l-0.266,-0.013l-0.266,-0.014l-0.265,-0.014l-0.266,-0.016l-0.265,-0.016l-0.265,-0.018l-0.265,-0.018l-0.264,-0.019l-0.265,-0.019l-0.264,-0.021l-0.264,-0.021l-0.263,-0.022l-0.264,-0.023l-0.263,-0.024l-0.263,-0.025l-0.263,-0.025l-0.262,-0.027l-0.262,-0.027l-0.262,-0.028l-0.262,-0.028l-0.262,-0.03l-0.261,-0.03l-0.261,-0.031l-0.261,-0.032l-0.26,-0.033l-0.261,-0.033l-0.26,-0.035l-0.26,-0.035l-0.259,-0.036l-0.259,-0.037l-0.26,-0.037l-0.258,-0.039l-0.259,-0.039l-0.258,-0.04l-0.258,-0.04l-0.258,-0.042l-0.258,-0.042l-0.257,-0.043l-0.257,-0.044l-0.256,-0.045l-0.257,-0.045l-0.256,-0.046l-0.256,-0.047l-0.256,-0.048l-0.255,-0.049l-0.255,-0.049l-0.255,-0.05l-0.255,-0.051l-0.254,-0.052l-0.254,-0.052l-0.253,-0.054l-0.254,-0.054l-0.253,-0.054l-0.253,-0.056l-0.252,-0.056l-0.253,-0.057l-0.252,-0.058l-0.251,-0.059l-0.252,-0.059l-0.251,-0.06l-0.251,-0.061l-0.25,-0.061l-0.251,-0.063l-0.25,-0.063l-0.249,-0.064l-0.25,-0.064l-0.249,-0.066l-0.248,-0.066l-0.249,-0.067l-0.248,-0.067l-0.248,-0.069l-0.247,-0.069l-0.247,-0.07l-0.247,-0.07l-0.247,-0.072l-0.246,-0.072l-0.246,-0.073l-0.246,-0.073l-0.245,-0.075l-0.245,-0.075l-0.245,-0.075l-0.244,-0.077l-0.244,-0.077l-0.244,-0.078l-0.243,-0.079l-0.243,-0.079l-0.243,-0.08l-0.242,-0.081l-0.242,-0.082l-0.242,-0.082l-0.242,-0.083l-0.241,-0.084l-0.24,-0.084l-0.241,-0.085l-0.24,-0.086l-0.24,-0.087l-0.239,-0.087l-0.239,-0.088l-0.239,-0.089l-0.238,-0.089l-0.238,-0.09l-0.238,-0.091l-0.237,-0.092l-0.237,-0.092l-0.237,-0.093l-0.236,-0.094l-0.236,-0.094l-0.235,-0.095l-0.236,-0.096l-0.234,-0.096l-0.235,-0.097l-0.234,-0.098l-0.234,-0.099l-0.233,-0.099l-0.233,-0.1l-0.233,-0.1l-0.232,-0.102l-0.232,-0.102l-0.232,-0.102l-0.231,-0.103l-0.231,-0.104l-0.23,-0.105l-0.23,-0.106l-0.23,-0.106l-0.229,-0.106l-0.229,-0.108l-0.229,-0.108l-0.228,-0.108l-0.228,-0.11l-0.227,-0.11l-0.228,-0.111l-0.452,-0.223l-0.451,-0.226l-0.45,-0.229l-0.448,-0.232l-0.447,-0.234l-0.445,-0.236l-0.443,-0.24l-0.442,-0.241l-0.44,-0.245l-0.439,-0.247l-0.437,-0.249l-0.435,-0.253l-0.434,-0.254l-0.432,-0.258l-0.43,-0.259l-0.428,-0.263l-0.427,-0.264l-0.425,-0.268l-0.424,-0.269l-0.421,-0.273l-0.42,-0.274l-0.418,-0.277l-0.417,-0.28l-0.414,-0.282l-0.413,-0.284l-0.411,-0.287l-0.409,-0.289l-0.407,-0.292l-0.406,-0.294l-0.404,-0.296l-0.401,-0.299l-0.4,-0.301l-0.398,-0.303l-0.397,-0.306l-0.394,-0.308l-0.392,-0.311l-0.391,-0.312l-0.389,-0.315l-0.386,-0.318l-0.385,-0.319l-0.383,-0.322l-0.381,-0.324l-0.378,-0.326l-0.377,-0.328l-0.375,-0.331l-0.373,-0.333l-0.371,-0.335l-0.369,-0.337l-0.366,-0.34l-0.365,-0.341l-0.363,-0.344l-0.361,-0.346l-0.358,-0.348l-0.357,-0.35l-0.354,-0.353l-0.352,-0.354l-0.35,-0.356l-0.348,-0.359l-0.346,-0.361l-0.344,-0.362l-0.342,-0.365l-0.339,-0.367l-0.337,-0.369l-0.336,-0.37l-0.332,-0.373l-0.331,-0.375l-0.329,-0.377l-0.326,-0.379l-0.324,-0.381l-0.322,-0.382l-0.319,-0.385l-0.317,-0.387l-0.315,-0.388l-0.313,-0.391l-0.31,-0.392l-0.308,-0.395l-0.306,-0.396l-0.303,-0.398l-0.301,-0.4l-0.299,-0.402l-0.297,-0.404l-0.294,-0.405l-0.291,-0.407l-0.289,-0.41l-0.287,-0.411l-0.285,-0.412l-0.282,-0.415l-0.279,-0.416l-0.277,-0.418l-0.275,-0.42l-0.272,-0.422l-0.27,-0.423l-0.267,-0.425l-0.265,-0.427l-0.262,-0.429l-0.26,-0.43l-0.257,-0.432l-0.255,-0.433l-0.252,-0.436l-0.25,-0.437l-0.247,-0.438l-0.244,-0.44l-0.242,-0.442l-0.239,-0.443l-0.237,-0.446l-0.234,-0.446l-0.231,-0.448l-0.229,-0.45l-0.226,-0.451l-0.223,-0.452l-0.112,-0.228l-0.11,-0.228l-0.109,-0.228l-0.109,-0.228l-0.108,-0.228l-0.107,-0.229l-0.107,-0.23l-0.106,-0.229l-0.105,-0.23l-0.105,-0.231l-0.104,-0.231l-0.103,-0.231l-0.103,-0.231l-0.102,-0.232l-0.101,-0.233l-0.101,-0.232l-0.1,-0.233l-0.099,-0.234l-0.098,-0.233l-0.098,-0.235l-0.097,-0.234l-0.097,-0.235l-0.096,-0.235l-0.095,-0.236l-0.094,-0.236l-0.094,-0.236l-0.093,-0.236l-0.092,-0.237l-0.091,-0.238l-0.091,-0.237l-0.09,-0.238l-0.09,-0.239l-0.088,-0.238l-0.089,-0.239l-0.087,-0.24l-0.086,-0.24l-0.086,-0.24l-0.085,-0.24l-0.085,-0.241l-0.084,-0.241l-0.083,-0.241l-0.082,-0.242l-0.081,-0.242l-0.081,-0.243l-0.08,-0.242l-0.08,-0.243l-0.079,-0.244l-0.077,-0.243l-0.078,-0.244l-0.076,-0.245l-0.076,-0.244l-0.075,-0.245l-0.074,-0.246l-0.074,-0.245l-0.073,-0.246l-0.072,-0.247l-0.071,-0.246l-0.071,-0.247l-0.07,-0.247l-0.069,-0.248l-0.068,-0.248l-0.068,-0.248l-0.067,-0.248l-0.066,-0.249l-0.065,-0.249l-0.065,-0.249l-0.064,-0.25l-0.063,-0.25l-0.062,-0.25l-0.062,-0.251l-0.061,-0.251l-0.06,-0.251l-0.059,-0.251l-0.059,-0.252l-0.057,-0.252l-0.057,-0.252l-0.057,-0.253l-0.055,-0.252l-0.055,-0.254l-0.054,-0.253l-0.053,-0.254l-0.053,-0.254l-0.051,-0.254l-0.051,-0.255l-0.05,-0.254l-0.05,-0.255l-0.048,-0.256l-0.048,-0.255l-0.047,-0.256l-0.046,-0.257l-0.046,-0.256l-0.044,-0.257l-0.044,-0.257l-0.043,-0.257l-0.043,-0.257l-0.041,-0.258l-0.041,-0.258l-0.04,-0.259l-0.039,-0.258l-0.038,-0.259l-0.038,-0.259l-0.037,-0.259l-0.036,-0.26l-0.035,-0.26l-0.034,-0.26l-0.034,-0.26l-0.032,-0.261l-0.032,-0.26l-0.031,-0.262l-0.031,-0.261l-0.029,-0.261l-0.029,-0.262l-0.028,-0.262l-0.027,-0.262l-0.026,-0.263l-0.026,-0.263l-0.024,-0.263l-0.024,-0.263l-0.023,-0.263l-0.022,-0.264l-0.022,-0.264l-0.02,-0.264l-0.02,-0.264l-0.019,-0.265l-0.018,-0.265l-0.017,-0.265l-0.017,-0.265l-0.015,-0.265l-0.015,-0.266l-0.014,-0.266l-0.013,-0.266l-0.012,-0.266l-0.012,-0.267l-0.01,-0.266l-0.01,-0.267l-0.009,-0.268l-0.008,-0.267l-0.007,-0.268l-0.006,-0.267l-0.006,-0.268l-0.005,-0.268l-0.003,-0.269l-0.003,-0.268l-0.003,-0.269l-0.001,-0.269l0,-0.269l0,-0.269l0.001,-0.269l0.003,-0.269l0.003,-0.269l0.003,-0.268l0.005,-0.268l0.006,-0.268l0.006,-0.268l0.007,-0.268l0.008,-0.267l0.009,-0.267l0.01,-0.267l0.01,-0.267l0.012,-0.266l0.012,-0.267l0.013,-0.266l0.014,-0.266l0.015,-0.265l0.015,-0.266l0.017,-0.265l0.017,-0.265l0.018,-0.265l0.019,-0.264l0.02,-0.265l0.02,-0.264l0.022,-0.264l0.022,-0.263l0.023,-0.264l0.024,-0.263l0.024,-0.263l0.026,-0.263l0.026,-0.262l0.027,-0.262l0.028,-0.262l0.029,-0.262l0.029,-0.262l0.031,-0.261l0.031,-0.261l0.032,-0.261l0.032,-0.26l0.034,-0.261l0.034,-0.26l0.035,-0.26l0.036,-0.259l0.037,-0.26l0.038,-0.259l0.038,-0.258l0.039,-0.259l0.04,-0.258l0.041,-0.258l0.041,-0.258l0.043,-0.258l0.043,-0.257l0.044,-0.257l0.044,-0.256l0.046,-0.257l0.046,-0.256l0.047,-0.256l0.048,-0.256l0.048,-0.255l0.05,-0.255l0.05,-0.255l0.051,-0.255l0.051,-0.254l0.053,-0.254l0.053,-0.253l0.054,-0.254l0.055,-0.253l0.055,-0.253l0.057,-0.252l0.057,-0.253l0.057,-0.252l0.059,-0.251l0.059,-0.252l0.06,-0.251l0.061,-0.251l0.062,-0.25l0.062,-0.251l0.063,-0.25l0.064,-0.249l0.065,-0.25l0.065,-0.249l0.066,-0.248l0.067,-0.249l0.068,-0.248l0.068,-0.248l0.069,-0.247l0.07,-0.247l0.071,-0.247l0.071,-0.247l0.072,-0.246l0.073,-0.246l0.074,-0.246l0.074,-0.245l0.075,-0.245l0.076,-0.245l0.076,-0.244l0.078,-0.244l0.077,-0.244l0.079,-0.243l0.08,-0.243l0.08,-0.243l0.081,-0.242l0.081,-0.242l0.082,-0.242l0.083,-0.242l0.084,-0.241l0.085,-0.24l0.085,-0.241l0.086,-0.24l0.086,-0.24l0.087,-0.239l0.089,-0.239l0.088,-0.239l0.09,-0.238l0.09,-0.238l0.091,-0.238l0.091,-0.237l0.092,-0.237l0.093,-0.237l0.094,-0.236l0.094,-0.236l0.095,-0.235l0.096,-0.236l0.097,-0.234l0.097,-0.235l0.098,-0.234l0.098,-0.234l0.099,-0.233l0.1,-0.233l0.101,-0.233l0.101,-0.232l0.102,-0.232l0.103,-0.232l0.103,-0.231l0.104,-0.231l0.105,-0.23l0.105,-0.23l0.106,-0.23l0.107,-0.229l0.107,-0.229l0.108,-0.229l0.109,-0.228l0.109,-0.228l0.11,-0.227l0.112,-0.228l0.223,-0.452l0.226,-0.451l0.229,-0.45l0.231,-0.448l0.234,-0.447l0.237,-0.445l0.239,-0.443l0.242,-0.442l0.244,-0.44l0.247,-0.439l0.25,-0.437l0.252,-0.435l0.255,-0.434l0.257,-0.432l0.26,-0.43l0.262,-0.428l0.265,-0.427l0.267,-0.425l0.27,-0.424l0.272,-0.421l0.275,-0.42l0.277,-0.418l0.279,-0.417l0.282,-0.414l0.285,-0.413l0.287,-0.411l0.289,-0.409l0.291,-0.407l0.294,-0.406l0.297,-0.404l0.299,-0.401l0.301,-0.4l0.303,-0.399l0.306,-0.396l0.308,-0.394l0.31,-0.392l0.313,-0.391l0.315,-0.389l0.317,-0.386l0.319,-0.385l0.322,-0.383l0.324,-0.381l0.326,-0.378l0.329,-0.377l0.331,-0.375l0.332,-0.373l0.336,-0.371l0.337,-0.369l0.339,-0.366l0.342,-0.365l0.344,-0.363l0.346,-0.361l0.348,-0.358l0.35,-0.357l0.352,-0.354l0.354,-0.352l0.357,-0.35l0.358,-0.348l0.361,-0.346l0.363,-0.344l0.365,-0.342l0.366,-0.339l0.369,-0.337l0.371,-0.336l0.373,-0.332l0.375,-0.331l0.377,-0.329l0.378,-0.326l0.381,-0.324l0.383,-0.322l0.385,-0.319l0.386,-0.317l0.389,-0.315l0.391,-0.313l0.392,-0.31l0.394,-0.308l0.396,-0.306l0.399,-0.303l0.4,-0.301l0.401,-0.299l0.404,-0.297l0.406,-0.294l0.407,-0.291l0.409,-0.289l0.411,-0.287l0.413,-0.285l0.414,-0.282l0.417,-0.279l0.418,-0.277l0.42,-0.275l0.421,-0.272l0.424,-0.27l0.425,-0.267l0.427,-0.265l0.428,-0.262l0.43,-0.26l0.432,-0.257l0.434,-0.255l0.435,-0.252l0.437,-0.25l0.439,-0.247l0.44,-0.244l0.442,-0.242l0.443,-0.239l0.445,-0.237l0.447,-0.234l0.448,-0.231l0.45,-0.229l0.451,-0.226l0.452,-0.223l0.228,-0.112l0.227,-0.11l0.228,-0.109l0.228,-0.109l0.229,-0.108l0.229,-0.107l0.229,-0.107l0.23,-0.106l0.23,-0.105l0.23,-0.105l0.231,-0.104l0.231,-0.103l0.232,-0.103l0.232,-0.102l0.232,-0.101l0.233,-0.101l0.233,-0.1l0.233,-0.099l0.234,-0.098l0.234,-0.098l0.235,-0.097l0.234,-0.097l0.236,-0.096l0.235,-0.095l0.236,-0.094l0.236,-0.094l0.237,-0.093l0.237,-0.092l0.237,-0.091l0.238,-0.091l0.238,-0.09l0.238,-0.09l0.239,-0.088l0.239,-0.089l0.239,-0.087l0.24,-0.086l0.24,-0.086l0.241,-0.085l0.24,-0.085l0.241,-0.084l0.242,-0.083l0.242,-0.082l0.242,-0.081l0.242,-0.081l0.243,-0.08l0.243,-0.08l0.243,-0.079l0.244,-0.077l0.244,-0.078l0.244,-0.076l0.245,-0.076l0.245,-0.075l0.245,-0.074l0.246,-0.074l0.246,-0.073l0.246,-0.072l0.247,-0.071l0.247,-0.071l0.247,-0.07l0.247,-0.069l0.248,-0.068l0.248,-0.068l0.249,-0.067l0.248,-0.066l0.249,-0.065l0.25,-0.065l0.249,-0.064l0.25,-0.063l0.251,-0.062l0.25,-0.062l0.251,-0.061l0.251,-0.06l0.252,-0.059l0.251,-0.059l0.252,-0.057l0.253,-0.057l0.252,-0.057l0.253,-0.055l0.253,-0.055l0.254,-0.054l0.253,-0.053l0.254,-0.053l0.254,-0.051l0.255,-0.051l0.255,-0.05l0.255,-0.05l0.255,-0.048l0.256,-0.048l0.256,-0.047l0.256,-0.046l0.257,-0.046l0.256,-0.044l0.257,-0.044l0.257,-0.043l0.258,-0.043l0.258,-0.041l0.258,-0.041l0.258,-0.04l0.259,-0.039l0.258,-0.038l0.259,-0.038l0.26,-0.037l0.259,-0.035l0.26,-0.036l0.26,-0.034l0.261,-0.034l0.26,-0.032l0.261,-0.032l0.261,-0.031l0.261,-0.031l0.262,-0.029l0.262,-0.029l0.262,-0.028l0.262,-0.027l0.262,-0.026l0.263,-0.026l0.263,-0.024l0.263,-0.024l0.264,-0.023l0.263,-0.022l0.264,-0.022l0.264,-0.02l0.265,-0.02l0.264,-0.019l0.265,-0.018l0.265,-0.017l0.265,-0.017l0.266,-0.015l0.265,-0.015l0.266,-0.014l0.266,-0.013l0.267,-0.012l0.266,-0.012l0.267,-0.01l0.267,-0.01l0.267,-0.009l0.267,-0.008l0.268,-0.007l0.268,-0.006l0.268,-0.006l0.268,-0.005l0.268,-0.003l0.269,-0.003l0.269,-0.003l0.269,-0.001l0.269,0l0.269,0Zm-0.526,4l-0.256,0.001l-0.256,0.002l-0.256,0.003l-0.256,0.004l-0.255,0.004l-0.255,0.006l-0.256,0.006l-0.254,0.007l-0.255,0.007l-0.255,0.009l-0.254,0.009l-0.254,0.01l-0.254,0.011l-0.253,0.012l-0.254,0.012l-0.253,0.013l-0.253,0.014l-0.253,0.015l-0.253,0.016l-0.252,0.016l-0.252,0.017l-0.252,0.018l-0.252,0.019l-0.251,0.02l-0.251,0.02l-0.252,0.021l-0.25,0.022l-0.251,0.023l-0.25,0.023l-0.251,0.025l-0.249,0.025l-0.25,0.025l-0.25,0.027l-0.249,0.027l-0.249,0.028l-0.249,0.029l-0.248,0.03l-0.248,0.03l-0.248,0.031l-0.248,0.032l-0.248,0.033l-0.247,0.034l-0.247,0.034l-0.247,0.035l-0.247,0.035l-0.246,0.037l-0.246,0.037l-0.246,0.038l-0.246,0.039l-0.245,0.04l-0.245,0.04l-0.245,0.041l-0.244,0.042l-0.245,0.042l-0.244,0.043l-0.244,0.044l-0.243,0.045l-0.243,0.046l-0.244,0.046l-0.242,0.047l-0.243,0.047l-0.242,0.049l-0.242,0.049l-0.242,0.05l-0.241,0.051l-0.241,0.051l-0.241,0.052l-0.241,0.053l-0.24,0.053l-0.24,0.055l-0.24,0.055l-0.24,0.056l-0.239,0.056l-0.239,0.057l-0.239,0.058l-0.238,0.059l-0.238,0.059l-0.238,0.06l-0.238,0.061l-0.237,0.061l-0.237,0.063l-0.236,0.063l-0.237,0.063l-0.236,0.065l-0.236,0.065l-0.235,0.065l-0.236,0.067l-0.235,0.067l-0.234,0.068l-0.235,0.069l-0.234,0.069l-0.233,0.07l-0.234,0.071l-0.233,0.071l-0.233,0.072l-0.232,0.073l-0.232,0.073l-0.232,0.074l-0.232,0.075l-0.231,0.076l-0.231,0.076l-0.231,0.077l-0.23,0.078l-0.23,0.078l-0.23,0.079l-0.229,0.08l-0.23,0.08l-0.228,0.081l-0.229,0.082l-0.228,0.082l-0.228,0.083l-0.227,0.084l-0.227,0.084l-0.227,0.086l-0.227,0.085l-0.226,0.087l-0.226,0.087l-0.225,0.088l-0.225,0.088l-0.225,0.089l-0.225,0.09l-0.224,0.091l-0.224,0.091l-0.223,0.091l-0.223,0.093l-0.223,0.093l-0.223,0.094l-0.222,0.094l-0.222,0.095l-0.221,0.096l-0.221,0.096l-0.221,0.097l-0.22,0.098l-0.22,0.098l-0.22,0.099l-0.219,0.1l-0.219,0.1l-0.219,0.101l-0.218,0.102l-0.218,0.102l-0.217,0.103l-0.218,0.103l-0.216,0.104l-0.217,0.105l-0.215,0.105l-0.432,0.213l-0.43,0.216l-0.428,0.217l-0.426,0.221l-0.426,0.222l-0.423,0.226l-0.422,0.228l-0.421,0.23l-0.419,0.232l-0.417,0.236l-0.416,0.237l-0.415,0.24l-0.412,0.243l-0.411,0.245l-0.41,0.247l-0.408,0.25l-0.406,0.252l-0.405,0.254l-0.403,0.257l-0.401,0.259l-0.4,0.261l-0.398,0.264l-0.397,0.267l-0.394,0.268l-0.393,0.271l-0.392,0.273l-0.389,0.275l-0.388,0.278l-0.386,0.28l-0.385,0.282l-0.382,0.285l-0.381,0.286l-0.379,0.289l-0.378,0.291l-0.375,0.294l-0.374,0.295l-0.372,0.298l-0.37,0.3l-0.368,0.302l-0.366,0.304l-0.365,0.307l-0.362,0.308l-0.361,0.311l-0.359,0.313l-0.357,0.314l-0.355,0.317l-0.353,0.32l-0.352,0.321l-0.349,0.323l-0.347,0.325l-0.346,0.328l-0.343,0.329l-0.342,0.332l-0.339,0.333l-0.338,0.335l-0.335,0.338l-0.333,0.339l-0.332,0.342l-0.329,0.343l-0.328,0.346l-0.325,0.347l-0.323,0.349l-0.321,0.352l-0.32,0.353l-0.317,0.355l-0.314,0.357l-0.313,0.359l-0.311,0.361l-0.308,0.362l-0.307,0.365l-0.304,0.366l-0.302,0.368l-0.3,0.37l-0.298,0.372l-0.295,0.374l-0.294,0.375l-0.291,0.378l-0.289,0.379l-0.286,0.381l-0.285,0.382l-0.282,0.385l-0.28,0.386l-0.278,0.388l-0.275,0.389l-0.273,0.392l-0.271,0.393l-0.268,0.394l-0.267,0.397l-0.264,0.398l-0.261,0.4l-0.259,0.401l-0.257,0.403l-0.254,0.405l-0.252,0.406l-0.25,0.408l-0.247,0.41l-0.245,0.411l-0.243,0.412l-0.24,0.415l-0.237,0.416l-0.236,0.417l-0.232,0.419l-0.23,0.421l-0.228,0.422l-0.226,0.423l-0.222,0.426l-0.221,0.426l-0.217,0.428l-0.216,0.43l-0.213,0.432l-0.105,0.215l-0.105,0.217l-0.104,0.216l-0.103,0.218l-0.103,0.217l-0.102,0.218l-0.102,0.218l-0.101,0.219l-0.1,0.219l-0.1,0.219l-0.099,0.22l-0.098,0.22l-0.098,0.22l-0.097,0.221l-0.096,0.221l-0.096,0.221l-0.095,0.222l-0.094,0.222l-0.094,0.223l-0.093,0.223l-0.093,0.223l-0.091,0.223l-0.091,0.224l-0.091,0.224l-0.09,0.225l-0.089,0.225l-0.088,0.225l-0.088,0.225l-0.087,0.226l-0.087,0.226l-0.085,0.227l-0.086,0.227l-0.084,0.227l-0.084,0.227l-0.083,0.228l-0.082,0.228l-0.082,0.229l-0.081,0.228l-0.08,0.23l-0.08,0.229l-0.079,0.23l-0.078,0.23l-0.078,0.23l-0.077,0.231l-0.076,0.231l-0.076,0.231l-0.075,0.232l-0.074,0.232l-0.073,0.232l-0.073,0.232l-0.072,0.233l-0.071,0.233l-0.071,0.234l-0.07,0.233l-0.069,0.234l-0.069,0.235l-0.068,0.234l-0.067,0.235l-0.067,0.236l-0.065,0.235l-0.065,0.236l-0.065,0.236l-0.063,0.237l-0.063,0.236l-0.063,0.237l-0.061,0.237l-0.061,0.238l-0.06,0.238l-0.059,0.238l-0.059,0.238l-0.058,0.239l-0.057,0.239l-0.056,0.239l-0.056,0.24l-0.055,0.24l-0.055,0.24l-0.053,0.24l-0.053,0.241l-0.052,0.241l-0.051,0.241l-0.051,0.241l-0.05,0.242l-0.049,0.242l-0.049,0.242l-0.047,0.243l-0.047,0.242l-0.046,0.244l-0.046,0.243l-0.045,0.243l-0.044,0.244l-0.043,0.244l-0.042,0.245l-0.042,0.244l-0.041,0.245l-0.04,0.245l-0.04,0.245l-0.039,0.246l-0.038,0.246l-0.037,0.246l-0.037,0.246l-0.035,0.247l-0.035,0.247l-0.034,0.247l-0.034,0.247l-0.033,0.248l-0.032,0.248l-0.031,0.248l-0.03,0.248l-0.03,0.248l-0.029,0.249l-0.028,0.249l-0.027,0.249l-0.027,0.25l-0.025,0.25l-0.025,0.25l-0.025,0.25l-0.023,0.25l-0.023,0.251l-0.022,0.25l-0.021,0.252l-0.02,0.251l-0.02,0.251l-0.019,0.252l-0.018,0.252l-0.017,0.252l-0.016,0.252l-0.016,0.253l-0.015,0.253l-0.014,0.253l-0.013,0.253l-0.012,0.254l-0.012,0.253l-0.011,0.254l-0.01,0.254l-0.009,0.254l-0.009,0.255l-0.007,0.255l-0.007,0.254l-0.006,0.256l-0.006,0.255l-0.004,0.255l-0.004,0.256l-0.003,0.256l-0.002,0.256l-0.001,0.256l0,0.257l0,0.256l0.001,0.257l0.002,0.256l0.003,0.255l0.004,0.256l0.004,0.256l0.006,0.255l0.006,0.255l0.007,0.255l0.007,0.255l0.009,0.254l0.009,0.254l0.01,0.254l0.011,0.254l0.012,0.254l0.012,0.253l0.013,0.254l0.014,0.253l0.015,0.252l0.016,0.253l0.016,0.252l0.017,0.253l0.018,0.252l0.019,0.251l0.02,0.252l0.02,0.251l0.021,0.251l0.022,0.251l0.023,0.25l0.023,0.251l0.025,0.25l0.025,0.25l0.025,0.25l0.027,0.249l0.027,0.249l0.028,0.249l0.029,0.249l0.03,0.249l0.03,0.248l0.031,0.248l0.032,0.248l0.033,0.247l0.034,0.248l0.034,0.247l0.035,0.247l0.035,0.246l0.037,0.246l0.037,0.247l0.038,0.245l0.039,0.246l0.04,0.245l0.04,0.245l0.041,0.245l0.042,0.245l0.042,0.244l0.043,0.244l0.044,0.244l0.045,0.244l0.046,0.243l0.046,0.243l0.047,0.243l0.047,0.242l0.049,0.243l0.049,0.242l0.05,0.241l0.051,0.242l0.051,0.241l0.052,0.241l0.053,0.24l0.053,0.241l0.055,0.24l0.055,0.24l0.056,0.239l0.056,0.239l0.057,0.239l0.058,0.239l0.059,0.239l0.059,0.238l0.06,0.237l0.061,0.238l0.061,0.237l0.063,0.237l0.063,0.237l0.063,0.236l0.065,0.237l0.065,0.235l0.065,0.236l0.067,0.235l0.067,0.235l0.068,0.235l0.069,0.234l0.069,0.234l0.07,0.234l0.071,0.233l0.071,0.233l0.072,0.233l0.073,0.233l0.073,0.232l0.074,0.232l0.075,0.232l0.076,0.231l0.076,0.231l0.077,0.23l0.078,0.231l0.078,0.23l0.079,0.23l0.08,0.229l0.08,0.229l0.081,0.229l0.082,0.228l0.082,0.228l0.083,0.228l0.084,0.228l0.084,0.227l0.086,0.227l0.085,0.226l0.087,0.226l0.087,0.226l0.088,0.226l0.088,0.225l0.089,0.225l0.09,0.224l0.091,0.224l0.091,0.224l0.091,0.224l0.093,0.223l0.093,0.223l0.094,0.222l0.094,0.222l0.095,0.222l0.096,0.221l0.096,0.222l0.097,0.22l0.098,0.221l0.098,0.22l0.099,0.219l0.1,0.22l0.1,0.219l0.101,0.218l0.102,0.219l0.102,0.217l0.103,0.218l0.103,0.217l0.104,0.217l0.105,0.216l0.105,0.215l0.213,0.433l0.216,0.429l0.217,0.428l0.221,0.427l0.222,0.425l0.226,0.424l0.228,0.422l0.23,0.42l0.232,0.419l0.236,0.418l0.237,0.416l0.24,0.414l0.243,0.413l0.245,0.411l0.247,0.41l0.25,0.407l0.252,0.407l0.254,0.405l0.257,0.403l0.259,0.401l0.261,0.4l0.264,0.398l0.267,0.396l0.268,0.395l0.271,0.393l0.273,0.391l0.275,0.39l0.278,0.388l0.28,0.386l0.282,0.384l0.285,0.383l0.286,0.381l0.289,0.379l0.291,0.377l0.294,0.376l0.295,0.373l0.298,0.372l0.3,0.37l0.302,0.368l0.304,0.367l0.307,0.364l0.308,0.363l0.311,0.361l0.312,0.359l0.315,0.357l0.317,0.355l0.32,0.353l0.321,0.351l0.323,0.349l0.325,0.348l0.328,0.345l0.329,0.344l0.332,0.341l0.333,0.34l0.335,0.337l0.338,0.336l0.339,0.333l0.342,0.331l0.343,0.33l0.346,0.327l0.347,0.326l0.349,0.323l0.352,0.321l0.353,0.319l0.355,0.317l0.357,0.315l0.359,0.313l0.361,0.31l0.362,0.309l0.365,0.306l0.366,0.305l0.368,0.302l0.37,0.3l0.372,0.297l0.374,0.296l0.375,0.293l0.378,0.291l0.379,0.289l0.381,0.287l0.382,0.284l0.385,0.283l0.386,0.28l0.388,0.277l0.389,0.276l0.391,0.273l0.394,0.27l0.394,0.269l0.397,0.266l0.398,0.264l0.399,0.262l0.402,0.259l0.403,0.256l0.405,0.255l0.406,0.252l0.408,0.25l0.41,0.247l0.411,0.245l0.412,0.242l0.415,0.24l0.416,0.238l0.417,0.235l0.419,0.233l0.421,0.23l0.422,0.228l0.423,0.225l0.426,0.223l0.426,0.22l0.428,0.218l0.43,0.215l0.432,0.214l0.215,0.104l0.217,0.105l0.216,0.104l0.218,0.104l0.217,0.102l0.218,0.103l0.218,0.101l0.219,0.101l0.219,0.1l0.219,0.1l0.22,0.099l0.22,0.098l0.22,0.098l0.221,0.097l0.221,0.097l0.221,0.095l0.222,0.095l0.222,0.095l0.223,0.093l0.223,0.094l0.223,0.092l0.223,0.092l0.224,0.091l0.224,0.09l0.225,0.09l0.225,0.089l0.225,0.089l0.225,0.088l0.226,0.087l0.226,0.086l0.227,0.086l0.227,0.085l0.227,0.084l0.227,0.084l0.228,0.083l0.228,0.083l0.229,0.081l0.228,0.081l0.23,0.081l0.229,0.08l0.23,0.078l0.23,0.079l0.23,0.077l0.231,0.077l0.231,0.077l0.231,0.075l0.232,0.075l0.232,0.074l0.232,0.074l0.232,0.072l0.233,0.073l0.233,0.071l0.234,0.071l0.233,0.07l0.234,0.069l0.235,0.069l0.234,0.067l0.235,0.068l0.236,0.066l0.235,0.066l0.236,0.065l0.236,0.064l0.237,0.064l0.236,0.063l0.237,0.062l0.237,0.062l0.238,0.06l0.238,0.06l0.238,0.06l0.238,0.058l0.239,0.058l0.239,0.058l0.239,0.056l0.24,0.056l0.24,0.055l0.24,0.054l0.24,0.054l0.241,0.052l0.241,0.053l0.241,0.051l0.241,0.051l0.242,0.049l0.242,0.05l0.242,0.048l0.243,0.048l0.243,0.047l0.243,0.046l0.243,0.045l0.243,0.045l0.244,0.044l0.244,0.043l0.245,0.043l0.244,0.042l0.245,0.041l0.245,0.04l0.245,0.04l0.246,0.038l0.246,0.038l0.246,0.038l0.246,0.036l0.247,0.036l0.247,0.035l0.247,0.034l0.247,0.033l0.248,0.033l0.248,0.032l0.248,0.031l0.248,0.031l0.248,0.029l0.249,0.029l0.249,0.028l0.249,0.028l0.25,0.026l0.25,0.026l0.25,0.025l0.25,0.024l0.25,0.024l0.251,0.022l0.25,0.022l0.251,0.021l0.252,0.021l0.251,0.019l0.252,0.019l0.252,0.018l0.252,0.017l0.252,0.017l0.253,0.015l0.253,0.015l0.253,0.014l0.253,0.013l0.254,0.013l0.253,0.012l0.254,0.01l0.254,0.011l0.254,0.009l0.255,0.008l0.255,0.008l0.254,0.007l0.256,0.006l0.255,0.005l0.255,0.005l0.256,0.003l0.256,0.003l0.256,0.002l0.256,0.001l0.257,0.001l0.256,-0.001l0.256,-0.001l0.257,-0.002l0.255,-0.003l0.256,-0.003l0.256,-0.005l0.255,-0.005l0.255,-0.006l0.255,-0.007l0.255,-0.008l0.254,-0.008l0.254,-0.009l0.254,-0.011l0.254,-0.01l0.254,-0.012l0.253,-0.013l0.254,-0.013l0.253,-0.014l0.252,-0.015l0.253,-0.015l0.252,-0.017l0.253,-0.017l0.252,-0.018l0.251,-0.019l0.252,-0.019l0.251,-0.021l0.251,-0.021l0.251,-0.022l0.25,-0.022l0.251,-0.024l0.25,-0.024l0.25,-0.025l0.25,-0.026l0.249,-0.026l0.249,-0.028l0.249,-0.028l0.249,-0.029l0.249,-0.029l0.248,-0.031l0.248,-0.031l0.248,-0.032l0.247,-0.033l0.248,-0.033l0.247,-0.034l0.247,-0.035l0.246,-0.036l0.246,-0.036l0.247,-0.038l0.245,-0.038l0.246,-0.038l0.245,-0.04l0.245,-0.04l0.245,-0.041l0.245,-0.042l0.244,-0.043l0.244,-0.043l0.244,-0.044l0.244,-0.045l0.243,-0.045l0.243,-0.046l0.243,-0.047l0.242,-0.048l0.243,-0.048l0.242,-0.05l0.241,-0.049l0.242,-0.051l0.241,-0.051l0.241,-0.053l0.24,-0.052l0.241,-0.054l0.24,-0.054l0.24,-0.055l0.239,-0.056l0.239,-0.056l0.239,-0.058l0.239,-0.058l0.239,-0.058l0.238,-0.06l0.237,-0.06l0.238,-0.06l0.237,-0.062l0.237,-0.062l0.237,-0.063l0.236,-0.064l0.237,-0.064l0.235,-0.065l0.236,-0.066l0.235,-0.066l0.235,-0.068l0.235,-0.067l0.234,-0.069l0.234,-0.069l0.234,-0.07l0.233,-0.071l0.233,-0.071l0.233,-0.073l0.233,-0.072l0.232,-0.074l0.232,-0.074l0.232,-0.075l0.231,-0.075l0.231,-0.077l0.23,-0.077l0.231,-0.077l0.23,-0.079l0.23,-0.078l0.229,-0.08l0.229,-0.081l0.229,-0.081l0.228,-0.081l0.228,-0.083l0.228,-0.083l0.228,-0.084l0.227,-0.084l0.227,-0.085l0.226,-0.086l0.226,-0.086l0.226,-0.087l0.226,-0.088l0.225,-0.089l0.225,-0.089l0.224,-0.09l0.224,-0.09l0.224,-0.091l0.224,-0.092l0.223,-0.092l0.223,-0.094l0.222,-0.093l0.222,-0.095l0.222,-0.095l0.221,-0.095l0.222,-0.097l0.22,-0.097l0.221,-0.098l0.22,-0.098l0.219,-0.099l0.22,-0.1l0.219,-0.1l0.218,-0.101l0.218,-0.101l0.218,-0.103l0.218,-0.102l0.217,-0.104l0.217,-0.104l0.216,-0.105l0.215,-0.104l0.433,-0.214l0.429,-0.215l0.428,-0.218l0.427,-0.22l0.425,-0.223l0.424,-0.225l0.422,-0.228l0.42,-0.23l0.419,-0.233l0.418,-0.235l0.416,-0.238l0.414,-0.24l0.413,-0.242l0.411,-0.245l0.41,-0.247l0.407,-0.25l0.407,-0.252l0.405,-0.255l0.403,-0.256l0.401,-0.259l0.4,-0.262l0.398,-0.264l0.396,-0.266l0.395,-0.269l0.393,-0.27l0.391,-0.273l0.39,-0.276l0.388,-0.277l0.386,-0.28l0.384,-0.283l0.383,-0.284l0.381,-0.287l0.379,-0.289l0.377,-0.291l0.376,-0.293l0.373,-0.296l0.372,-0.297l0.37,-0.3l0.368,-0.302l0.367,-0.305l0.364,-0.306l0.363,-0.309l0.361,-0.31l0.359,-0.313l0.357,-0.315l0.355,-0.317l0.353,-0.319l0.351,-0.321l0.349,-0.323l0.348,-0.326l0.345,-0.327l0.344,-0.33l0.341,-0.331l0.34,-0.333l0.337,-0.336l0.336,-0.337l0.333,-0.34l0.331,-0.341l0.33,-0.344l0.327,-0.345l0.326,-0.348l0.323,-0.349l0.321,-0.351l0.319,-0.353l0.317,-0.355l0.315,-0.357l0.313,-0.359l0.31,-0.361l0.309,-0.363l0.306,-0.364l0.305,-0.367l0.302,-0.368l0.3,-0.37l0.297,-0.372l0.296,-0.373l0.293,-0.376l0.291,-0.377l0.289,-0.379l0.287,-0.381l0.284,-0.383l0.283,-0.384l0.28,-0.386l0.277,-0.388l0.276,-0.39l0.273,-0.391l0.271,-0.393l0.268,-0.395l0.266,-0.396l0.264,-0.398l0.262,-0.4l0.259,-0.401l0.256,-0.403l0.255,-0.405l0.252,-0.407l0.25,-0.407l0.247,-0.41l0.245,-0.411l0.242,-0.413l0.24,-0.414l0.238,-0.416l0.235,-0.418l0.233,-0.419l0.23,-0.42l0.228,-0.422l0.225,-0.424l0.223,-0.425l0.22,-0.427l0.218,-0.428l0.215,-0.429l0.214,-0.433l0.104,-0.215l0.105,-0.216l0.104,-0.217l0.104,-0.217l0.103,-0.218l0.102,-0.217l0.101,-0.219l0.101,-0.218l0.1,-0.219l0.1,-0.22l0.099,-0.219l0.098,-0.22l0.098,-0.221l0.097,-0.22l0.097,-0.222l0.095,-0.221l0.095,-0.222l0.095,-0.222l0.094,-0.222l0.093,-0.223l0.092,-0.223l0.092,-0.224l0.091,-0.224l0.09,-0.224l0.09,-0.224l0.089,-0.225l0.089,-0.225l0.088,-0.226l0.087,-0.226l0.086,-0.226l0.086,-0.226l0.085,-0.227l0.084,-0.227l0.084,-0.228l0.083,-0.228l0.083,-0.228l0.081,-0.228l0.081,-0.229l0.081,-0.229l0.079,-0.229l0.08,-0.23l0.078,-0.23l0.077,-0.231l0.077,-0.23l0.077,-0.231l0.075,-0.232l0.075,-0.231l0.074,-0.232l0.074,-0.232l0.072,-0.233l0.073,-0.233l0.071,-0.233l0.071,-0.233l0.07,-0.234l0.069,-0.234l0.069,-0.234l0.067,-0.235l0.068,-0.235l0.066,-0.235l0.066,-0.236l0.065,-0.236l0.064,-0.236l0.064,-0.236l0.063,-0.237l0.062,-0.237l0.062,-0.237l0.06,-0.238l0.06,-0.237l0.06,-0.238l0.058,-0.239l0.058,-0.239l0.058,-0.239l0.056,-0.239l0.056,-0.239l0.055,-0.24l0.054,-0.24l0.054,-0.241l0.052,-0.24l0.053,-0.241l0.051,-0.241l0.051,-0.242l0.049,-0.241l0.05,-0.242l0.048,-0.243l0.048,-0.242l0.047,-0.243l0.046,-0.243l0.045,-0.243l0.045,-0.244l0.044,-0.244l0.043,-0.244l0.043,-0.244l0.042,-0.245l0.041,-0.245l0.04,-0.245l0.039,-0.245l0.039,-0.246l0.038,-0.245l0.038,-0.247l0.036,-0.246l0.036,-0.246l0.035,-0.247l0.034,-0.247l0.033,-0.248l0.033,-0.247l0.032,-0.248l0.031,-0.248l0.031,-0.248l0.029,-0.249l0.029,-0.249l0.028,-0.249l0.028,-0.249l0.026,-0.249l0.026,-0.25l0.025,-0.25l0.024,-0.25l0.024,-0.251l0.022,-0.25l0.022,-0.251l0.021,-0.251l0.021,-0.251l0.019,-0.252l0.019,-0.252l0.018,-0.251l0.017,-0.253l0.017,-0.252l0.015,-0.253l0.015,-0.252l0.014,-0.253l0.013,-0.254l0.013,-0.253l0.012,-0.254l0.01,-0.254l0.011,-0.254l0.009,-0.254l0.008,-0.254l0.008,-0.255l0.007,-0.255l0.006,-0.255l0.005,-0.255l0.005,-0.256l0.003,-0.255l0.003,-0.256l0.002,-0.257l0.001,-0.256l0.001,-0.256l-0.001,-0.257l-0.001,-0.256l-0.002,-0.256l-0.003,-0.256l-0.003,-0.256l-0.005,-0.255l-0.005,-0.255l-0.006,-0.256l-0.007,-0.254l-0.008,-0.255l-0.008,-0.255l-0.009,-0.254l-0.011,-0.254l-0.01,-0.254l-0.012,-0.253l-0.013,-0.254l-0.013,-0.253l-0.014,-0.253l-0.015,-0.253l-0.015,-0.253l-0.017,-0.252l-0.017,-0.252l-0.018,-0.252l-0.019,-0.252l-0.019,-0.251l-0.021,-0.252l-0.021,-0.251l-0.022,-0.25l-0.022,-0.251l-0.024,-0.25l-0.024,-0.251l-0.025,-0.249l-0.026,-0.25l-0.026,-0.25l-0.028,-0.249l-0.028,-0.249l-0.029,-0.249l-0.029,-0.248l-0.031,-0.248l-0.031,-0.248l-0.032,-0.248l-0.033,-0.248l-0.033,-0.247l-0.034,-0.247l-0.035,-0.247l-0.036,-0.247l-0.036,-0.246l-0.038,-0.246l-0.038,-0.246l-0.039,-0.246l-0.039,-0.245l-0.04,-0.245l-0.041,-0.245l-0.042,-0.244l-0.043,-0.245l-0.043,-0.244l-0.044,-0.244l-0.045,-0.243l-0.045,-0.243l-0.046,-0.243l-0.047,-0.243l-0.048,-0.243l-0.048,-0.242l-0.05,-0.242l-0.049,-0.242l-0.051,-0.241l-0.051,-0.241l-0.053,-0.241l-0.052,-0.241l-0.054,-0.24l-0.054,-0.24l-0.055,-0.24l-0.056,-0.24l-0.056,-0.239l-0.058,-0.239l-0.058,-0.239l-0.058,-0.238l-0.06,-0.238l-0.06,-0.238l-0.06,-0.237l-0.062,-0.238l-0.062,-0.237l-0.063,-0.236l-0.064,-0.237l-0.064,-0.236l-0.065,-0.236l-0.066,-0.235l-0.066,-0.236l-0.068,-0.235l-0.067,-0.234l-0.069,-0.235l-0.069,-0.234l-0.07,-0.233l-0.071,-0.234l-0.071,-0.233l-0.073,-0.233l-0.072,-0.232l-0.074,-0.232l-0.074,-0.232l-0.075,-0.232l-0.075,-0.231l-0.077,-0.231l-0.077,-0.231l-0.077,-0.23l-0.078,-0.23l-0.08,-0.23l-0.079,-0.229l-0.081,-0.23l-0.081,-0.228l-0.081,-0.229l-0.083,-0.228l-0.083,-0.228l-0.084,-0.227l-0.084,-0.227l-0.085,-0.227l-0.086,-0.227l-0.086,-0.226l-0.087,-0.226l-0.088,-0.225l-0.089,-0.225l-0.089,-0.225l-0.09,-0.225l-0.09,-0.224l-0.091,-0.224l-0.092,-0.223l-0.092,-0.223l-0.093,-0.223l-0.094,-0.223l-0.095,-0.222l-0.095,-0.222l-0.095,-0.221l-0.097,-0.221l-0.097,-0.221l-0.098,-0.22l-0.098,-0.22l-0.099,-0.22l-0.1,-0.219l-0.1,-0.219l-0.101,-0.219l-0.101,-0.218l-0.102,-0.218l-0.103,-0.217l-0.104,-0.218l-0.104,-0.216l-0.105,-0.217l-0.104,-0.215l-0.214,-0.432l-0.215,-0.43l-0.218,-0.428l-0.22,-0.426l-0.223,-0.426l-0.225,-0.423l-0.228,-0.422l-0.23,-0.421l-0.233,-0.419l-0.235,-0.417l-0.238,-0.416l-0.24,-0.415l-0.242,-0.412l-0.245,-0.411l-0.247,-0.41l-0.25,-0.408l-0.252,-0.406l-0.255,-0.405l-0.256,-0.403l-0.259,-0.402l-0.262,-0.399l-0.264,-0.398l-0.266,-0.397l-0.268,-0.394l-0.271,-0.393l-0.273,-0.392l-0.276,-0.389l-0.277,-0.388l-0.28,-0.386l-0.283,-0.385l-0.284,-0.382l-0.287,-0.381l-0.289,-0.379l-0.291,-0.378l-0.293,-0.375l-0.296,-0.374l-0.297,-0.372l-0.3,-0.37l-0.302,-0.368l-0.305,-0.366l-0.306,-0.365l-0.309,-0.362l-0.31,-0.361l-0.313,-0.359l-0.315,-0.357l-0.317,-0.355l-0.319,-0.353l-0.321,-0.352l-0.323,-0.349l-0.326,-0.347l-0.327,-0.346l-0.33,-0.343l-0.331,-0.342l-0.333,-0.339l-0.336,-0.338l-0.337,-0.335l-0.34,-0.333l-0.341,-0.332l-0.344,-0.329l-0.345,-0.328l-0.348,-0.325l-0.349,-0.323l-0.351,-0.321l-0.353,-0.32l-0.355,-0.317l-0.357,-0.314l-0.359,-0.313l-0.361,-0.311l-0.363,-0.308l-0.364,-0.307l-0.367,-0.304l-0.368,-0.302l-0.37,-0.3l-0.372,-0.298l-0.373,-0.295l-0.376,-0.294l-0.377,-0.291l-0.379,-0.289l-0.381,-0.286l-0.383,-0.285l-0.384,-0.282l-0.386,-0.28l-0.388,-0.278l-0.39,-0.275l-0.391,-0.273l-0.393,-0.271l-0.395,-0.268l-0.396,-0.267l-0.398,-0.264l-0.4,-0.261l-0.401,-0.259l-0.403,-0.257l-0.405,-0.254l-0.407,-0.252l-0.407,-0.25l-0.41,-0.247l-0.411,-0.245l-0.413,-0.243l-0.414,-0.24l-0.416,-0.237l-0.418,-0.236l-0.419,-0.232l-0.42,-0.23l-0.422,-0.228l-0.424,-0.226l-0.425,-0.222l-0.427,-0.221l-0.428,-0.217l-0.429,-0.216l-0.433,-0.213l-0.215,-0.105l-0.216,-0.105l-0.217,-0.104l-0.217,-0.103l-0.218,-0.103l-0.217,-0.102l-0.219,-0.102l-0.218,-0.101l-0.219,-0.1l-0.22,-0.1l-0.219,-0.099l-0.22,-0.098l-0.221,-0.098l-0.22,-0.097l-0.222,-0.096l-0.221,-0.096l-0.222,-0.095l-0.222,-0.094l-0.222,-0.094l-0.223,-0.093l-0.223,-0.093l-0.224,-0.091l-0.224,-0.091l-0.224,-0.091l-0.224,-0.09l-0.225,-0.089l-0.225,-0.088l-0.226,-0.088l-0.226,-0.087l-0.226,-0.087l-0.226,-0.085l-0.227,-0.086l-0.227,-0.084l-0.228,-0.084l-0.228,-0.083l-0.228,-0.082l-0.228,-0.082l-0.229,-0.081l-0.229,-0.08l-0.229,-0.08l-0.23,-0.079l-0.23,-0.078l-0.231,-0.078l-0.23,-0.077l-0.231,-0.076l-0.231,-0.076l-0.232,-0.075l-0.232,-0.074l-0.232,-0.073l-0.233,-0.073l-0.233,-0.072l-0.233,-0.071l-0.233,-0.071l-0.234,-0.07l-0.234,-0.069l-0.234,-0.069l-0.235,-0.068l-0.235,-0.067l-0.235,-0.067l-0.236,-0.065l-0.235,-0.065l-0.237,-0.065l-0.236,-0.063l-0.237,-0.063l-0.237,-0.063l-0.237,-0.061l-0.238,-0.061l-0.237,-0.06l-0.238,-0.059l-0.239,-0.059l-0.239,-0.058l-0.239,-0.057l-0.239,-0.056l-0.239,-0.056l-0.24,-0.055l-0.24,-0.055l-0.241,-0.053l-0.24,-0.053l-0.241,-0.052l-0.241,-0.051l-0.242,-0.051l-0.241,-0.05l-0.242,-0.049l-0.243,-0.049l-0.242,-0.047l-0.243,-0.047l-0.243,-0.046l-0.243,-0.046l-0.244,-0.045l-0.244,-0.044l-0.244,-0.043l-0.244,-0.042l-0.245,-0.042l-0.245,-0.041l-0.245,-0.04l-0.245,-0.04l-0.246,-0.039l-0.245,-0.038l-0.247,-0.037l-0.246,-0.037l-0.246,-0.035l-0.247,-0.035l-0.247,-0.034l-0.248,-0.034l-0.247,-0.033l-0.248,-0.032l-0.248,-0.031l-0.248,-0.03l-0.249,-0.03l-0.249,-0.029l-0.249,-0.028l-0.249,-0.027l-0.249,-0.027l-0.25,-0.025l-0.25,-0.025l-0.25,-0.025l-0.251,-0.023l-0.25,-0.023l-0.251,-0.022l-0.251,-0.021l-0.251,-0.02l-0.252,-0.02l-0.251,-0.019l-0.252,-0.018l-0.253,-0.017l-0.252,-0.016l-0.253,-0.016l-0.252,-0.015l-0.253,-0.014l-0.254,-0.013l-0.253,-0.012l-0.254,-0.012l-0.254,-0.011l-0.254,-0.01l-0.254,-0.009l-0.254,-0.009l-0.255,-0.007l-0.255,-0.007l-0.255,-0.006l-0.255,-0.006l-0.256,-0.004l-0.256,-0.004l-0.255,-0.003l-0.256,-0.002l-0.257,-0.001l-0.256,0l-0.257,0Z" style="fill:#fff;"/></svg>