<?xml version="1.0" encoding="UTF-8" standalone="no"?>
<!DOCTYPE svg PUBLIC "-//W3C//DTD SVG 1.1//EN" "http://www.w3.org/Graphics/SVG/1.1/DTD/svg11.dtd">
<svg width="100%" height="100%" viewBox="0 0 203 203" version="1.1" xmlns="http://www.w3.org/2000/svg" xmlns:xlink="http://www.w3.org/1999/xlink" xml:space="preserve" style="fill-rule:evenodd;clip-rule:evenodd;stroke-linejoin:round;stroke-miterlimit:1.41421;">
    <g transform="matrix(1,0,0,1,1.79975,2.09975)">
        <path d="M119.3,55.2C118,55.2 117.1,56.2 117.1,57.4C117.1,58.6 118.1,59.6 119.3,59.6C120.5,59.6 121.5,58.6 121.5,57.4C121.5,56.2 120.5,55.2 119.3,55.2Z" style="fill:white;fill-rule:nonzero;"/>
        <path d="M127.2,63L72,63L72,57.4C72,53.1 75.5,49.6 79.8,49.6L119.4,49.6C123.7,49.6 127.2,53.1 127.2,57.4L127.2,63ZM127.2,134.3L72,134.3L72,65.1L127.2,65.1L127.2,134.3ZM127.2,141.2C127.2,145.5 123.7,149 119.4,149L79.8,149C75.5,149 72,145.5 72,141.2L72,136.4L127.2,136.4L127.2,141.2ZM119.5,47.6L79.8,47.6C74.4,47.6 69.9,52 69.9,57.5L69.9,141.2C69.9,146.6 74.3,151.1 79.8,151.1L119.4,151.1C124.8,151.1 129.3,146.7 129.3,141.2L129.3,57.5C129.3,52.1 124.9,47.6 119.5,47.6Z" style="fill:white;fill-rule:nonzero;"/>
        <path d="M95.1,145.5L103.9,145.5C105.1,145.5 106.1,144.5 106.1,143.3C106.1,142.1 105.1,141.1 103.9,141.1L95.1,141.1C93.9,141.1 92.9,142.1 92.9,143.3C92.9,144.5 93.9,145.5 95.1,145.5Z" style="fill:white;fill-rule:nonzero;"/>
        <path d="M116.4,112.3L96.7,112.3C96.5,112.3 96.3,112.1 96.3,111.9L98.1,90.9L98.1,90.8C98.1,90.6 98.3,90.4 98.5,90.4L101.8,90.4L101.8,94.4C101.8,95 102.3,95.5 102.9,95.5C103.5,95.5 104,95 104,94.4L104,90.4L109.1,90.4L109.1,94.4C109.1,95 109.6,95.5 110.2,95.5C110.8,95.5 111.3,95 111.3,94.4L111.3,90.4L114.6,90.4C114.8,90.4 115,90.6 115,90.8L115,90.9L116.8,111.9C116.7,112.1 116.6,112.3 116.4,112.3ZM106.5,86.4C107.6,86.4 108.6,87.1 108.9,88.2L104,88.2C104.4,87.2 105.4,86.4 106.5,86.4ZM119,111.8L117.2,90.8C117.2,89.4 116,88.2 114.6,88.2L111.3,88.2C110.9,85.9 109,84.2 106.6,84.2C104.2,84.2 102.3,86 101.9,88.2L98.6,88.2C97.2,88.2 96,89.3 96,90.8L94.2,111.8C94.2,113.2 95.4,114.4 96.8,114.4L116.5,114.4C117.8,114.5 119,113.3 119,111.8C119,111.9 119,111.8 119,111.8Z" style="fill:white;fill-rule:nonzero;"/>
        <path d="M91.5,94C91,94 90.7,94.4 90.7,94.9L90.7,97.7C90.7,98.9 89.8,99.8 88.7,99.8C87.6,99.8 86.7,98.8 86.7,97.7L86.7,94.9C86.7,94.4 86.3,94 85.9,94C85.4,94 85.1,94.4 85.1,94.9L85.1,97.7C85.1,99.9 86.7,101.7 88.7,101.7C90.7,101.7 92.3,99.9 92.3,97.7L92.3,94.9C92.3,94.4 92,94 91.5,94Z" style="fill:white;fill-rule:nonzero;"/>
        <path d="M79.5,92.5L78.8,111.6C78.8,112.8 79.8,113.8 81,113.8L91.5,113.8L91.7,112L81,112C80.8,112 80.7,111.9 80.7,111.7L81.4,92.6C81.4,92.4 81.5,92.3 81.7,92.3L93.4,92.3L93.6,90.5L81.7,90.5C80.5,90.4 79.5,91.3 79.5,92.5Z" style="fill:white;fill-rule:nonzero;"/>
        <path d="M99.869,16L100.138,16.002L100.407,16.004L100.675,16.007L100.944,16.011L101.212,16.015L101.48,16.021L101.748,16.027L102.015,16.034L102.283,16.042L102.55,16.051L102.817,16.061L103.083,16.072L103.35,16.083L103.616,16.095L103.882,16.108L104.148,16.122L104.414,16.137L104.679,16.153L104.945,16.169L105.21,16.186L105.474,16.204L105.739,16.223L106.003,16.243L106.267,16.264L106.531,16.285L106.795,16.307L107.058,16.33L107.322,16.354L107.585,16.379L107.847,16.404L108.11,16.43L108.372,16.457L108.634,16.485L108.896,16.514L109.157,16.544L109.419,16.574L109.68,16.605L109.941,16.637L110.201,16.67L110.461,16.703L110.722,16.738L110.981,16.773L111.241,16.809L111.5,16.845L111.759,16.883L112.018,16.921L112.277,16.96L112.535,17L112.793,17.041L113.051,17.083L113.308,17.125L113.566,17.168L113.823,17.212L114.079,17.257L114.336,17.302L114.592,17.348L114.848,17.395L115.103,17.443L115.359,17.492L115.614,17.541L115.869,17.591L116.123,17.642L116.378,17.694L116.632,17.746L116.885,17.799L117.139,17.853L117.392,17.908L117.645,17.964L117.897,18.02L118.149,18.077L118.401,18.135L118.653,18.193L118.905,18.253L119.156,18.313L119.407,18.374L119.657,18.435L119.907,18.498L120.157,18.561L120.407,18.625L120.656,18.689L120.905,18.755L121.154,18.821L121.402,18.888L121.651,18.955L121.898,19.024L122.146,19.093L122.393,19.163L122.64,19.233L122.887,19.305L123.133,19.377L123.379,19.449L123.624,19.523L123.87,19.597L124.115,19.672L124.359,19.748L124.604,19.825L124.848,19.902L125.092,19.98L125.335,20.058L125.578,20.138L125.821,20.218L126.063,20.299L126.305,20.38L126.547,20.463L126.788,20.546L127.029,20.629L127.27,20.714L127.511,20.799L127.751,20.885L127.99,20.971L128.23,21.059L128.469,21.147L128.708,21.235L128.946,21.325L129.184,21.415L129.422,21.506L129.659,21.597L129.896,21.69L130.132,21.783L130.369,21.876L130.605,21.971L130.84,22.066L131.075,22.161L131.31,22.258L131.545,22.355L131.779,22.453L132.013,22.551L132.246,22.651L132.479,22.75L132.712,22.851L132.944,22.952L133.176,23.054L133.407,23.157L133.639,23.26L133.869,23.364L134.1,23.469L134.33,23.574L134.56,23.68L134.789,23.787L135.018,23.894L135.246,24.003L135.475,24.111L135.702,24.221L135.93,24.331L136.158,24.442L136.61,24.665L137.061,24.891L137.511,25.12L137.959,25.351L138.406,25.585L138.851,25.822L139.294,26.061L139.736,26.303L140.176,26.548L140.615,26.795L141.052,27.044L141.487,27.296L141.92,27.551L142.352,27.808L142.783,28.068L143.211,28.33L143.638,28.595L144.063,28.862L144.486,29.132L144.908,29.404L145.328,29.679L145.746,29.956L146.162,30.236L146.577,30.518L146.99,30.802L147.401,31.089L147.81,31.378L148.217,31.67L148.623,31.964L149.026,32.26L149.428,32.559L149.828,32.86L150.226,33.163L150.622,33.469L151.017,33.777L151.409,34.087L151.8,34.4L152.188,34.715L152.575,35.032L152.96,35.352L153.343,35.673L153.723,35.997L154.102,36.324L154.479,36.652L154.854,36.983L155.227,37.316L155.598,37.651L155.966,37.988L156.333,38.328L156.698,38.669L157.061,39.013L157.421,39.359L157.78,39.707L158.136,40.057L158.491,40.409L158.843,40.764L159.193,41.12L159.541,41.479L159.887,41.839L160.231,42.202L160.572,42.567L160.912,42.934L161.249,43.302L161.584,43.673L161.917,44.046L162.248,44.421L162.576,44.798L162.903,45.177L163.227,45.557L163.548,45.94L163.868,46.325L164.185,46.712L164.5,47.1L164.813,47.491L165.123,47.883L165.431,48.278L165.737,48.674L166.04,49.072L166.341,49.472L166.64,49.874L166.936,50.277L167.23,50.683L167.522,51.09L167.811,51.499L168.098,51.91L168.382,52.323L168.664,52.738L168.944,53.154L169.221,53.572L169.496,53.992L169.768,54.414L170.038,54.837L170.305,55.262L170.57,55.689L170.832,56.117L171.092,56.548L171.349,56.98L171.604,57.413L171.856,57.848L172.105,58.285L172.352,58.724L172.597,59.164L172.839,59.606L173.078,60.049L173.315,60.494L173.549,60.941L173.78,61.389L174.009,61.839L174.235,62.29L174.458,62.742L174.569,62.97L174.679,63.198L174.789,63.425L174.897,63.654L175.006,63.882L175.113,64.111L175.22,64.34L175.326,64.57L175.431,64.8L175.536,65.031L175.64,65.261L175.743,65.493L175.846,65.724L175.948,65.956L176.049,66.188L176.15,66.421L176.249,66.654L176.349,66.887L176.447,67.121L176.545,67.355L176.642,67.59L176.739,67.825L176.834,68.06L176.929,68.295L177.024,68.531L177.117,68.768L177.21,69.004L177.303,69.241L177.394,69.479L177.485,69.716L177.575,69.954L177.665,70.193L177.753,70.431L177.841,70.67L177.929,70.91L178.015,71.149L178.101,71.389L178.186,71.63L178.271,71.871L178.354,72.112L178.437,72.353L178.52,72.595L178.601,72.837L178.682,73.079L178.762,73.322L178.842,73.565L178.92,73.808L178.998,74.052L179.075,74.296L179.152,74.541L179.228,74.785L179.303,75.03L179.377,75.276L179.451,75.521L179.523,75.767L179.595,76.013L179.667,76.26L179.737,76.507L179.807,76.754L179.876,77.002L179.945,77.249L180.012,77.498L180.079,77.746L180.145,77.995L180.211,78.244L180.275,78.493L180.339,78.743L180.402,78.993L180.465,79.243L180.526,79.493L180.587,79.744L180.647,79.995L180.707,80.247L180.765,80.499L180.823,80.751L180.88,81.003L180.936,81.255L180.992,81.508L181.047,81.761L181.101,82.015L181.154,82.269L181.206,82.522L181.258,82.777L181.309,83.031L181.359,83.286L181.408,83.541L181.457,83.797L181.505,84.052L181.552,84.308L181.598,84.564L181.643,84.821L181.688,85.077L181.732,85.335L181.775,85.592L181.817,85.849L181.859,86.107L181.9,86.365L181.94,86.623L181.979,86.882L182.017,87.141L182.055,87.4L182.091,87.659L182.127,87.919L182.162,88.178L182.197,88.438L182.23,88.699L182.263,88.959L182.295,89.22L182.326,89.481L182.356,89.743L182.386,90.004L182.415,90.266L182.443,90.528L182.47,90.79L182.496,91.053L182.521,91.315L182.546,91.578L182.57,91.842L182.593,92.105L182.615,92.369L182.636,92.633L182.657,92.897L182.677,93.161L182.696,93.426L182.714,93.69L182.731,93.955L182.747,94.221L182.763,94.486L182.778,94.752L182.792,95.018L182.805,95.284L182.817,95.55L182.828,95.816L182.839,96.083L182.849,96.35L182.858,96.617L182.866,96.885L182.873,97.152L182.879,97.42L182.885,97.688L182.889,97.956L182.893,98.225L182.896,98.493L182.898,98.762L182.9,99.031L182.9,99.3L182.9,99.569L182.898,99.838L182.896,100.107L182.893,100.375L182.889,100.644L182.885,100.912L182.879,101.18L182.873,101.448L182.866,101.715L182.858,101.983L182.849,102.25L182.839,102.517L182.828,102.784L182.817,103.05L182.805,103.316L182.792,103.582L182.778,103.848L182.763,104.114L182.747,104.379L182.731,104.645L182.714,104.91L182.696,105.174L182.677,105.439L182.657,105.703L182.636,105.967L182.615,106.231L182.593,106.495L182.57,106.758L182.546,107.022L182.521,107.285L182.496,107.547L182.47,107.81L182.443,108.072L182.415,108.334L182.386,108.596L182.356,108.857L182.326,109.119L182.295,109.38L182.263,109.641L182.23,109.901L182.197,110.162L182.162,110.422L182.127,110.681L182.091,110.941L182.055,111.2L182.017,111.459L181.979,111.718L181.94,111.977L181.9,112.235L181.859,112.493L181.817,112.751L181.775,113.008L181.732,113.266L181.688,113.523L181.643,113.779L181.598,114.036L181.552,114.292L181.505,114.548L181.457,114.803L181.408,115.059L181.359,115.314L181.309,115.569L181.258,115.823L181.206,116.078L181.154,116.331L181.101,116.585L181.047,116.839L180.992,117.092L180.936,117.345L180.88,117.597L180.823,117.849L180.765,118.102L180.707,118.353L180.647,118.605L180.587,118.856L180.526,119.107L180.465,119.357L180.402,119.607L180.339,119.857L180.275,120.107L180.211,120.356L180.145,120.605L180.079,120.854L180.012,121.102L179.945,121.351L179.876,121.598L179.807,121.846L179.737,122.093L179.667,122.34L179.595,122.587L179.523,122.833L179.451,123.079L179.377,123.324L179.303,123.57L179.228,123.815L179.152,124.059L179.075,124.304L178.998,124.548L178.92,124.792L178.842,125.035L178.762,125.278L178.682,125.521L178.601,125.763L178.52,126.005L178.437,126.247L178.354,126.488L178.271,126.729L178.186,126.97L178.101,127.211L178.015,127.451L177.929,127.69L177.841,127.93L177.753,128.169L177.665,128.407L177.575,128.646L177.485,128.884L177.394,129.121L177.303,129.359L177.21,129.596L177.117,129.832L177.024,130.069L176.929,130.305L176.834,130.54L176.739,130.775L176.642,131.01L176.545,131.245L176.447,131.479L176.349,131.713L176.249,131.946L176.15,132.179L176.049,132.412L175.948,132.644L175.846,132.876L175.743,133.107L175.64,133.339L175.536,133.569L175.431,133.8L175.326,134.03L175.22,134.26L175.113,134.489L175.006,134.718L174.897,134.946L174.789,135.175L174.679,135.402L174.569,135.63L174.458,135.858L174.235,136.31L174.009,136.761L173.78,137.211L173.549,137.659L173.315,138.106L173.078,138.551L172.839,138.994L172.597,139.436L172.352,139.876L172.105,140.315L171.856,140.752L171.604,141.187L171.349,141.62L171.092,142.052L170.832,142.483L170.57,142.911L170.305,143.338L170.038,143.763L169.768,144.186L169.496,144.608L169.221,145.028L168.944,145.446L168.664,145.862L168.382,146.277L168.098,146.69L167.811,147.101L167.522,147.51L167.23,147.917L166.936,148.323L166.64,148.726L166.341,149.128L166.04,149.528L165.737,149.926L165.431,150.322L165.123,150.717L164.813,151.109L164.5,151.5L164.185,151.888L163.868,152.275L163.548,152.66L163.227,153.043L162.903,153.423L162.576,153.802L162.248,154.179L161.917,154.554L161.584,154.927L161.249,155.298L160.912,155.666L160.572,156.033L160.231,156.398L159.887,156.761L159.541,157.121L159.193,157.48L158.843,157.836L158.491,158.191L158.136,158.543L157.78,158.893L157.421,159.241L157.061,159.587L156.698,159.931L156.333,160.272L155.966,160.612L155.598,160.949L155.227,161.284L154.854,161.617L154.479,161.948L154.102,162.276L153.723,162.603L153.343,162.927L152.96,163.248L152.575,163.568L152.188,163.885L151.8,164.2L151.409,164.513L151.017,164.823L150.622,165.131L150.226,165.437L149.828,165.74L149.428,166.041L149.026,166.34L148.623,166.636L148.217,166.93L147.81,167.222L147.401,167.511L146.99,167.798L146.577,168.082L146.162,168.364L145.746,168.644L145.328,168.921L144.908,169.196L144.486,169.468L144.063,169.738L143.638,170.005L143.211,170.27L142.783,170.532L142.352,170.792L141.92,171.049L141.487,171.304L141.052,171.556L140.615,171.805L140.176,172.052L139.736,172.297L139.294,172.539L138.851,172.778L138.406,173.015L137.959,173.249L137.511,173.48L137.061,173.709L136.61,173.935L136.158,174.158L135.93,174.269L135.702,174.379L135.475,174.489L135.246,174.597L135.018,174.706L134.789,174.813L134.56,174.92L134.33,175.026L134.1,175.131L133.869,175.236L133.639,175.34L133.407,175.443L133.176,175.546L132.944,175.648L132.712,175.749L132.479,175.85L132.246,175.949L132.013,176.049L131.779,176.147L131.545,176.245L131.31,176.342L131.075,176.439L130.84,176.534L130.605,176.629L130.369,176.724L130.132,176.817L129.896,176.91L129.659,177.003L129.421,177.094L129.184,177.185L128.946,177.275L128.707,177.365L128.469,177.453L128.23,177.541L127.99,177.629L127.751,177.715L127.511,177.801L127.27,177.886L127.029,177.971L126.788,178.054L126.547,178.137L126.305,178.22L126.063,178.301L125.821,178.382L125.578,178.462L125.335,178.542L125.092,178.62L124.848,178.698L124.604,178.775L124.359,178.852L124.115,178.928L123.87,179.003L123.624,179.077L123.379,179.151L123.133,179.223L122.887,179.295L122.64,179.367L122.393,179.437L122.146,179.507L121.898,179.576L121.651,179.645L121.402,179.712L121.154,179.779L120.905,179.845L120.656,179.911L120.407,179.975L120.157,180.039L119.907,180.102L119.657,180.165L119.407,180.226L119.156,180.287L118.905,180.347L118.653,180.407L118.401,180.465L118.149,180.523L117.897,180.58L117.645,180.636L117.392,180.692L117.139,180.747L116.885,180.801L116.631,180.854L116.378,180.906L116.123,180.958L115.869,181.009L115.614,181.059L115.359,181.108L115.103,181.157L114.848,181.205L114.592,181.252L114.336,181.298L114.079,181.343L113.823,181.388L113.565,181.432L113.308,181.475L113.051,181.517L112.793,181.559L112.535,181.6L112.277,181.64L112.018,181.679L111.759,181.717L111.5,181.755L111.241,181.791L110.981,181.827L110.722,181.862L110.462,181.897L110.201,181.93L109.941,181.963L109.68,181.995L109.419,182.026L109.157,182.056L108.896,182.086L108.634,182.115L108.372,182.143L108.11,182.17L107.847,182.196L107.585,182.221L107.322,182.246L107.058,182.27L106.795,182.293L106.531,182.315L106.267,182.336L106.003,182.357L105.739,182.377L105.474,182.396L105.21,182.414L104.945,182.431L104.679,182.447L104.414,182.463L104.148,182.478L103.882,182.492L103.616,182.505L103.35,182.517L103.084,182.528L102.817,182.539L102.55,182.549L102.283,182.558L102.015,182.566L101.748,182.573L101.48,182.579L101.212,182.585L100.944,182.589L100.675,182.593L100.407,182.596L100.138,182.598L99.869,182.6L99.6,182.6L99.331,182.6L99.062,182.598L98.793,182.596L98.525,182.593L98.256,182.589L97.988,182.585L97.72,182.579L97.452,182.573L97.185,182.566L96.917,182.558L96.65,182.549L96.383,182.539L96.116,182.528L95.85,182.517L95.584,182.505L95.318,182.492L95.052,182.478L94.786,182.463L94.521,182.447L94.255,182.431L93.99,182.414L93.726,182.396L93.461,182.377L93.197,182.357L92.933,182.336L92.669,182.315L92.405,182.293L92.142,182.27L91.878,182.246L91.615,182.221L91.353,182.196L91.09,182.17L90.828,182.143L90.566,182.115L90.304,182.086L90.043,182.056L89.781,182.026L89.52,181.995L89.259,181.963L88.999,181.93L88.738,181.897L88.478,181.862L88.219,181.827L87.959,181.791L87.7,181.755L87.441,181.717L87.182,181.679L86.923,181.64L86.665,181.6L86.407,181.559L86.149,181.517L85.892,181.475L85.635,181.432L85.377,181.388L85.121,181.343L84.864,181.298L84.608,181.252L84.352,181.205L84.097,181.157L83.841,181.108L83.586,181.059L83.331,181.009L83.077,180.958L82.822,180.906L82.569,180.854L82.315,180.801L82.061,180.747L81.808,180.692L81.555,180.636L81.303,180.58L81.051,180.523L80.799,180.465L80.547,180.407L80.295,180.347L80.044,180.287L79.793,180.226L79.543,180.165L79.293,180.102L79.043,180.039L78.793,179.975L78.544,179.911L78.295,179.845L78.046,179.779L77.798,179.712L77.549,179.645L77.302,179.576L77.054,179.507L76.807,179.437L76.56,179.367L76.313,179.295L76.067,179.223L75.821,179.151L75.576,179.077L75.33,179.003L75.085,178.928L74.841,178.852L74.596,178.775L74.352,178.698L74.108,178.62L73.865,178.542L73.622,178.462L73.379,178.382L73.137,178.301L72.895,178.22L72.653,178.137L72.412,178.054L72.171,177.971L71.93,177.886L71.689,177.801L71.449,177.715L71.21,177.629L70.97,177.541L70.731,177.453L70.493,177.365L70.254,177.275L70.016,177.185L69.779,177.094L69.541,177.003L69.304,176.91L69.068,176.817L68.831,176.724L68.595,176.629L68.36,176.534L68.125,176.439L67.89,176.342L67.655,176.245L67.421,176.147L67.187,176.049L66.954,175.949L66.721,175.85L66.488,175.749L66.256,175.648L66.024,175.546L65.793,175.443L65.561,175.34L65.331,175.236L65.1,175.131L64.87,175.026L64.64,174.92L64.411,174.813L64.182,174.706L63.954,174.597L63.725,174.489L63.498,174.379L63.27,174.269L63.042,174.158L62.59,173.935L62.139,173.709L61.689,173.48L61.241,173.249L60.794,173.015L60.349,172.778L59.906,172.539L59.464,172.297L59.024,172.052L58.585,171.805L58.148,171.556L57.713,171.304L57.28,171.049L56.848,170.792L56.417,170.532L55.989,170.27L55.562,170.005L55.137,169.738L54.714,169.468L54.292,169.196L53.872,168.921L53.454,168.644L53.038,168.364L52.623,168.082L52.21,167.798L51.799,167.511L51.39,167.222L50.983,166.93L50.577,166.636L50.174,166.34L49.772,166.041L49.372,165.74L48.974,165.437L48.578,165.131L48.183,164.823L47.791,164.513L47.4,164.2L47.012,163.885L46.625,163.568L46.24,163.248L45.857,162.927L45.477,162.603L45.098,162.276L44.721,161.948L44.346,161.617L43.973,161.284L43.602,160.949L43.234,160.612L42.867,160.272L42.502,159.931L42.139,159.587L41.779,159.241L41.42,158.893L41.064,158.543L40.709,158.191L40.357,157.836L40.007,157.48L39.659,157.121L39.313,156.761L38.969,156.398L38.628,156.033L38.288,155.666L37.951,155.298L37.616,154.927L37.283,154.554L36.952,154.179L36.624,153.802L36.297,153.423L35.973,153.043L35.652,152.66L35.332,152.275L35.015,151.888L34.7,151.5L34.387,151.109L34.077,150.717L33.769,150.322L33.463,149.926L33.16,149.528L32.859,149.128L32.56,148.726L32.264,148.323L31.97,147.917L31.678,147.51L31.389,147.101L31.102,146.69L30.818,146.277L30.536,145.862L30.256,145.446L29.979,145.028L29.704,144.608L29.432,144.186L29.162,143.763L28.895,143.338L28.63,142.911L28.368,142.483L28.108,142.052L27.851,141.62L27.596,141.187L27.344,140.752L27.095,140.315L26.848,139.876L26.603,139.436L26.361,138.994L26.122,138.551L25.885,138.106L25.651,137.659L25.42,137.211L25.191,136.761L24.965,136.31L24.742,135.858L24.631,135.63L24.521,135.402L24.411,135.175L24.303,134.946L24.194,134.718L24.087,134.489L23.98,134.26L23.874,134.03L23.769,133.8L23.664,133.569L23.56,133.339L23.457,133.107L23.354,132.876L23.252,132.644L23.151,132.412L23.05,132.179L22.951,131.946L22.851,131.713L22.753,131.479L22.655,131.245L22.558,131.01L22.461,130.775L22.366,130.54L22.271,130.305L22.176,130.069L22.083,129.832L21.99,129.596L21.897,129.359L21.806,129.122L21.715,128.884L21.625,128.646L21.535,128.408L21.447,128.169L21.359,127.93L21.271,127.69L21.185,127.451L21.099,127.211L21.014,126.97L20.929,126.729L20.846,126.488L20.763,126.247L20.68,126.005L20.599,125.763L20.518,125.521L20.438,125.278L20.358,125.035L20.28,124.792L20.202,124.548L20.125,124.304L20.048,124.059L19.972,123.815L19.897,123.57L19.823,123.324L19.749,123.079L19.677,122.833L19.605,122.587L19.533,122.34L19.463,122.093L19.393,121.846L19.324,121.598L19.255,121.351L19.188,121.102L19.121,120.854L19.055,120.605L18.989,120.356L18.925,120.107L18.861,119.857L18.798,119.607L18.735,119.357L18.674,119.107L18.613,118.856L18.553,118.605L18.493,118.353L18.435,118.101L18.377,117.849L18.32,117.597L18.264,117.345L18.208,117.092L18.153,116.839L18.099,116.585L18.046,116.332L17.994,116.078L17.942,115.823L17.891,115.569L17.841,115.314L17.792,115.059L17.743,114.803L17.695,114.548L17.648,114.292L17.602,114.036L17.557,113.779L17.512,113.523L17.468,113.266L17.425,113.008L17.383,112.751L17.341,112.493L17.3,112.235L17.26,111.977L17.221,111.718L17.183,111.459L17.145,111.2L17.109,110.941L17.073,110.681L17.038,110.422L17.003,110.161L16.97,109.901L16.937,109.641L16.905,109.38L16.874,109.119L16.844,108.857L16.814,108.596L16.785,108.334L16.757,108.072L16.73,107.81L16.704,107.547L16.679,107.285L16.654,107.022L16.63,106.758L16.607,106.495L16.585,106.231L16.564,105.967L16.543,105.703L16.523,105.439L16.504,105.174L16.486,104.91L16.469,104.645L16.453,104.379L16.437,104.114L16.422,103.848L16.408,103.582L16.395,103.316L16.383,103.05L16.372,102.783L16.361,102.517L16.351,102.25L16.342,101.983L16.334,101.715L16.327,101.448L16.321,101.18L16.315,100.912L16.311,100.644L16.307,100.375L16.304,100.107L16.302,99.838L16.3,99.569L16.3,99.3L16.3,99.031L16.302,98.762L16.304,98.493L16.307,98.225L16.311,97.956L16.315,97.688L16.321,97.42L16.327,97.152L16.334,96.885L16.342,96.617L16.351,96.35L16.361,96.083L16.372,95.816L16.383,95.55L16.395,95.284L16.408,95.018L16.422,94.752L16.437,94.486L16.453,94.221L16.469,93.955L16.486,93.69L16.504,93.426L16.523,93.161L16.543,92.897L16.564,92.633L16.585,92.369L16.607,92.105L16.63,91.842L16.654,91.578L16.679,91.315L16.704,91.053L16.73,90.79L16.757,90.528L16.785,90.266L16.814,90.004L16.844,89.743L16.874,89.481L16.905,89.22L16.937,88.959L16.97,88.699L17.003,88.439L17.038,88.178L17.073,87.919L17.109,87.659L17.145,87.4L17.183,87.141L17.221,86.882L17.26,86.623L17.3,86.365L17.341,86.107L17.383,85.849L17.425,85.592L17.468,85.334L17.512,85.077L17.557,84.821L17.602,84.564L17.648,84.308L17.695,84.052L17.743,83.797L17.792,83.541L17.841,83.286L17.891,83.031L17.942,82.777L17.994,82.522L18.046,82.268L18.099,82.015L18.153,81.761L18.208,81.508L18.264,81.255L18.32,81.003L18.377,80.751L18.435,80.499L18.493,80.247L18.553,79.995L18.613,79.744L18.674,79.493L18.735,79.243L18.798,78.993L18.861,78.743L18.925,78.493L18.989,78.244L19.055,77.995L19.121,77.746L19.188,77.498L19.255,77.249L19.324,77.002L19.393,76.754L19.463,76.507L19.533,76.26L19.605,76.013L19.677,75.767L19.749,75.521L19.823,75.276L19.897,75.03L19.972,74.785L20.048,74.541L20.125,74.296L20.202,74.052L20.28,73.808L20.358,73.565L20.438,73.322L20.518,73.079L20.599,72.837L20.68,72.595L20.763,72.353L20.846,72.112L20.929,71.871L21.014,71.63L21.099,71.389L21.185,71.149L21.271,70.91L21.359,70.67L21.447,70.431L21.535,70.192L21.625,69.954L21.715,69.716L21.806,69.478L21.897,69.241L21.99,69.004L22.083,68.768L22.176,68.531L22.271,68.295L22.366,68.06L22.461,67.825L22.558,67.59L22.655,67.355L22.753,67.121L22.851,66.887L22.951,66.654L23.05,66.421L23.151,66.188L23.252,65.956L23.354,65.724L23.457,65.493L23.56,65.261L23.664,65.031L23.769,64.8L23.874,64.57L23.98,64.34L24.087,64.111L24.194,63.882L24.303,63.654L24.411,63.425L24.521,63.198L24.631,62.97L24.742,62.742L24.965,62.29L25.191,61.839L25.42,61.389L25.651,60.941L25.885,60.494L26.122,60.049L26.361,59.606L26.603,59.164L26.848,58.724L27.095,58.285L27.344,57.848L27.596,57.413L27.851,56.98L28.108,56.548L28.368,56.117L28.63,55.689L28.895,55.262L29.162,54.837L29.432,54.414L29.704,53.992L29.979,53.572L30.256,53.154L30.536,52.738L30.818,52.323L31.102,51.91L31.389,51.499L31.678,51.09L31.97,50.683L32.264,50.277L32.56,49.874L32.859,49.472L33.16,49.072L33.463,48.674L33.769,48.278L34.077,47.883L34.387,47.491L34.7,47.1L35.015,46.712L35.332,46.325L35.652,45.94L35.973,45.557L36.297,45.177L36.624,44.798L36.952,44.421L37.283,44.046L37.616,43.673L37.951,43.302L38.288,42.934L38.628,42.567L38.969,42.202L39.313,41.839L39.659,41.479L40.007,41.12L40.357,40.764L40.709,40.409L41.064,40.057L41.42,39.707L41.779,39.359L42.139,39.013L42.502,38.669L42.867,38.328L43.234,37.988L43.602,37.651L43.973,37.316L44.346,36.983L44.721,36.652L45.098,36.324L45.477,35.997L45.857,35.673L46.24,35.352L46.625,35.032L47.012,34.715L47.4,34.4L47.791,34.087L48.183,33.777L48.578,33.469L48.974,33.163L49.372,32.86L49.772,32.559L50.174,32.26L50.577,31.964L50.983,31.67L51.39,31.378L51.799,31.089L52.21,30.802L52.623,30.518L53.038,30.236L53.454,29.956L53.872,29.679L54.292,29.404L54.714,29.132L55.137,28.862L55.562,28.595L55.989,28.33L56.417,28.068L56.848,27.808L57.28,27.551L57.713,27.296L58.148,27.044L58.585,26.795L59.024,26.548L59.464,26.303L59.906,26.061L60.349,25.822L60.794,25.585L61.241,25.351L61.689,25.12L62.139,24.891L62.59,24.665L63.042,24.442L63.27,24.331L63.498,24.221L63.725,24.111L63.954,24.003L64.182,23.894L64.411,23.787L64.64,23.68L64.87,23.574L65.1,23.469L65.331,23.364L65.561,23.26L65.793,23.157L66.024,23.054L66.256,22.952L66.488,22.851L66.721,22.75L66.954,22.651L67.187,22.551L67.421,22.453L67.655,22.355L67.89,22.258L68.125,22.161L68.36,22.066L68.595,21.971L68.831,21.876L69.068,21.783L69.304,21.69L69.541,21.597L69.778,21.506L70.016,21.415L70.254,21.325L70.492,21.235L70.731,21.147L70.97,21.059L71.21,20.971L71.449,20.885L71.689,20.799L71.93,20.714L72.171,20.629L72.412,20.546L72.653,20.463L72.895,20.38L73.137,20.299L73.379,20.218L73.622,20.138L73.865,20.058L74.108,19.98L74.352,19.902L74.596,19.825L74.841,19.748L75.085,19.672L75.33,19.597L75.576,19.523L75.821,19.449L76.067,19.377L76.313,19.305L76.56,19.233L76.807,19.163L77.054,19.093L77.302,19.024L77.549,18.955L77.798,18.888L78.046,18.821L78.295,18.755L78.544,18.689L78.793,18.625L79.043,18.561L79.293,18.498L79.543,18.435L79.793,18.374L80.044,18.313L80.295,18.253L80.547,18.193L80.799,18.135L81.051,18.077L81.303,18.02L81.555,17.964L81.808,17.908L82.061,17.853L82.315,17.799L82.568,17.746L82.822,17.694L83.077,17.642L83.331,17.591L83.586,17.541L83.841,17.492L84.097,17.443L84.352,17.395L84.608,17.348L84.864,17.302L85.121,17.257L85.377,17.212L85.634,17.168L85.892,17.125L86.149,17.083L86.407,17.041L86.665,17L86.923,16.96L87.182,16.921L87.441,16.883L87.7,16.845L87.959,16.809L88.219,16.773L88.478,16.738L88.739,16.703L88.999,16.67L89.259,16.637L89.52,16.605L89.781,16.574L90.043,16.544L90.304,16.514L90.566,16.485L90.828,16.457L91.09,16.43L91.353,16.404L91.615,16.379L91.878,16.354L92.142,16.33L92.405,16.307L92.669,16.285L92.933,16.264L93.197,16.243L93.461,16.223L93.726,16.204L93.99,16.186L94.255,16.169L94.521,16.153L94.786,16.137L95.052,16.122L95.318,16.108L95.584,16.095L95.85,16.083L96.116,16.072L96.383,16.061L96.65,16.051L96.917,16.042L97.185,16.034L97.452,16.027L97.72,16.021L97.988,16.015L98.256,16.011L98.525,16.007L98.793,16.004L99.062,16.002L99.331,16L99.6,16L99.869,16ZM99.344,20L99.087,20.002L98.831,20.004L98.575,20.006L98.32,20.01L98.064,20.015L97.809,20.02L97.554,20.026L97.299,20.033L97.044,20.04L96.79,20.049L96.535,20.058L96.281,20.068L96.027,20.079L95.774,20.091L95.52,20.103L95.267,20.117L95.014,20.131L94.761,20.145L94.509,20.161L94.256,20.177L94.004,20.195L93.752,20.213L93.501,20.231L93.249,20.251L92.998,20.271L92.747,20.293L92.496,20.314L92.245,20.337L91.995,20.361L91.745,20.385L91.495,20.41L91.245,20.436L90.996,20.462L90.746,20.489L90.497,20.518L90.249,20.546L90,20.576L89.752,20.607L89.504,20.638L89.256,20.67L89.008,20.702L88.761,20.736L88.514,20.77L88.267,20.805L88.021,20.841L87.774,20.877L87.528,20.914L87.282,20.952L87.037,20.991L86.791,21.031L86.546,21.071L86.301,21.112L86.057,21.154L85.813,21.196L85.568,21.24L85.325,21.284L85.081,21.328L84.838,21.374L84.595,21.42L84.352,21.467L84.109,21.515L83.867,21.563L83.625,21.612L83.384,21.662L83.142,21.713L82.901,21.764L82.66,21.816L82.419,21.869L82.179,21.923L81.939,21.977L81.699,22.032L81.46,22.088L81.22,22.144L80.981,22.201L80.743,22.259L80.504,22.318L80.266,22.377L80.028,22.437L79.791,22.498L79.553,22.56L79.316,22.622L79.08,22.685L78.843,22.748L78.607,22.813L78.371,22.878L78.136,22.944L77.901,23.01L77.666,23.077L77.431,23.145L77.197,23.214L76.963,23.283L76.729,23.353L76.495,23.424L76.262,23.495L76.03,23.567L75.797,23.64L75.565,23.714L75.333,23.788L75.101,23.863L74.87,23.938L74.639,24.014L74.408,24.091L74.178,24.169L73.948,24.247L73.718,24.326L73.489,24.406L73.26,24.486L73.031,24.567L72.802,24.649L72.574,24.731L72.347,24.815L72.119,24.898L71.892,24.983L71.665,25.068L71.439,25.154L71.212,25.24L70.987,25.327L70.761,25.415L70.536,25.503L70.311,25.593L70.087,25.682L69.862,25.773L69.639,25.864L69.415,25.956L69.192,26.048L68.969,26.141L68.747,26.235L68.525,26.329L68.303,26.424L68.081,26.52L67.86,26.617L67.639,26.714L67.419,26.811L67.199,26.91L66.979,27.009L66.76,27.108L66.541,27.209L66.322,27.309L66.104,27.411L65.886,27.513L65.669,27.616L65.452,27.72L65.235,27.824L65.018,27.928L64.804,28.033L64.371,28.247L63.942,28.462L63.513,28.68L63.087,28.9L62.662,29.123L62.238,29.348L61.816,29.576L61.395,29.806L60.976,30.039L60.559,30.274L60.143,30.511L59.729,30.751L59.316,30.994L58.905,31.239L58.495,31.486L58.087,31.736L57.681,31.988L57.276,32.242L56.873,32.499L56.472,32.758L56.072,33.02L55.674,33.284L55.277,33.55L54.883,33.818L54.49,34.089L54.098,34.362L53.709,34.638L53.321,34.915L52.935,35.195L52.55,35.477L52.168,35.762L51.787,36.048L51.408,36.337L51.031,36.628L50.655,36.922L50.281,37.217L49.91,37.515L49.539,37.815L49.171,38.117L48.805,38.421L48.44,38.728L48.078,39.036L47.717,39.347L47.358,39.66L47.001,39.975L46.646,40.292L46.293,40.611L45.942,40.932L45.592,41.255L45.245,41.581L44.9,41.908L44.556,42.237L44.215,42.569L43.875,42.902L43.538,43.238L43.202,43.575L42.869,43.915L42.537,44.256L42.208,44.6L41.881,44.945L41.555,45.292L41.232,45.642L40.911,45.993L40.592,46.346L40.275,46.701L39.96,47.058L39.647,47.417L39.336,47.778L39.028,48.14L38.721,48.505L38.417,48.871L38.115,49.239L37.815,49.61L37.517,49.981L37.222,50.355L36.928,50.731L36.637,51.108L36.348,51.487L36.062,51.868L35.777,52.25L35.495,52.635L35.215,53.021L34.938,53.409L34.662,53.798L34.389,54.19L34.118,54.583L33.85,54.977L33.584,55.374L33.32,55.772L33.058,56.172L32.799,56.573L32.542,56.976L32.288,57.381L32.036,57.787L31.786,58.195L31.539,58.605L31.294,59.016L31.051,59.429L30.811,59.843L30.574,60.259L30.339,60.676L30.106,61.095L29.876,61.516L29.648,61.938L29.423,62.362L29.2,62.787L28.98,63.213L28.762,63.642L28.547,64.071L28.333,64.504L28.228,64.718L28.124,64.935L28.02,65.152L27.916,65.369L27.813,65.586L27.711,65.804L27.609,66.022L27.509,66.241L27.408,66.46L27.309,66.679L27.21,66.899L27.111,67.119L27.014,67.339L26.917,67.56L26.82,67.781L26.724,68.003L26.629,68.225L26.535,68.447L26.441,68.669L26.348,68.892L26.256,69.115L26.164,69.339L26.073,69.562L25.982,69.787L25.893,70.011L25.803,70.236L25.715,70.461L25.627,70.687L25.54,70.912L25.454,71.139L25.368,71.365L25.283,71.592L25.198,71.819L25.115,72.047L25.031,72.274L24.949,72.502L24.867,72.731L24.786,72.96L24.706,73.189L24.626,73.418L24.547,73.648L24.469,73.878L24.391,74.108L24.314,74.339L24.238,74.57L24.163,74.801L24.088,75.033L24.014,75.265L23.94,75.497L23.867,75.73L23.795,75.962L23.724,76.195L23.653,76.429L23.583,76.663L23.514,76.897L23.445,77.131L23.377,77.366L23.31,77.601L23.244,77.836L23.178,78.071L23.113,78.307L23.048,78.543L22.985,78.78L22.922,79.016L22.86,79.253L22.798,79.491L22.737,79.728L22.677,79.966L22.618,80.204L22.559,80.443L22.501,80.681L22.444,80.92L22.388,81.16L22.332,81.399L22.277,81.639L22.223,81.879L22.169,82.119L22.116,82.36L22.064,82.601L22.013,82.842L21.962,83.084L21.912,83.325L21.863,83.567L21.815,83.809L21.767,84.052L21.72,84.295L21.674,84.538L21.628,84.781L21.584,85.025L21.54,85.268L21.496,85.513L21.454,85.757L21.412,86.001L21.371,86.246L21.331,86.491L21.291,86.737L21.252,86.982L21.214,87.228L21.177,87.474L21.141,87.721L21.105,87.967L21.07,88.214L21.036,88.461L21.002,88.708L20.97,88.956L20.938,89.204L20.907,89.452L20.876,89.7L20.846,89.949L20.818,90.197L20.789,90.446L20.762,90.696L20.736,90.945L20.71,91.195L20.685,91.445L20.661,91.695L20.637,91.945L20.614,92.196L20.593,92.447L20.571,92.698L20.551,92.949L20.531,93.201L20.513,93.452L20.495,93.704L20.477,93.956L20.461,94.209L20.445,94.461L20.431,94.714L20.417,94.967L20.403,95.22L20.391,95.474L20.379,95.727L20.368,95.981L20.358,96.235L20.349,96.49L20.34,96.744L20.333,96.999L20.326,97.254L20.32,97.509L20.315,97.764L20.31,98.02L20.306,98.275L20.304,98.531L20.302,98.787L20.3,99.044L20.3,99.3L20.3,99.556L20.302,99.813L20.304,100.069L20.306,100.325L20.31,100.58L20.315,100.836L20.32,101.091L20.326,101.346L20.333,101.601L20.34,101.856L20.349,102.11L20.358,102.365L20.368,102.619L20.379,102.873L20.391,103.126L20.403,103.38L20.417,103.633L20.431,103.886L20.445,104.139L20.461,104.391L20.477,104.644L20.495,104.896L20.513,105.148L20.531,105.399L20.551,105.651L20.571,105.902L20.593,106.153L20.614,106.404L20.637,106.655L20.661,106.905L20.685,107.155L20.71,107.405L20.736,107.655L20.762,107.904L20.789,108.154L20.818,108.403L20.846,108.651L20.876,108.9L20.907,109.148L20.938,109.396L20.97,109.644L21.002,109.892L21.036,110.139L21.07,110.386L21.105,110.633L21.141,110.879L21.177,111.126L21.214,111.372L21.252,111.618L21.291,111.863L21.331,112.109L21.371,112.354L21.412,112.599L21.454,112.843L21.496,113.087L21.54,113.332L21.584,113.575L21.628,113.819L21.674,114.062L21.72,114.305L21.767,114.548L21.815,114.791L21.863,115.033L21.912,115.275L21.962,115.516L22.013,115.758L22.064,115.999L22.116,116.24L22.169,116.481L22.223,116.721L22.277,116.961L22.332,117.201L22.388,117.44L22.444,117.68L22.501,117.919L22.559,118.157L22.618,118.396L22.677,118.634L22.737,118.872L22.798,119.109L22.86,119.347L22.922,119.584L22.985,119.82L23.048,120.057L23.113,120.293L23.178,120.529L23.244,120.764L23.31,120.999L23.377,121.234L23.445,121.469L23.514,121.703L23.583,121.937L23.653,122.171L23.724,122.405L23.795,122.638L23.867,122.87L23.94,123.103L24.014,123.335L24.088,123.567L24.163,123.799L24.238,124.03L24.314,124.261L24.391,124.492L24.469,124.722L24.547,124.952L24.626,125.182L24.706,125.411L24.786,125.64L24.867,125.869L24.949,126.098L25.031,126.326L25.115,126.553L25.198,126.781L25.283,127.008L25.368,127.235L25.454,127.461L25.54,127.688L25.627,127.913L25.715,128.139L25.803,128.364L25.893,128.589L25.982,128.813L26.073,129.038L26.164,129.261L26.256,129.485L26.348,129.708L26.441,129.931L26.535,130.153L26.629,130.375L26.724,130.597L26.82,130.819L26.917,131.04L27.014,131.261L27.111,131.481L27.21,131.701L27.309,131.921L27.408,132.14L27.509,132.359L27.609,132.578L27.711,132.796L27.813,133.014L27.916,133.231L28.02,133.448L28.124,133.665L28.228,133.882L28.333,134.096L28.547,134.529L28.762,134.958L28.98,135.387L29.2,135.813L29.423,136.238L29.648,136.662L29.876,137.084L30.106,137.505L30.339,137.924L30.574,138.341L30.811,138.757L31.051,139.171L31.294,139.584L31.539,139.995L31.786,140.405L32.036,140.813L32.288,141.219L32.542,141.624L32.799,142.027L33.058,142.428L33.32,142.828L33.584,143.226L33.85,143.622L34.118,144.017L34.389,144.41L34.662,144.802L34.938,145.191L35.215,145.579L35.495,145.965L35.777,146.35L36.062,146.732L36.348,147.113L36.637,147.492L36.928,147.869L37.222,148.245L37.517,148.619L37.815,148.99L38.115,149.361L38.417,149.729L38.721,150.095L39.028,150.46L39.336,150.822L39.647,151.183L39.96,151.542L40.275,151.899L40.592,152.254L40.911,152.607L41.232,152.958L41.555,153.308L41.881,153.655L42.208,154L42.537,154.344L42.869,154.685L43.202,155.025L43.538,155.362L43.875,155.698L44.215,156.031L44.556,156.363L44.9,156.692L45.245,157.019L45.592,157.345L45.942,157.668L46.293,157.989L46.646,158.308L47.001,158.625L47.358,158.94L47.717,159.253L48.078,159.564L48.44,159.872L48.805,160.179L49.171,160.483L49.539,160.785L49.91,161.085L50.281,161.383L50.655,161.678L51.031,161.972L51.408,162.263L51.787,162.552L52.168,162.838L52.55,163.123L52.935,163.405L53.321,163.685L53.709,163.962L54.098,164.238L54.49,164.511L54.883,164.782L55.277,165.05L55.674,165.316L56.072,165.58L56.472,165.842L56.873,166.101L57.276,166.358L57.681,166.612L58.087,166.864L58.495,167.114L58.905,167.361L59.316,167.606L59.729,167.849L60.143,168.089L60.559,168.326L60.976,168.561L61.395,168.794L61.816,169.024L62.238,169.252L62.662,169.477L63.087,169.7L63.513,169.92L63.942,170.138L64.371,170.353L64.804,170.567L65.018,170.672L65.235,170.776L65.452,170.88L65.669,170.984L65.886,171.087L66.104,171.189L66.322,171.291L66.541,171.391L66.76,171.492L66.979,171.591L67.199,171.69L67.419,171.789L67.639,171.886L67.86,171.983L68.081,172.08L68.303,172.176L68.524,172.271L68.747,172.365L68.969,172.459L69.192,172.552L69.415,172.644L69.639,172.736L69.862,172.827L70.087,172.918L70.311,173.007L70.536,173.097L70.761,173.185L70.987,173.273L71.212,173.36L71.439,173.446L71.665,173.532L71.892,173.617L72.119,173.702L72.347,173.785L72.574,173.869L72.802,173.951L73.031,174.033L73.26,174.114L73.489,174.194L73.718,174.274L73.948,174.353L74.178,174.431L74.408,174.509L74.639,174.586L74.87,174.662L75.101,174.737L75.333,174.812L75.565,174.886L75.797,174.96L76.029,175.033L76.262,175.105L76.496,175.176L76.729,175.247L76.963,175.317L77.197,175.386L77.431,175.455L77.666,175.523L77.901,175.59L78.136,175.656L78.371,175.722L78.607,175.787L78.843,175.852L79.08,175.915L79.316,175.978L79.553,176.04L79.791,176.102L80.028,176.163L80.266,176.223L80.504,176.282L80.743,176.341L80.981,176.399L81.22,176.456L81.46,176.512L81.699,176.568L81.939,176.623L82.179,176.677L82.419,176.731L82.66,176.784L82.901,176.836L83.142,176.887L83.383,176.938L83.625,176.988L83.867,177.037L84.109,177.085L84.352,177.133L84.595,177.18L84.838,177.226L85.081,177.272L85.325,177.316L85.568,177.36L85.813,177.404L86.057,177.446L86.301,177.488L86.546,177.529L86.791,177.569L87.037,177.609L87.282,177.648L87.528,177.686L87.774,177.723L88.021,177.759L88.267,177.795L88.514,177.83L88.761,177.864L89.008,177.898L89.256,177.93L89.504,177.962L89.752,177.993L90,178.024L90.249,178.054L90.497,178.082L90.746,178.111L90.996,178.138L91.245,178.164L91.495,178.19L91.745,178.215L91.995,178.239L92.245,178.263L92.496,178.286L92.747,178.307L92.998,178.329L93.249,178.349L93.501,178.369L93.752,178.387L94.004,178.405L94.256,178.423L94.509,178.439L94.761,178.455L95.014,178.469L95.267,178.483L95.52,178.497L95.774,178.509L96.027,178.521L96.281,178.532L96.535,178.542L96.79,178.551L97.044,178.56L97.299,178.567L97.554,178.574L97.809,178.58L98.064,178.585L98.32,178.59L98.575,178.593L98.831,178.596L99.087,178.598L99.344,178.6L99.6,178.6L99.856,178.6L100.113,178.598L100.369,178.596L100.625,178.593L100.88,178.59L101.136,178.585L101.391,178.58L101.646,178.574L101.901,178.567L102.156,178.56L102.41,178.551L102.665,178.542L102.919,178.532L103.173,178.521L103.426,178.509L103.68,178.497L103.933,178.483L104.186,178.469L104.439,178.455L104.691,178.439L104.944,178.423L105.196,178.405L105.448,178.387L105.699,178.369L105.951,178.349L106.202,178.329L106.453,178.307L106.704,178.286L106.955,178.263L107.205,178.239L107.455,178.215L107.705,178.19L107.955,178.164L108.204,178.138L108.454,178.111L108.703,178.082L108.951,178.054L109.2,178.024L109.448,177.993L109.696,177.962L109.944,177.93L110.192,177.898L110.439,177.864L110.686,177.83L110.933,177.795L111.179,177.759L111.426,177.723L111.672,177.686L111.918,177.648L112.163,177.609L112.409,177.569L112.654,177.529L112.899,177.488L113.143,177.446L113.387,177.404L113.632,177.36L113.875,177.316L114.119,177.272L114.362,177.226L114.605,177.18L114.848,177.133L115.091,177.085L115.333,177.037L115.575,176.988L115.817,176.938L116.058,176.887L116.299,176.836L116.54,176.784L116.781,176.731L117.021,176.677L117.261,176.623L117.501,176.568L117.74,176.512L117.98,176.456L118.219,176.399L118.457,176.341L118.696,176.282L118.934,176.223L119.172,176.163L119.409,176.102L119.647,176.04L119.884,175.978L120.12,175.915L120.357,175.852L120.593,175.787L120.829,175.722L121.064,175.656L121.299,175.59L121.534,175.523L121.769,175.455L122.003,175.386L122.237,175.317L122.471,175.247L122.704,175.176L122.938,175.105L123.171,175.033L123.403,174.96L123.635,174.886L123.867,174.812L124.099,174.737L124.33,174.662L124.561,174.586L124.792,174.509L125.022,174.431L125.252,174.353L125.482,174.274L125.711,174.194L125.94,174.114L126.169,174.033L126.398,173.951L126.626,173.869L126.853,173.785L127.081,173.702L127.308,173.617L127.535,173.532L127.761,173.446L127.988,173.36L128.213,173.273L128.439,173.185L128.664,173.097L128.889,173.007L129.113,172.918L129.338,172.827L129.561,172.736L129.785,172.644L130.008,172.552L130.231,172.459L130.453,172.365L130.675,172.271L130.897,172.176L131.119,172.08L131.34,171.983L131.561,171.886L131.781,171.789L132.001,171.69L132.221,171.591L132.44,171.492L132.659,171.391L132.878,171.291L133.096,171.189L133.314,171.087L133.531,170.984L133.748,170.88L133.965,170.776L134.182,170.671L134.396,170.567L134.829,170.353L135.258,170.138L135.687,169.92L136.113,169.7L136.538,169.477L136.962,169.252L137.384,169.024L137.805,168.794L138.224,168.561L138.641,168.326L139.057,168.089L139.471,167.849L139.884,167.606L140.295,167.361L140.705,167.114L141.113,166.864L141.519,166.612L141.924,166.358L142.327,166.101L142.728,165.842L143.128,165.58L143.526,165.316L143.922,165.05L144.317,164.782L144.71,164.511L145.102,164.238L145.491,163.962L145.879,163.685L146.265,163.405L146.65,163.123L147.032,162.838L147.413,162.552L147.792,162.263L148.169,161.972L148.545,161.678L148.919,161.383L149.29,161.085L149.661,160.785L150.029,160.483L150.395,160.179L150.76,159.872L151.122,159.564L151.483,159.253L151.842,158.94L152.199,158.625L152.554,158.308L152.907,157.989L153.258,157.668L153.608,157.345L153.955,157.019L154.3,156.692L154.644,156.363L154.985,156.031L155.325,155.698L155.662,155.362L155.998,155.025L156.331,154.685L156.663,154.344L156.992,154L157.319,153.655L157.645,153.308L157.968,152.958L158.289,152.607L158.608,152.254L158.925,151.899L159.24,151.542L159.553,151.183L159.864,150.822L160.172,150.46L160.479,150.095L160.783,149.729L161.085,149.361L161.385,148.99L161.683,148.619L161.978,148.245L162.272,147.869L162.563,147.492L162.852,147.113L163.138,146.732L163.423,146.35L163.705,145.965L163.985,145.579L164.262,145.191L164.538,144.802L164.811,144.41L165.082,144.017L165.35,143.622L165.616,143.226L165.88,142.828L166.142,142.428L166.401,142.027L166.658,141.624L166.912,141.219L167.164,140.813L167.414,140.405L167.661,139.995L167.906,139.584L168.149,139.171L168.389,138.757L168.626,138.341L168.861,137.924L169.094,137.505L169.324,137.084L169.552,136.662L169.777,136.238L170,135.813L170.22,135.387L170.438,134.958L170.653,134.529L170.867,134.096L170.972,133.882L171.076,133.665L171.18,133.448L171.284,133.231L171.387,133.014L171.489,132.796L171.591,132.578L171.691,132.359L171.792,132.14L171.891,131.921L171.99,131.701L172.089,131.481L172.186,131.261L172.283,131.04L172.38,130.819L172.476,130.597L172.571,130.375L172.665,130.153L172.759,129.931L172.852,129.708L172.944,129.485L173.036,129.261L173.127,129.038L173.218,128.813L173.307,128.589L173.397,128.364L173.485,128.139L173.573,127.913L173.66,127.688L173.746,127.461L173.832,127.235L173.917,127.008L174.002,126.781L174.085,126.553L174.169,126.326L174.251,126.098L174.333,125.869L174.414,125.64L174.494,125.411L174.574,125.182L174.653,124.952L174.731,124.722L174.809,124.492L174.886,124.261L174.962,124.03L175.037,123.799L175.112,123.567L175.186,123.335L175.26,123.103L175.333,122.871L175.405,122.638L175.476,122.404L175.547,122.171L175.617,121.937L175.686,121.703L175.755,121.469L175.823,121.234L175.89,120.999L175.956,120.764L176.022,120.529L176.087,120.293L176.152,120.057L176.215,119.82L176.278,119.584L176.34,119.347L176.402,119.109L176.463,118.872L176.523,118.634L176.582,118.396L176.641,118.157L176.699,117.919L176.756,117.68L176.812,117.44L176.868,117.201L176.923,116.961L176.977,116.721L177.031,116.481L177.084,116.24L177.136,115.999L177.187,115.758L177.238,115.517L177.288,115.275L177.337,115.033L177.385,114.791L177.433,114.548L177.48,114.305L177.526,114.062L177.572,113.819L177.616,113.575L177.66,113.332L177.704,113.087L177.746,112.843L177.788,112.599L177.829,112.354L177.869,112.109L177.909,111.863L177.948,111.618L177.986,111.372L178.023,111.126L178.059,110.879L178.095,110.633L178.13,110.386L178.164,110.139L178.198,109.892L178.23,109.644L178.262,109.396L178.293,109.148L178.324,108.9L178.354,108.651L178.382,108.403L178.411,108.154L178.438,107.904L178.464,107.655L178.49,107.405L178.515,107.155L178.539,106.905L178.563,106.655L178.586,106.404L178.607,106.153L178.629,105.902L178.649,105.651L178.669,105.399L178.687,105.148L178.705,104.896L178.722,104.644L178.739,104.391L178.755,104.139L178.769,103.886L178.783,103.633L178.797,103.38L178.809,103.126L178.821,102.873L178.832,102.619L178.842,102.365L178.851,102.11L178.86,101.856L178.867,101.601L178.874,101.346L178.88,101.091L178.885,100.836L178.89,100.58L178.893,100.325L178.896,100.069L178.898,99.813L178.9,99.556L178.9,99.3L178.9,99.044L178.898,98.787L178.896,98.531L178.893,98.275L178.89,98.02L178.885,97.764L178.88,97.509L178.874,97.254L178.867,96.999L178.86,96.744L178.851,96.49L178.842,96.235L178.832,95.981L178.821,95.727L178.809,95.474L178.797,95.22L178.783,94.967L178.769,94.714L178.755,94.461L178.739,94.209L178.722,93.956L178.705,93.704L178.687,93.452L178.669,93.201L178.649,92.949L178.629,92.698L178.607,92.447L178.586,92.196L178.563,91.945L178.539,91.695L178.515,91.445L178.49,91.195L178.464,90.945L178.438,90.696L178.411,90.446L178.382,90.197L178.354,89.949L178.324,89.7L178.293,89.452L178.262,89.204L178.23,88.956L178.198,88.708L178.164,88.461L178.13,88.214L178.095,87.967L178.059,87.721L178.023,87.474L177.986,87.228L177.948,86.982L177.909,86.737L177.869,86.491L177.829,86.246L177.788,86.001L177.746,85.757L177.704,85.513L177.66,85.268L177.616,85.025L177.572,84.781L177.526,84.538L177.48,84.295L177.433,84.052L177.385,83.809L177.337,83.567L177.288,83.325L177.238,83.083L177.187,82.842L177.136,82.601L177.084,82.36L177.031,82.119L176.977,81.879L176.923,81.639L176.868,81.399L176.812,81.16L176.756,80.92L176.699,80.681L176.641,80.443L176.582,80.204L176.523,79.966L176.463,79.728L176.402,79.491L176.34,79.253L176.278,79.016L176.215,78.78L176.152,78.543L176.087,78.307L176.022,78.071L175.956,77.836L175.89,77.601L175.823,77.366L175.755,77.131L175.686,76.897L175.617,76.663L175.547,76.429L175.476,76.196L175.405,75.962L175.333,75.729L175.26,75.497L175.186,75.265L175.112,75.033L175.037,74.801L174.962,74.57L174.886,74.339L174.809,74.108L174.731,73.878L174.653,73.648L174.574,73.418L174.494,73.189L174.414,72.96L174.333,72.731L174.251,72.502L174.169,72.274L174.085,72.047L174.002,71.819L173.917,71.592L173.832,71.365L173.746,71.139L173.66,70.912L173.573,70.687L173.485,70.461L173.397,70.236L173.307,70.011L173.218,69.787L173.127,69.562L173.036,69.339L172.944,69.115L172.852,68.892L172.759,68.669L172.665,68.447L172.571,68.224L172.476,68.003L172.38,67.781L172.283,67.56L172.186,67.339L172.089,67.119L171.99,66.899L171.891,66.679L171.792,66.46L171.691,66.241L171.591,66.022L171.489,65.804L171.387,65.586L171.284,65.369L171.18,65.152L171.076,64.935L170.972,64.718L170.867,64.504L170.653,64.071L170.438,63.642L170.22,63.213L170,62.787L169.777,62.362L169.552,61.938L169.324,61.516L169.094,61.095L168.861,60.676L168.626,60.259L168.389,59.843L168.149,59.429L167.906,59.016L167.661,58.605L167.414,58.195L167.164,57.787L166.912,57.381L166.658,56.976L166.401,56.573L166.142,56.172L165.88,55.772L165.616,55.374L165.35,54.977L165.082,54.583L164.811,54.19L164.538,53.798L164.262,53.409L163.985,53.021L163.705,52.635L163.423,52.25L163.138,51.868L162.852,51.487L162.563,51.108L162.272,50.731L161.978,50.355L161.683,49.981L161.385,49.61L161.085,49.239L160.783,48.871L160.479,48.505L160.172,48.14L159.864,47.778L159.553,47.417L159.24,47.058L158.925,46.701L158.608,46.346L158.289,45.993L157.968,45.642L157.645,45.292L157.319,44.945L156.992,44.6L156.663,44.256L156.331,43.915L155.998,43.575L155.662,43.238L155.325,42.902L154.985,42.569L154.644,42.237L154.3,41.908L153.955,41.581L153.608,41.255L153.258,40.932L152.907,40.611L152.554,40.292L152.199,39.975L151.842,39.66L151.483,39.347L151.122,39.036L150.76,38.728L150.395,38.421L150.029,38.117L149.661,37.815L149.29,37.515L148.919,37.217L148.545,36.922L148.169,36.628L147.792,36.337L147.413,36.048L147.032,35.762L146.65,35.477L146.265,35.195L145.879,34.915L145.491,34.638L145.102,34.362L144.71,34.089L144.317,33.818L143.922,33.55L143.526,33.284L143.128,33.02L142.728,32.758L142.327,32.499L141.924,32.242L141.519,31.988L141.113,31.736L140.705,31.486L140.295,31.239L139.884,30.994L139.471,30.751L139.057,30.511L138.641,30.274L138.224,30.039L137.805,29.806L137.384,29.576L136.962,29.348L136.538,29.123L136.113,28.9L135.687,28.68L135.258,28.462L134.829,28.247L134.396,28.033L134.182,27.928L133.965,27.824L133.748,27.72L133.531,27.616L133.314,27.513L133.096,27.411L132.878,27.309L132.659,27.209L132.44,27.108L132.221,27.009L132.001,26.91L131.781,26.811L131.561,26.714L131.34,26.617L131.119,26.52L130.897,26.424L130.675,26.329L130.453,26.235L130.231,26.141L130.008,26.048L129.785,25.956L129.561,25.864L129.338,25.773L129.113,25.682L128.889,25.593L128.664,25.503L128.439,25.415L128.213,25.327L127.988,25.24L127.761,25.154L127.535,25.068L127.308,24.983L127.081,24.898L126.853,24.815L126.626,24.731L126.398,24.649L126.169,24.567L125.94,24.486L125.711,24.406L125.482,24.326L125.252,24.247L125.022,24.169L124.792,24.091L124.561,24.014L124.33,23.938L124.099,23.863L123.867,23.788L123.635,23.714L123.403,23.64L123.17,23.567L122.938,23.495L122.705,23.424L122.471,23.353L122.237,23.283L122.003,23.214L121.769,23.145L121.534,23.077L121.299,23.01L121.064,22.944L120.829,22.878L120.593,22.813L120.357,22.748L120.12,22.685L119.884,22.622L119.647,22.56L119.409,22.498L119.172,22.437L118.934,22.377L118.696,22.318L118.457,22.259L118.219,22.201L117.98,22.144L117.74,22.088L117.501,22.032L117.261,21.977L117.021,21.923L116.781,21.869L116.54,21.816L116.299,21.764L116.058,21.713L115.816,21.662L115.575,21.612L115.333,21.563L115.091,21.515L114.848,21.467L114.605,21.42L114.362,21.374L114.119,21.328L113.875,21.284L113.632,21.24L113.387,21.196L113.143,21.154L112.899,21.112L112.654,21.071L112.409,21.031L112.163,20.991L111.918,20.952L111.672,20.914L111.426,20.877L111.179,20.841L110.933,20.805L110.686,20.77L110.439,20.736L110.192,20.702L109.944,20.67L109.696,20.638L109.448,20.607L109.2,20.576L108.951,20.546L108.703,20.518L108.454,20.489L108.204,20.462L107.955,20.436L107.705,20.41L107.455,20.385L107.205,20.361L106.955,20.337L106.704,20.314L106.453,20.293L106.202,20.271L105.951,20.251L105.699,20.231L105.448,20.213L105.196,20.195L104.944,20.177L104.691,20.161L104.439,20.145L104.186,20.131L103.933,20.117L103.68,20.103L103.426,20.091L103.173,20.079L102.919,20.068L102.665,20.058L102.41,20.049L102.156,20.04L101.901,20.033L101.646,20.026L101.391,20.02L101.136,20.015L100.88,20.01L100.625,20.006L100.369,20.004L100.113,20.002L99.856,20L99.6,20L99.344,20Z" style="fill:white;"/>
    </g>
</svg>
