<?xml version="1.0" encoding="UTF-8" standalone="no"?>
<!DOCTYPE svg PUBLIC "-//W3C//DTD SVG 1.1//EN" "http://www.w3.org/Graphics/SVG/1.1/DTD/svg11.dtd">
<svg width="100%" height="100%" viewBox="0 0 203 203" version="1.1" xmlns="http://www.w3.org/2000/svg" xmlns:xlink="http://www.w3.org/1999/xlink" xml:space="preserve" style="fill-rule:evenodd;clip-rule:evenodd;stroke-linecap:round;">
    <g transform="matrix(1,0,0,1,1.89975,1.29975)">
        <g>
            <path d="M60,81L139,81" style="fill:none;stroke:white;stroke-width:2.5px;"/>
            <path d="M70.9,60.6L125.4,60.6" style="fill:none;stroke:white;stroke-width:2.5px;"/>
            <path d="M60,81L70.9,60.6" style="fill:none;stroke:white;stroke-width:2.5px;"/>
            <path d="M139,81L125.4,60.6" style="fill:none;stroke:white;stroke-width:2.5px;"/>
            <path d="M60,81L139,81" style="fill:none;stroke:white;stroke-width:2.5px;"/>
            <path d="M73.7,81C73.7,84.8 70.7,87.8 66.9,87.8C63.1,87.8 60.1,84.8 60.1,81" style="fill:none;stroke:white;stroke-width:2.5px;"/>
            <path d="M91.4,81C91.4,85.5 87.7,89.2 83.2,89.2C78.7,89.2 75,85.5 75,81" style="fill:none;stroke:white;stroke-width:2.5px;"/>
            <path d="M124.1,81C124.1,85.5 120.4,89.2 115.9,89.2C111.4,89.2 107.7,85.5 107.7,81" style="fill:none;stroke:white;stroke-width:2.5px;"/>
            <path d="M106.4,81C106.4,84.8 103.4,87.8 99.6,87.8C95.8,87.8 92.8,84.8 92.8,81" style="fill:none;stroke:white;stroke-width:2.5px;"/>
            <path d="M139,81C139,84.8 136,87.8 132.2,87.8C128.4,87.8 125.4,84.8 125.4,81" style="fill:none;stroke:white;stroke-width:2.5px;"/>
            <path d="M62.8,86.5L62.8,139.6" style="fill:none;stroke:white;stroke-width:2.5px;stroke-linecap:butt;"/>
            <path d="M139,139.6L60,139.6" style="fill:none;stroke:white;stroke-width:2.5px;"/>
            <path d="M136.3,86.5L136.3,139.6" style="fill:none;stroke:white;stroke-width:2.5px;stroke-linecap:butt;"/>
            <path d="M62.8,94.6L136.3,94.6" style="fill:none;stroke:white;stroke-width:2.5px;stroke-linecap:butt;"/>
            <path d="M81.8,139.6L81.8,94.6" style="fill:none;stroke:white;stroke-width:2.5px;stroke-linecap:butt;"/>
            <path d="M136.3,121.9L83.2,121.9" style="fill:none;stroke:white;stroke-width:2.5px;stroke-linecap:butt;"/>
            <path d="M90,111L100.9,100.1" style="fill:none;stroke:white;stroke-width:2.5px;stroke-linecap:square;"/>
            <path d="M87.3,105.5L92.7,100.1" style="fill:none;stroke:white;stroke-width:2.5px;stroke-linecap:square;"/>
            <path d="M76.4,113.7L76.4,119.1" style="fill:none;stroke:white;stroke-width:2.5px;"/>
        </g>
        <path d="M99.769,16.8L100.038,16.802L100.307,16.804L100.575,16.807L100.844,16.811L101.112,16.815L101.38,16.821L101.648,16.827L101.915,16.834L102.183,16.842L102.45,16.851L102.717,16.861L102.984,16.872L103.25,16.883L103.516,16.895L103.782,16.908L104.048,16.922L104.314,16.937L104.579,16.953L104.845,16.969L105.11,16.986L105.374,17.004L105.639,17.023L105.903,17.043L106.167,17.064L106.431,17.085L106.695,17.107L106.958,17.13L107.222,17.154L107.485,17.179L107.747,17.204L108.01,17.23L108.272,17.257L108.534,17.285L108.796,17.314L109.057,17.344L109.319,17.374L109.58,17.405L109.841,17.437L110.101,17.47L110.361,17.503L110.622,17.538L110.881,17.573L111.141,17.609L111.4,17.645L111.659,17.683L111.918,17.721L112.177,17.76L112.435,17.8L112.693,17.841L112.951,17.883L113.208,17.925L113.466,17.968L113.723,18.012L113.979,18.057L114.236,18.102L114.492,18.148L114.748,18.195L115.003,18.243L115.259,18.292L115.514,18.341L115.769,18.391L116.023,18.442L116.278,18.494L116.532,18.546L116.785,18.599L117.039,18.653L117.292,18.708L117.545,18.764L117.797,18.82L118.05,18.877L118.301,18.935L118.553,18.993L118.805,19.053L119.056,19.113L119.307,19.174L119.557,19.235L119.807,19.298L120.057,19.361L120.307,19.425L120.556,19.489L120.805,19.555L121.054,19.621L121.302,19.688L121.551,19.755L121.798,19.824L122.046,19.893L122.293,19.963L122.54,20.033L122.787,20.105L123.033,20.177L123.279,20.249L123.524,20.323L123.77,20.397L124.015,20.472L124.259,20.548L124.504,20.625L124.748,20.702L124.992,20.78L125.235,20.858L125.478,20.938L125.721,21.018L125.963,21.099L126.205,21.18L126.447,21.263L126.688,21.346L126.929,21.429L127.17,21.514L127.411,21.599L127.651,21.685L127.89,21.771L128.13,21.859L128.369,21.947L128.608,22.035L128.846,22.125L129.084,22.215L129.322,22.306L129.559,22.397L129.796,22.49L130.032,22.583L130.269,22.676L130.505,22.771L130.74,22.866L130.975,22.961L131.21,23.058L131.445,23.155L131.679,23.253L131.913,23.351L132.146,23.451L132.379,23.55L132.612,23.651L132.844,23.752L133.076,23.854L133.307,23.957L133.539,24.06L133.769,24.164L134,24.269L134.23,24.374L134.46,24.48L134.689,24.587L134.918,24.694L135.146,24.803L135.375,24.911L135.602,25.021L135.83,25.131L136.058,25.242L136.51,25.465L136.961,25.691L137.411,25.92L137.859,26.151L138.306,26.385L138.751,26.622L139.194,26.861L139.636,27.103L140.076,27.348L140.515,27.595L140.952,27.844L141.387,28.096L141.82,28.351L142.252,28.608L142.683,28.868L143.111,29.13L143.538,29.395L143.963,29.662L144.386,29.932L144.808,30.204L145.228,30.479L145.646,30.756L146.062,31.036L146.477,31.318L146.89,31.602L147.301,31.889L147.71,32.178L148.117,32.47L148.523,32.764L148.926,33.06L149.328,33.359L149.728,33.66L150.126,33.963L150.522,34.269L150.917,34.577L151.309,34.887L151.7,35.2L152.088,35.515L152.475,35.832L152.86,36.152L153.243,36.473L153.623,36.797L154.002,37.124L154.379,37.452L154.754,37.783L155.127,38.116L155.498,38.451L155.866,38.788L156.233,39.128L156.598,39.469L156.961,39.813L157.321,40.159L157.68,40.507L158.036,40.857L158.391,41.209L158.743,41.564L159.093,41.92L159.441,42.279L159.787,42.639L160.131,43.002L160.472,43.367L160.812,43.734L161.149,44.102L161.484,44.473L161.817,44.846L162.148,45.221L162.476,45.598L162.803,45.977L163.127,46.357L163.448,46.74L163.768,47.125L164.085,47.512L164.4,47.9L164.713,48.291L165.023,48.683L165.331,49.078L165.637,49.474L165.94,49.872L166.241,50.272L166.54,50.674L166.836,51.077L167.13,51.483L167.422,51.89L167.711,52.299L167.998,52.71L168.282,53.123L168.564,53.538L168.844,53.954L169.121,54.372L169.396,54.792L169.668,55.214L169.938,55.637L170.205,56.062L170.47,56.489L170.732,56.917L170.992,57.348L171.249,57.78L171.504,58.213L171.756,58.648L172.005,59.085L172.252,59.524L172.497,59.964L172.739,60.406L172.978,60.849L173.215,61.294L173.449,61.741L173.68,62.189L173.909,62.639L174.135,63.09L174.358,63.542L174.469,63.77L174.579,63.998L174.689,64.225L174.797,64.454L174.906,64.682L175.013,64.911L175.12,65.14L175.226,65.37L175.331,65.6L175.436,65.831L175.54,66.061L175.643,66.293L175.746,66.524L175.848,66.756L175.949,66.988L176.05,67.221L176.149,67.454L176.249,67.687L176.347,67.921L176.445,68.155L176.542,68.39L176.639,68.625L176.734,68.86L176.829,69.095L176.924,69.331L177.017,69.568L177.11,69.804L177.203,70.041L177.294,70.278L177.385,70.516L177.475,70.754L177.565,70.993L177.653,71.231L177.741,71.47L177.829,71.71L177.915,71.949L178.001,72.189L178.086,72.43L178.171,72.671L178.254,72.912L178.337,73.153L178.42,73.395L178.501,73.637L178.582,73.879L178.662,74.122L178.742,74.365L178.82,74.608L178.898,74.852L178.975,75.096L179.052,75.341L179.128,75.585L179.203,75.83L179.277,76.076L179.351,76.321L179.423,76.567L179.495,76.813L179.567,77.06L179.637,77.307L179.707,77.554L179.776,77.802L179.845,78.049L179.912,78.298L179.979,78.546L180.045,78.795L180.111,79.044L180.175,79.293L180.239,79.543L180.302,79.793L180.365,80.043L180.426,80.293L180.487,80.544L180.547,80.795L180.607,81.047L180.665,81.298L180.723,81.55L180.78,81.803L180.836,82.055L180.892,82.308L180.947,82.561L181.001,82.815L181.054,83.068L181.106,83.323L181.158,83.577L181.209,83.831L181.259,84.086L181.308,84.341L181.357,84.597L181.405,84.852L181.452,85.108L181.498,85.364L181.543,85.621L181.588,85.877L181.632,86.134L181.675,86.392L181.717,86.649L181.759,86.907L181.8,87.165L181.84,87.423L181.879,87.682L181.917,87.941L181.955,88.2L181.991,88.459L182.027,88.719L182.062,88.978L182.097,89.239L182.13,89.499L182.163,89.759L182.195,90.02L182.226,90.281L182.256,90.543L182.286,90.804L182.315,91.066L182.343,91.328L182.37,91.59L182.396,91.853L182.421,92.115L182.446,92.378L182.47,92.642L182.493,92.905L182.515,93.169L182.536,93.433L182.557,93.697L182.577,93.961L182.596,94.226L182.614,94.49L182.631,94.755L182.647,95.021L182.663,95.286L182.678,95.552L182.692,95.818L182.705,96.084L182.717,96.35L182.728,96.616L182.739,96.883L182.749,97.15L182.758,97.417L182.766,97.685L182.773,97.952L182.779,98.22L182.785,98.488L182.789,98.756L182.793,99.025L182.796,99.293L182.798,99.562L182.8,99.831L182.8,100.1L182.8,100.369L182.798,100.638L182.796,100.907L182.793,101.175L182.789,101.444L182.785,101.712L182.779,101.98L182.773,102.248L182.766,102.515L182.758,102.783L182.749,103.05L182.739,103.317L182.728,103.584L182.717,103.85L182.705,104.116L182.692,104.382L182.678,104.648L182.663,104.914L182.647,105.179L182.631,105.445L182.614,105.71L182.596,105.974L182.577,106.239L182.557,106.503L182.536,106.767L182.515,107.031L182.493,107.295L182.47,107.558L182.446,107.822L182.421,108.085L182.396,108.347L182.37,108.61L182.343,108.872L182.315,109.134L182.286,109.396L182.256,109.657L182.226,109.919L182.195,110.18L182.163,110.441L182.13,110.701L182.097,110.961L182.062,111.222L182.027,111.481L181.991,111.741L181.955,112L181.917,112.259L181.879,112.518L181.84,112.777L181.8,113.035L181.759,113.293L181.717,113.551L181.675,113.808L181.632,114.066L181.588,114.323L181.543,114.579L181.498,114.836L181.452,115.092L181.405,115.348L181.357,115.603L181.308,115.859L181.259,116.114L181.209,116.369L181.158,116.623L181.106,116.877L181.054,117.132L181.001,117.385L180.947,117.639L180.892,117.892L180.836,118.145L180.78,118.397L180.723,118.65L180.665,118.901L180.607,119.153L180.547,119.405L180.487,119.656L180.426,119.907L180.365,120.157L180.302,120.407L180.239,120.657L180.175,120.907L180.111,121.156L180.045,121.405L179.979,121.654L179.912,121.902L179.845,122.151L179.776,122.398L179.707,122.646L179.637,122.893L179.567,123.14L179.495,123.387L179.423,123.633L179.351,123.879L179.277,124.124L179.203,124.37L179.128,124.615L179.052,124.859L178.975,125.104L178.898,125.348L178.82,125.592L178.742,125.835L178.662,126.078L178.582,126.321L178.501,126.563L178.42,126.805L178.337,127.047L178.254,127.288L178.171,127.529L178.086,127.77L178.001,128.011L177.915,128.251L177.829,128.49L177.741,128.73L177.653,128.969L177.565,129.207L177.475,129.446L177.385,129.684L177.294,129.922L177.203,130.159L177.11,130.396L177.017,130.632L176.924,130.869L176.829,131.105L176.734,131.34L176.639,131.575L176.542,131.81L176.445,132.045L176.347,132.279L176.249,132.513L176.149,132.746L176.05,132.979L175.949,133.212L175.848,133.444L175.746,133.676L175.643,133.907L175.54,134.139L175.436,134.369L175.331,134.6L175.226,134.83L175.12,135.06L175.013,135.289L174.906,135.518L174.797,135.746L174.689,135.975L174.579,136.202L174.469,136.43L174.358,136.658L174.135,137.11L173.909,137.561L173.68,138.011L173.449,138.459L173.215,138.906L172.978,139.351L172.739,139.794L172.497,140.236L172.252,140.676L172.005,141.115L171.756,141.552L171.504,141.987L171.249,142.42L170.992,142.852L170.732,143.283L170.47,143.711L170.205,144.138L169.938,144.563L169.668,144.986L169.396,145.408L169.121,145.828L168.844,146.246L168.564,146.662L168.282,147.077L167.998,147.49L167.711,147.901L167.422,148.31L167.13,148.717L166.836,149.123L166.54,149.526L166.241,149.928L165.94,150.328L165.637,150.726L165.331,151.122L165.023,151.517L164.713,151.909L164.4,152.3L164.085,152.688L163.768,153.075L163.448,153.46L163.127,153.843L162.803,154.223L162.476,154.602L162.148,154.979L161.817,155.354L161.484,155.727L161.149,156.098L160.812,156.466L160.472,156.833L160.131,157.198L159.787,157.561L159.441,157.921L159.093,158.28L158.743,158.636L158.391,158.991L158.036,159.343L157.68,159.693L157.321,160.041L156.961,160.387L156.598,160.731L156.233,161.072L155.866,161.412L155.498,161.749L155.127,162.084L154.754,162.417L154.379,162.748L154.002,163.076L153.623,163.403L153.243,163.726L152.86,164.048L152.475,164.368L152.088,164.685L151.7,165L151.309,165.313L150.917,165.623L150.522,165.931L150.126,166.237L149.728,166.54L149.328,166.841L148.926,167.14L148.523,167.436L148.117,167.73L147.71,168.022L147.301,168.311L146.89,168.598L146.477,168.882L146.062,169.164L145.646,169.444L145.228,169.721L144.808,169.996L144.386,170.268L143.963,170.538L143.538,170.805L143.111,171.07L142.683,171.332L142.252,171.592L141.82,171.849L141.387,172.104L140.952,172.356L140.515,172.605L140.076,172.852L139.636,173.097L139.194,173.339L138.751,173.578L138.306,173.815L137.859,174.049L137.411,174.28L136.961,174.509L136.51,174.735L136.058,174.958L135.83,175.069L135.602,175.179L135.375,175.289L135.146,175.397L134.918,175.506L134.689,175.613L134.46,175.72L134.23,175.826L134,175.931L133.769,176.036L133.539,176.14L133.307,176.243L133.076,176.346L132.844,176.448L132.612,176.549L132.379,176.65L132.146,176.749L131.913,176.849L131.679,176.947L131.445,177.045L131.21,177.142L130.975,177.239L130.74,177.334L130.505,177.429L130.269,177.524L130.032,177.617L129.796,177.71L129.559,177.803L129.322,177.894L129.084,177.985L128.846,178.075L128.607,178.165L128.369,178.253L128.13,178.341L127.89,178.429L127.651,178.515L127.411,178.601L127.17,178.686L126.929,178.771L126.688,178.854L126.447,178.937L126.205,179.02L125.963,179.101L125.721,179.182L125.478,179.262L125.235,179.342L124.992,179.42L124.748,179.498L124.504,179.575L124.259,179.652L124.015,179.728L123.77,179.803L123.524,179.877L123.279,179.951L123.033,180.023L122.787,180.095L122.54,180.167L122.293,180.237L122.046,180.307L121.798,180.376L121.551,180.445L121.302,180.512L121.054,180.579L120.805,180.645L120.556,180.711L120.307,180.775L120.057,180.839L119.807,180.902L119.557,180.965L119.307,181.026L119.056,181.087L118.805,181.147L118.553,181.207L118.301,181.265L118.05,181.323L117.797,181.38L117.545,181.436L117.292,181.492L117.039,181.547L116.785,181.601L116.532,181.654L116.277,181.706L116.023,181.758L115.769,181.809L115.514,181.859L115.259,181.908L115.003,181.957L114.748,182.005L114.492,182.052L114.236,182.098L113.979,182.143L113.723,182.188L113.466,182.232L113.208,182.275L112.951,182.317L112.693,182.359L112.435,182.4L112.177,182.44L111.918,182.479L111.659,182.517L111.4,182.555L111.141,182.591L110.881,182.627L110.622,182.662L110.361,182.697L110.101,182.73L109.841,182.763L109.58,182.795L109.319,182.826L109.057,182.856L108.796,182.886L108.534,182.915L108.272,182.943L108.01,182.97L107.747,182.996L107.485,183.021L107.222,183.046L106.958,183.07L106.695,183.093L106.431,183.115L106.167,183.136L105.903,183.157L105.639,183.177L105.374,183.196L105.11,183.214L104.845,183.231L104.579,183.247L104.314,183.263L104.048,183.278L103.782,183.292L103.516,183.305L103.25,183.317L102.984,183.328L102.717,183.339L102.45,183.349L102.183,183.358L101.915,183.366L101.648,183.373L101.38,183.379L101.112,183.385L100.844,183.389L100.575,183.393L100.307,183.396L100.038,183.398L99.769,183.4L99.5,183.4L99.231,183.4L98.962,183.398L98.693,183.396L98.425,183.393L98.156,183.389L97.888,183.385L97.62,183.379L97.352,183.373L97.085,183.366L96.817,183.358L96.55,183.349L96.283,183.339L96.016,183.328L95.75,183.317L95.484,183.305L95.218,183.292L94.952,183.278L94.686,183.263L94.421,183.247L94.155,183.231L93.89,183.214L93.626,183.196L93.361,183.177L93.097,183.157L92.833,183.136L92.569,183.115L92.305,183.093L92.042,183.07L91.778,183.046L91.515,183.021L91.253,182.996L90.99,182.97L90.728,182.943L90.466,182.915L90.204,182.886L89.943,182.856L89.681,182.826L89.42,182.795L89.159,182.763L88.899,182.73L88.639,182.697L88.378,182.662L88.119,182.627L87.859,182.591L87.6,182.555L87.341,182.517L87.082,182.479L86.823,182.44L86.565,182.4L86.307,182.359L86.049,182.317L85.792,182.275L85.534,182.232L85.277,182.188L85.021,182.143L84.764,182.098L84.508,182.052L84.252,182.005L83.997,181.957L83.741,181.908L83.486,181.859L83.231,181.809L82.977,181.758L82.723,181.706L82.468,181.654L82.215,181.601L81.961,181.547L81.708,181.492L81.455,181.436L81.203,181.38L80.95,181.323L80.699,181.265L80.447,181.207L80.195,181.147L79.944,181.087L79.693,181.026L79.443,180.965L79.193,180.902L78.943,180.839L78.693,180.775L78.444,180.711L78.195,180.645L77.946,180.579L77.698,180.512L77.449,180.445L77.202,180.376L76.954,180.307L76.707,180.237L76.46,180.167L76.213,180.095L75.967,180.023L75.721,179.951L75.476,179.877L75.23,179.803L74.985,179.728L74.741,179.652L74.496,179.575L74.252,179.498L74.008,179.42L73.765,179.342L73.522,179.262L73.279,179.182L73.037,179.101L72.795,179.02L72.553,178.937L72.312,178.854L72.071,178.771L71.83,178.686L71.589,178.601L71.349,178.515L71.11,178.429L70.87,178.341L70.631,178.253L70.393,178.165L70.154,178.075L69.916,177.985L69.678,177.894L69.441,177.803L69.204,177.71L68.968,177.617L68.731,177.524L68.495,177.429L68.26,177.334L68.025,177.239L67.79,177.142L67.555,177.045L67.321,176.947L67.087,176.849L66.854,176.749L66.621,176.65L66.388,176.549L66.156,176.448L65.924,176.346L65.693,176.243L65.461,176.14L65.231,176.036L65,175.931L64.77,175.826L64.54,175.72L64.311,175.613L64.082,175.506L63.854,175.397L63.625,175.289L63.398,175.179L63.17,175.069L62.942,174.958L62.49,174.735L62.039,174.509L61.589,174.28L61.141,174.049L60.694,173.815L60.249,173.578L59.806,173.339L59.364,173.097L58.924,172.852L58.485,172.605L58.048,172.356L57.613,172.104L57.18,171.849L56.748,171.592L56.317,171.332L55.889,171.07L55.462,170.805L55.037,170.538L54.614,170.268L54.192,169.996L53.772,169.721L53.354,169.444L52.938,169.164L52.523,168.882L52.11,168.598L51.699,168.311L51.29,168.022L50.883,167.73L50.477,167.436L50.074,167.14L49.672,166.841L49.272,166.54L48.874,166.237L48.478,165.931L48.083,165.623L47.691,165.313L47.3,165L46.912,164.685L46.525,164.368L46.14,164.048L45.757,163.727L45.377,163.403L44.998,163.076L44.621,162.748L44.246,162.417L43.873,162.084L43.502,161.749L43.134,161.412L42.767,161.072L42.402,160.731L42.039,160.387L41.679,160.041L41.32,159.693L40.964,159.343L40.609,158.991L40.257,158.636L39.907,158.28L39.559,157.921L39.213,157.561L38.869,157.198L38.528,156.833L38.188,156.466L37.851,156.098L37.516,155.727L37.183,155.354L36.852,154.979L36.524,154.602L36.197,154.223L35.873,153.843L35.552,153.46L35.232,153.075L34.915,152.688L34.6,152.3L34.287,151.909L33.977,151.517L33.669,151.122L33.363,150.726L33.06,150.328L32.759,149.928L32.46,149.526L32.164,149.123L31.87,148.717L31.578,148.31L31.289,147.901L31.002,147.49L30.718,147.077L30.436,146.662L30.156,146.246L29.879,145.828L29.604,145.408L29.332,144.986L29.062,144.563L28.795,144.138L28.53,143.711L28.268,143.283L28.008,142.852L27.751,142.42L27.496,141.987L27.244,141.552L26.995,141.115L26.748,140.676L26.503,140.236L26.261,139.794L26.022,139.351L25.785,138.906L25.551,138.459L25.32,138.011L25.091,137.561L24.865,137.11L24.642,136.658L24.531,136.43L24.421,136.202L24.311,135.975L24.203,135.746L24.094,135.518L23.987,135.289L23.88,135.06L23.774,134.83L23.669,134.6L23.564,134.369L23.46,134.139L23.357,133.907L23.254,133.676L23.152,133.444L23.051,133.212L22.95,132.979L22.851,132.746L22.751,132.513L22.653,132.279L22.555,132.045L22.458,131.81L22.361,131.575L22.266,131.34L22.171,131.105L22.076,130.869L21.983,130.632L21.89,130.396L21.797,130.159L21.706,129.922L21.615,129.684L21.525,129.446L21.435,129.208L21.347,128.969L21.259,128.73L21.171,128.49L21.085,128.251L20.999,128.011L20.914,127.77L20.829,127.529L20.746,127.288L20.663,127.047L20.58,126.805L20.499,126.563L20.418,126.321L20.338,126.078L20.258,125.835L20.18,125.592L20.102,125.348L20.025,125.104L19.948,124.859L19.872,124.615L19.797,124.37L19.723,124.124L19.649,123.879L19.577,123.633L19.505,123.387L19.433,123.14L19.363,122.893L19.293,122.646L19.224,122.398L19.155,122.151L19.088,121.902L19.021,121.654L18.955,121.405L18.889,121.156L18.825,120.907L18.761,120.657L18.698,120.407L18.635,120.157L18.574,119.907L18.513,119.656L18.453,119.405L18.393,119.153L18.335,118.901L18.277,118.649L18.22,118.397L18.164,118.145L18.108,117.892L18.053,117.639L17.999,117.385L17.946,117.132L17.894,116.878L17.842,116.623L17.791,116.369L17.741,116.114L17.692,115.859L17.643,115.603L17.595,115.348L17.548,115.092L17.502,114.836L17.457,114.579L17.412,114.323L17.368,114.066L17.325,113.808L17.283,113.551L17.241,113.293L17.2,113.035L17.16,112.777L17.121,112.518L17.083,112.259L17.045,112L17.009,111.741L16.973,111.481L16.938,111.222L16.903,110.961L16.87,110.701L16.837,110.441L16.805,110.18L16.774,109.919L16.744,109.657L16.714,109.396L16.685,109.134L16.657,108.872L16.63,108.61L16.604,108.347L16.579,108.085L16.554,107.822L16.53,107.558L16.507,107.295L16.485,107.031L16.464,106.767L16.443,106.503L16.423,106.239L16.404,105.974L16.386,105.71L16.369,105.445L16.353,105.179L16.337,104.914L16.322,104.648L16.308,104.382L16.295,104.116L16.283,103.85L16.272,103.584L16.261,103.317L16.251,103.05L16.242,102.783L16.234,102.515L16.227,102.248L16.221,101.98L16.215,101.712L16.211,101.444L16.207,101.175L16.204,100.907L16.202,100.638L16.2,100.369L16.2,100.1L16.2,99.831L16.202,99.562L16.204,99.293L16.207,99.025L16.211,98.756L16.215,98.488L16.221,98.22L16.227,97.952L16.234,97.685L16.242,97.417L16.251,97.15L16.261,96.883L16.272,96.616L16.283,96.35L16.295,96.084L16.308,95.818L16.322,95.552L16.337,95.286L16.353,95.021L16.369,94.755L16.386,94.49L16.404,94.226L16.423,93.961L16.443,93.697L16.464,93.433L16.485,93.169L16.507,92.905L16.53,92.642L16.554,92.378L16.579,92.115L16.604,91.853L16.63,91.59L16.657,91.328L16.685,91.066L16.714,90.804L16.744,90.543L16.774,90.281L16.805,90.02L16.837,89.759L16.87,89.499L16.903,89.239L16.938,88.978L16.973,88.719L17.009,88.459L17.045,88.2L17.083,87.941L17.121,87.682L17.16,87.423L17.2,87.165L17.241,86.907L17.283,86.649L17.325,86.392L17.368,86.134L17.412,85.877L17.457,85.621L17.502,85.364L17.548,85.108L17.595,84.852L17.643,84.597L17.692,84.341L17.741,84.086L17.791,83.831L17.842,83.577L17.894,83.322L17.946,83.068L17.999,82.815L18.053,82.561L18.108,82.308L18.164,82.055L18.22,81.803L18.277,81.55L18.335,81.299L18.393,81.047L18.453,80.795L18.513,80.544L18.574,80.293L18.635,80.043L18.698,79.793L18.761,79.543L18.825,79.293L18.889,79.044L18.955,78.795L19.021,78.546L19.088,78.298L19.155,78.049L19.224,77.802L19.293,77.554L19.363,77.307L19.433,77.06L19.505,76.813L19.577,76.567L19.649,76.321L19.723,76.076L19.797,75.83L19.872,75.585L19.948,75.341L20.025,75.096L20.102,74.852L20.18,74.608L20.258,74.365L20.338,74.122L20.418,73.879L20.499,73.637L20.58,73.395L20.663,73.153L20.746,72.912L20.829,72.671L20.914,72.43L20.999,72.189L21.085,71.949L21.171,71.71L21.259,71.47L21.347,71.231L21.435,70.992L21.525,70.754L21.615,70.516L21.706,70.278L21.797,70.041L21.89,69.804L21.983,69.568L22.076,69.331L22.171,69.095L22.266,68.86L22.361,68.625L22.458,68.39L22.555,68.155L22.653,67.921L22.751,67.687L22.851,67.454L22.95,67.221L23.051,66.988L23.152,66.756L23.254,66.524L23.357,66.293L23.46,66.061L23.564,65.831L23.669,65.6L23.774,65.37L23.88,65.14L23.987,64.911L24.094,64.682L24.203,64.454L24.311,64.225L24.421,63.998L24.531,63.77L24.642,63.542L24.865,63.09L25.091,62.639L25.32,62.189L25.551,61.741L25.785,61.294L26.022,60.849L26.261,60.406L26.503,59.964L26.748,59.524L26.995,59.085L27.244,58.648L27.496,58.213L27.751,57.78L28.008,57.348L28.268,56.917L28.53,56.489L28.795,56.062L29.062,55.637L29.332,55.214L29.604,54.792L29.879,54.372L30.156,53.954L30.436,53.538L30.718,53.123L31.002,52.71L31.289,52.299L31.578,51.89L31.87,51.483L32.164,51.077L32.46,50.674L32.759,50.272L33.06,49.872L33.363,49.474L33.669,49.078L33.977,48.683L34.287,48.291L34.6,47.9L34.915,47.512L35.232,47.125L35.552,46.74L35.873,46.357L36.197,45.977L36.524,45.598L36.852,45.221L37.183,44.846L37.516,44.473L37.851,44.102L38.188,43.734L38.528,43.367L38.869,43.002L39.213,42.639L39.559,42.279L39.907,41.92L40.257,41.564L40.609,41.209L40.964,40.857L41.32,40.507L41.679,40.159L42.039,39.813L42.402,39.469L42.767,39.128L43.134,38.788L43.502,38.451L43.873,38.116L44.246,37.783L44.621,37.452L44.998,37.124L45.377,36.797L45.757,36.473L46.14,36.152L46.525,35.832L46.912,35.515L47.3,35.2L47.691,34.887L48.083,34.577L48.478,34.269L48.874,33.963L49.272,33.66L49.672,33.359L50.074,33.06L50.477,32.764L50.883,32.47L51.29,32.178L51.699,31.889L52.11,31.602L52.523,31.318L52.938,31.036L53.354,30.756L53.772,30.479L54.192,30.204L54.614,29.932L55.037,29.662L55.462,29.395L55.889,29.13L56.317,28.868L56.748,28.608L57.18,28.351L57.613,28.096L58.048,27.844L58.485,27.595L58.924,27.348L59.364,27.103L59.806,26.861L60.249,26.622L60.694,26.385L61.141,26.151L61.589,25.92L62.039,25.691L62.49,25.465L62.942,25.242L63.17,25.131L63.398,25.021L63.625,24.911L63.854,24.803L64.082,24.694L64.311,24.587L64.54,24.48L64.77,24.374L65,24.269L65.231,24.164L65.461,24.06L65.693,23.957L65.924,23.854L66.156,23.752L66.388,23.651L66.621,23.55L66.854,23.451L67.087,23.351L67.321,23.253L67.555,23.155L67.79,23.058L68.025,22.961L68.26,22.866L68.495,22.771L68.731,22.676L68.968,22.583L69.204,22.49L69.441,22.397L69.678,22.306L69.916,22.215L70.154,22.125L70.392,22.035L70.631,21.947L70.87,21.859L71.11,21.771L71.349,21.685L71.589,21.599L71.83,21.514L72.071,21.429L72.312,21.346L72.553,21.263L72.795,21.18L73.037,21.099L73.279,21.018L73.522,20.938L73.765,20.858L74.008,20.78L74.252,20.702L74.496,20.625L74.741,20.548L74.985,20.472L75.23,20.397L75.476,20.323L75.721,20.249L75.967,20.177L76.213,20.105L76.46,20.033L76.707,19.963L76.954,19.893L77.202,19.824L77.449,19.755L77.698,19.688L77.946,19.621L78.195,19.555L78.444,19.489L78.693,19.425L78.943,19.361L79.193,19.298L79.443,19.235L79.693,19.174L79.944,19.113L80.195,19.053L80.447,18.993L80.698,18.935L80.95,18.877L81.203,18.82L81.455,18.764L81.708,18.708L81.961,18.653L82.215,18.599L82.468,18.546L82.722,18.494L82.977,18.442L83.231,18.391L83.486,18.341L83.741,18.292L83.997,18.243L84.252,18.195L84.508,18.148L84.764,18.102L85.021,18.057L85.277,18.012L85.534,17.968L85.792,17.925L86.049,17.883L86.307,17.841L86.565,17.8L86.823,17.76L87.082,17.721L87.341,17.683L87.6,17.645L87.859,17.609L88.119,17.573L88.378,17.538L88.639,17.503L88.899,17.47L89.159,17.437L89.42,17.405L89.681,17.374L89.943,17.344L90.204,17.314L90.466,17.285L90.728,17.257L90.99,17.23L91.253,17.204L91.515,17.179L91.778,17.154L92.042,17.13L92.305,17.107L92.569,17.085L92.833,17.064L93.097,17.043L93.361,17.023L93.626,17.004L93.89,16.986L94.155,16.969L94.421,16.953L94.686,16.937L94.952,16.922L95.218,16.908L95.484,16.895L95.75,16.883L96.016,16.872L96.283,16.861L96.55,16.851L96.817,16.842L97.085,16.834L97.352,16.827L97.62,16.821L97.888,16.815L98.156,16.811L98.425,16.807L98.693,16.804L98.962,16.802L99.231,16.8L99.5,16.8L99.769,16.8ZM99.244,20.8L98.987,20.802L98.731,20.804L98.475,20.806L98.22,20.81L97.964,20.815L97.709,20.82L97.454,20.826L97.199,20.833L96.944,20.84L96.69,20.849L96.435,20.858L96.181,20.868L95.927,20.879L95.674,20.891L95.42,20.903L95.167,20.917L94.914,20.931L94.661,20.945L94.409,20.961L94.156,20.977L93.904,20.995L93.652,21.013L93.401,21.031L93.149,21.051L92.898,21.071L92.647,21.093L92.396,21.114L92.145,21.137L91.895,21.161L91.645,21.185L91.395,21.21L91.145,21.236L90.896,21.262L90.646,21.289L90.397,21.318L90.149,21.346L89.9,21.376L89.652,21.407L89.404,21.438L89.156,21.47L88.908,21.502L88.661,21.536L88.414,21.57L88.167,21.605L87.921,21.641L87.674,21.677L87.428,21.714L87.182,21.752L86.937,21.791L86.691,21.831L86.446,21.871L86.201,21.912L85.957,21.954L85.713,21.996L85.468,22.04L85.225,22.084L84.981,22.128L84.738,22.174L84.495,22.22L84.252,22.267L84.009,22.315L83.767,22.363L83.525,22.412L83.284,22.462L83.042,22.513L82.801,22.564L82.56,22.616L82.319,22.669L82.079,22.723L81.839,22.777L81.599,22.832L81.36,22.888L81.12,22.944L80.881,23.001L80.643,23.059L80.404,23.118L80.166,23.177L79.928,23.237L79.691,23.298L79.453,23.36L79.216,23.422L78.98,23.485L78.743,23.548L78.507,23.613L78.271,23.678L78.036,23.744L77.801,23.81L77.566,23.877L77.331,23.945L77.097,24.014L76.863,24.083L76.629,24.153L76.395,24.224L76.162,24.295L75.93,24.367L75.697,24.44L75.465,24.514L75.233,24.588L75.001,24.663L74.77,24.738L74.539,24.814L74.308,24.891L74.078,24.969L73.848,25.047L73.618,25.126L73.389,25.206L73.16,25.286L72.931,25.367L72.702,25.449L72.474,25.531L72.247,25.615L72.019,25.698L71.792,25.783L71.565,25.868L71.339,25.954L71.112,26.04L70.887,26.127L70.661,26.215L70.436,26.303L70.211,26.393L69.987,26.482L69.762,26.573L69.539,26.664L69.315,26.756L69.092,26.848L68.869,26.941L68.647,27.035L68.425,27.129L68.203,27.224L67.981,27.32L67.76,27.417L67.539,27.514L67.319,27.611L67.099,27.71L66.879,27.809L66.66,27.908L66.441,28.009L66.222,28.109L66.004,28.211L65.786,28.313L65.569,28.416L65.352,28.52L65.135,28.624L64.918,28.728L64.704,28.833L64.271,29.047L63.842,29.262L63.413,29.48L62.987,29.7L62.562,29.923L62.138,30.148L61.716,30.376L61.295,30.606L60.876,30.839L60.459,31.074L60.043,31.311L59.629,31.551L59.216,31.794L58.805,32.039L58.395,32.286L57.987,32.536L57.581,32.788L57.176,33.042L56.773,33.299L56.372,33.558L55.972,33.82L55.574,34.084L55.177,34.35L54.783,34.618L54.39,34.889L53.998,35.162L53.609,35.438L53.221,35.715L52.835,35.995L52.45,36.277L52.068,36.562L51.687,36.848L51.308,37.137L50.931,37.428L50.555,37.722L50.181,38.017L49.81,38.315L49.44,38.615L49.071,38.917L48.705,39.221L48.34,39.528L47.978,39.836L47.617,40.147L47.258,40.46L46.901,40.775L46.546,41.092L46.193,41.411L45.842,41.732L45.492,42.055L45.145,42.381L44.8,42.708L44.456,43.037L44.115,43.369L43.775,43.702L43.438,44.038L43.102,44.375L42.769,44.715L42.437,45.056L42.108,45.4L41.781,45.745L41.455,46.092L41.132,46.442L40.811,46.793L40.492,47.146L40.175,47.501L39.86,47.858L39.547,48.217L39.236,48.578L38.928,48.94L38.621,49.305L38.317,49.671L38.015,50.04L37.715,50.41L37.417,50.781L37.122,51.155L36.828,51.531L36.537,51.908L36.248,52.287L35.962,52.668L35.677,53.05L35.395,53.435L35.115,53.821L34.838,54.209L34.562,54.598L34.289,54.99L34.018,55.383L33.75,55.777L33.484,56.174L33.22,56.572L32.958,56.972L32.699,57.373L32.442,57.776L32.188,58.181L31.936,58.587L31.686,58.995L31.439,59.405L31.194,59.816L30.951,60.229L30.711,60.643L30.474,61.059L30.239,61.476L30.006,61.895L29.776,62.316L29.548,62.738L29.323,63.162L29.1,63.587L28.88,64.013L28.662,64.442L28.447,64.871L28.233,65.304L28.128,65.518L28.024,65.735L27.92,65.952L27.816,66.169L27.713,66.386L27.611,66.604L27.509,66.822L27.409,67.041L27.308,67.26L27.209,67.479L27.11,67.699L27.011,67.919L26.914,68.139L26.817,68.36L26.72,68.581L26.624,68.803L26.529,69.025L26.435,69.247L26.341,69.469L26.248,69.692L26.156,69.915L26.064,70.139L25.973,70.362L25.882,70.587L25.793,70.811L25.703,71.036L25.615,71.261L25.527,71.487L25.44,71.712L25.354,71.939L25.268,72.165L25.183,72.392L25.098,72.619L25.015,72.847L24.931,73.074L24.849,73.302L24.767,73.531L24.686,73.76L24.606,73.989L24.526,74.218L24.447,74.448L24.369,74.678L24.291,74.908L24.214,75.139L24.138,75.37L24.063,75.601L23.988,75.833L23.914,76.065L23.84,76.297L23.767,76.53L23.695,76.762L23.624,76.995L23.553,77.229L23.483,77.463L23.414,77.697L23.345,77.931L23.277,78.166L23.21,78.401L23.144,78.636L23.078,78.871L23.013,79.107L22.948,79.343L22.885,79.58L22.822,79.816L22.76,80.053L22.698,80.291L22.637,80.528L22.577,80.766L22.518,81.004L22.459,81.243L22.401,81.481L22.344,81.72L22.288,81.96L22.232,82.199L22.177,82.439L22.123,82.679L22.069,82.919L22.016,83.16L21.964,83.401L21.913,83.642L21.862,83.884L21.812,84.125L21.763,84.367L21.715,84.609L21.667,84.852L21.62,85.095L21.574,85.338L21.528,85.581L21.484,85.825L21.44,86.068L21.396,86.313L21.354,86.557L21.312,86.801L21.271,87.046L21.231,87.291L21.191,87.537L21.152,87.782L21.114,88.028L21.077,88.274L21.041,88.521L21.005,88.767L20.97,89.014L20.936,89.261L20.902,89.508L20.87,89.756L20.838,90.004L20.807,90.252L20.776,90.5L20.746,90.749L20.718,90.997L20.689,91.246L20.662,91.496L20.636,91.745L20.61,91.995L20.585,92.245L20.561,92.495L20.537,92.745L20.514,92.996L20.493,93.247L20.471,93.498L20.451,93.749L20.431,94.001L20.413,94.252L20.395,94.504L20.377,94.756L20.361,95.009L20.345,95.261L20.331,95.514L20.317,95.767L20.303,96.02L20.291,96.274L20.279,96.527L20.268,96.781L20.258,97.035L20.249,97.29L20.24,97.544L20.233,97.799L20.226,98.054L20.22,98.309L20.215,98.564L20.21,98.82L20.206,99.075L20.204,99.331L20.202,99.587L20.2,99.844L20.2,100.1L20.2,100.356L20.202,100.613L20.204,100.869L20.206,101.125L20.21,101.38L20.215,101.636L20.22,101.891L20.226,102.146L20.233,102.401L20.24,102.656L20.249,102.91L20.258,103.165L20.268,103.419L20.279,103.673L20.291,103.926L20.303,104.18L20.317,104.433L20.331,104.686L20.345,104.939L20.361,105.191L20.377,105.444L20.395,105.696L20.413,105.948L20.431,106.199L20.451,106.451L20.471,106.702L20.493,106.953L20.514,107.204L20.537,107.455L20.561,107.705L20.585,107.955L20.61,108.205L20.636,108.455L20.662,108.704L20.689,108.954L20.718,109.203L20.746,109.451L20.776,109.7L20.807,109.948L20.838,110.196L20.87,110.444L20.902,110.692L20.936,110.939L20.97,111.186L21.005,111.433L21.041,111.679L21.077,111.926L21.114,112.172L21.152,112.418L21.191,112.663L21.231,112.909L21.271,113.154L21.312,113.399L21.354,113.643L21.396,113.887L21.44,114.132L21.484,114.375L21.528,114.619L21.574,114.862L21.62,115.105L21.667,115.348L21.715,115.591L21.763,115.833L21.812,116.075L21.862,116.317L21.913,116.558L21.964,116.799L22.016,117.04L22.069,117.281L22.123,117.521L22.177,117.761L22.232,118.001L22.288,118.24L22.344,118.48L22.401,118.719L22.459,118.957L22.518,119.196L22.577,119.434L22.637,119.672L22.698,119.909L22.76,120.147L22.822,120.384L22.885,120.62L22.948,120.857L23.013,121.093L23.078,121.329L23.144,121.564L23.21,121.799L23.277,122.034L23.345,122.269L23.414,122.503L23.483,122.737L23.553,122.971L23.624,123.205L23.695,123.438L23.767,123.67L23.84,123.903L23.914,124.135L23.988,124.367L24.063,124.599L24.138,124.83L24.214,125.061L24.291,125.292L24.369,125.522L24.447,125.752L24.526,125.982L24.606,126.211L24.686,126.44L24.767,126.669L24.849,126.898L24.931,127.126L25.015,127.353L25.098,127.581L25.183,127.808L25.268,128.035L25.354,128.261L25.44,128.488L25.527,128.713L25.615,128.939L25.703,129.164L25.793,129.389L25.882,129.613L25.973,129.838L26.064,130.061L26.156,130.285L26.248,130.508L26.341,130.731L26.435,130.953L26.529,131.175L26.624,131.397L26.72,131.619L26.817,131.84L26.914,132.061L27.011,132.281L27.11,132.501L27.209,132.721L27.308,132.94L27.409,133.159L27.509,133.377L27.611,133.596L27.713,133.814L27.816,134.031L27.92,134.248L28.024,134.465L28.128,134.682L28.233,134.896L28.447,135.329L28.662,135.758L28.88,136.187L29.1,136.613L29.323,137.038L29.548,137.462L29.776,137.884L30.006,138.305L30.239,138.724L30.474,139.141L30.711,139.557L30.951,139.971L31.194,140.384L31.439,140.795L31.686,141.205L31.936,141.613L32.188,142.019L32.442,142.424L32.699,142.827L32.958,143.228L33.22,143.628L33.484,144.026L33.75,144.423L34.018,144.817L34.289,145.21L34.562,145.602L34.838,145.991L35.115,146.379L35.395,146.765L35.677,147.15L35.962,147.532L36.248,147.913L36.537,148.292L36.828,148.669L37.122,149.045L37.417,149.419L37.715,149.79L38.015,150.16L38.317,150.529L38.621,150.895L38.928,151.26L39.236,151.622L39.547,151.983L39.86,152.342L40.175,152.699L40.492,153.054L40.811,153.407L41.132,153.758L41.455,154.108L41.781,154.455L42.108,154.8L42.437,155.144L42.769,155.485L43.102,155.825L43.438,156.162L43.775,156.498L44.115,156.831L44.456,157.163L44.8,157.492L45.145,157.819L45.492,158.145L45.842,158.468L46.193,158.789L46.546,159.108L46.901,159.425L47.258,159.74L47.617,160.053L47.978,160.364L48.34,160.672L48.705,160.979L49.071,161.283L49.439,161.585L49.81,161.885L50.181,162.183L50.555,162.478L50.931,162.772L51.308,163.063L51.687,163.352L52.068,163.638L52.45,163.923L52.835,164.205L53.221,164.485L53.609,164.762L53.998,165.038L54.39,165.311L54.783,165.582L55.177,165.85L55.574,166.116L55.972,166.38L56.372,166.642L56.773,166.901L57.176,167.158L57.581,167.412L57.987,167.664L58.395,167.914L58.805,168.161L59.216,168.406L59.629,168.649L60.043,168.889L60.459,169.126L60.876,169.361L61.295,169.594L61.716,169.824L62.138,170.052L62.562,170.277L62.987,170.5L63.413,170.72L63.842,170.938L64.271,171.153L64.704,171.367L64.918,171.472L65.135,171.576L65.352,171.68L65.569,171.784L65.786,171.887L66.004,171.989L66.222,172.091L66.441,172.191L66.66,172.292L66.879,172.391L67.099,172.49L67.319,172.589L67.54,172.686L67.76,172.783L67.981,172.88L68.203,172.975L68.425,173.071L68.647,173.165L68.869,173.259L69.092,173.352L69.315,173.444L69.538,173.536L69.762,173.627L69.987,173.718L70.211,173.807L70.436,173.897L70.661,173.985L70.887,174.073L71.112,174.16L71.339,174.246L71.565,174.332L71.792,174.417L72.019,174.502L72.247,174.585L72.474,174.669L72.702,174.751L72.931,174.833L73.16,174.914L73.389,174.994L73.618,175.074L73.848,175.153L74.078,175.231L74.308,175.309L74.539,175.386L74.77,175.462L75.001,175.537L75.233,175.612L75.465,175.686L75.697,175.76L75.93,175.833L76.162,175.905L76.395,175.976L76.629,176.047L76.863,176.117L77.097,176.186L77.331,176.255L77.566,176.323L77.801,176.39L78.036,176.456L78.271,176.522L78.507,176.587L78.743,176.652L78.98,176.715L79.216,176.778L79.453,176.84L79.691,176.902L79.928,176.963L80.166,177.023L80.404,177.082L80.643,177.141L80.881,177.199L81.12,177.256L81.36,177.312L81.599,177.368L81.839,177.423L82.079,177.477L82.319,177.531L82.56,177.584L82.801,177.636L83.042,177.687L83.284,177.738L83.525,177.788L83.767,177.837L84.009,177.885L84.252,177.933L84.495,177.98L84.738,178.026L84.981,178.072L85.225,178.116L85.468,178.16L85.713,178.204L85.957,178.246L86.201,178.288L86.446,178.329L86.691,178.369L86.937,178.409L87.182,178.447L87.428,178.486L87.674,178.523L87.921,178.559L88.167,178.595L88.414,178.63L88.661,178.664L88.908,178.698L89.156,178.73L89.404,178.762L89.652,178.793L89.9,178.824L90.149,178.854L90.397,178.882L90.646,178.91L90.896,178.938L91.145,178.964L91.395,178.99L91.645,179.015L91.895,179.039L92.145,179.063L92.396,179.086L92.647,179.107L92.898,179.129L93.149,179.149L93.401,179.169L93.652,179.187L93.904,179.205L94.156,179.223L94.409,179.239L94.661,179.255L94.914,179.269L95.167,179.283L95.42,179.297L95.674,179.309L95.927,179.321L96.181,179.332L96.435,179.342L96.69,179.351L96.944,179.36L97.199,179.367L97.454,179.374L97.709,179.38L97.964,179.385L98.22,179.39L98.475,179.393L98.731,179.396L98.987,179.398L99.244,179.4L99.5,179.4L99.756,179.4L100.013,179.398L100.269,179.396L100.525,179.393L100.78,179.39L101.036,179.385L101.291,179.38L101.546,179.374L101.801,179.367L102.056,179.36L102.31,179.351L102.565,179.342L102.819,179.332L103.073,179.321L103.326,179.309L103.58,179.297L103.833,179.283L104.086,179.269L104.339,179.255L104.591,179.239L104.844,179.223L105.096,179.205L105.348,179.187L105.599,179.169L105.851,179.149L106.102,179.129L106.353,179.107L106.604,179.086L106.855,179.063L107.105,179.039L107.355,179.015L107.605,178.99L107.855,178.964L108.104,178.938L108.354,178.91L108.603,178.882L108.851,178.854L109.1,178.824L109.348,178.793L109.596,178.762L109.844,178.73L110.092,178.698L110.339,178.664L110.586,178.63L110.833,178.595L111.079,178.559L111.326,178.523L111.572,178.486L111.818,178.448L112.063,178.409L112.309,178.369L112.554,178.329L112.799,178.288L113.043,178.246L113.287,178.204L113.532,178.16L113.775,178.116L114.019,178.072L114.262,178.026L114.505,177.98L114.748,177.933L114.991,177.885L115.233,177.837L115.475,177.788L115.716,177.738L115.958,177.687L116.199,177.636L116.44,177.584L116.681,177.531L116.921,177.477L117.161,177.423L117.401,177.368L117.64,177.312L117.88,177.256L118.119,177.199L118.357,177.141L118.596,177.082L118.834,177.023L119.072,176.963L119.309,176.902L119.547,176.84L119.784,176.778L120.02,176.715L120.257,176.652L120.493,176.587L120.729,176.522L120.964,176.456L121.199,176.39L121.434,176.323L121.669,176.255L121.903,176.186L122.137,176.117L122.371,176.047L122.605,175.976L122.838,175.905L123.07,175.833L123.303,175.76L123.535,175.686L123.767,175.612L123.999,175.537L124.23,175.462L124.461,175.386L124.692,175.309L124.922,175.231L125.152,175.153L125.382,175.074L125.611,174.994L125.84,174.914L126.069,174.833L126.298,174.751L126.526,174.669L126.753,174.585L126.981,174.502L127.208,174.417L127.435,174.332L127.661,174.246L127.888,174.16L128.113,174.073L128.339,173.985L128.564,173.897L128.789,173.807L129.013,173.718L129.238,173.627L129.462,173.536L129.685,173.444L129.908,173.352L130.131,173.259L130.353,173.165L130.576,173.071L130.797,172.975L131.019,172.88L131.24,172.783L131.461,172.686L131.681,172.589L131.901,172.49L132.121,172.391L132.34,172.292L132.559,172.191L132.778,172.091L132.996,171.989L133.214,171.887L133.431,171.784L133.648,171.68L133.865,171.576L134.082,171.471L134.296,171.367L134.729,171.153L135.158,170.938L135.587,170.72L136.013,170.5L136.438,170.277L136.862,170.052L137.284,169.824L137.705,169.594L138.124,169.361L138.541,169.126L138.957,168.889L139.371,168.649L139.784,168.406L140.195,168.161L140.605,167.914L141.013,167.664L141.419,167.412L141.824,167.158L142.227,166.901L142.628,166.642L143.028,166.38L143.426,166.116L143.823,165.85L144.217,165.582L144.61,165.311L145.002,165.038L145.391,164.762L145.779,164.485L146.165,164.205L146.55,163.923L146.932,163.638L147.313,163.352L147.692,163.063L148.069,162.772L148.445,162.478L148.819,162.183L149.19,161.885L149.56,161.585L149.929,161.283L150.295,160.979L150.66,160.672L151.022,160.364L151.383,160.053L151.742,159.74L152.099,159.425L152.454,159.108L152.807,158.789L153.158,158.468L153.508,158.145L153.855,157.819L154.2,157.492L154.544,157.163L154.885,156.831L155.225,156.498L155.562,156.162L155.898,155.825L156.231,155.485L156.563,155.144L156.892,154.8L157.219,154.455L157.545,154.108L157.868,153.758L158.189,153.407L158.508,153.054L158.825,152.699L159.14,152.342L159.453,151.983L159.764,151.622L160.072,151.26L160.379,150.895L160.683,150.529L160.985,150.16L161.285,149.79L161.583,149.419L161.878,149.045L162.172,148.669L162.463,148.292L162.752,147.913L163.038,147.532L163.323,147.15L163.605,146.765L163.885,146.379L164.162,145.991L164.438,145.602L164.711,145.21L164.982,144.817L165.25,144.423L165.516,144.026L165.78,143.628L166.042,143.228L166.301,142.827L166.558,142.424L166.812,142.019L167.064,141.613L167.314,141.205L167.561,140.795L167.806,140.384L168.049,139.971L168.289,139.557L168.526,139.141L168.761,138.724L168.994,138.305L169.224,137.884L169.452,137.462L169.677,137.038L169.9,136.613L170.12,136.187L170.338,135.758L170.553,135.329L170.767,134.896L170.871,134.682L170.976,134.465L171.08,134.248L171.184,134.031L171.287,133.814L171.389,133.596L171.491,133.378L171.591,133.159L171.692,132.94L171.791,132.721L171.89,132.501L171.989,132.281L172.086,132.061L172.183,131.84L172.28,131.619L172.375,131.397L172.471,131.176L172.565,130.953L172.659,130.731L172.752,130.508L172.844,130.285L172.936,130.061L173.027,129.838L173.118,129.614L173.207,129.389L173.297,129.164L173.385,128.939L173.473,128.713L173.56,128.488L173.646,128.261L173.732,128.035L173.817,127.808L173.902,127.581L173.985,127.353L174.069,127.126L174.151,126.898L174.233,126.669L174.314,126.44L174.394,126.211L174.474,125.982L174.553,125.752L174.631,125.522L174.709,125.292L174.786,125.061L174.862,124.83L174.937,124.599L175.012,124.367L175.086,124.135L175.16,123.903L175.233,123.67L175.305,123.438L175.376,123.205L175.447,122.971L175.517,122.737L175.586,122.503L175.655,122.269L175.723,122.034L175.79,121.799L175.856,121.564L175.922,121.329L175.987,121.093L176.052,120.857L176.115,120.62L176.178,120.384L176.24,120.147L176.302,119.909L176.363,119.672L176.423,119.434L176.482,119.196L176.541,118.957L176.599,118.719L176.656,118.48L176.712,118.24L176.768,118.001L176.823,117.761L176.877,117.521L176.931,117.281L176.984,117.04L177.036,116.799L177.087,116.558L177.138,116.316L177.188,116.075L177.237,115.833L177.285,115.591L177.333,115.348L177.38,115.105L177.426,114.862L177.472,114.619L177.516,114.375L177.56,114.132L177.604,113.887L177.646,113.643L177.688,113.399L177.729,113.154L177.769,112.909L177.809,112.663L177.848,112.418L177.886,112.172L177.923,111.926L177.959,111.679L177.995,111.433L178.03,111.186L178.064,110.939L178.098,110.692L178.13,110.444L178.162,110.196L178.193,109.948L178.224,109.7L178.254,109.451L178.282,109.203L178.31,108.954L178.338,108.704L178.364,108.455L178.39,108.205L178.415,107.955L178.439,107.705L178.463,107.455L178.486,107.204L178.507,106.953L178.529,106.702L178.549,106.451L178.569,106.199L178.587,105.948L178.605,105.696L178.623,105.444L178.639,105.191L178.655,104.939L178.669,104.686L178.683,104.433L178.697,104.18L178.709,103.926L178.721,103.673L178.732,103.419L178.742,103.165L178.751,102.91L178.76,102.656L178.767,102.401L178.774,102.146L178.78,101.891L178.785,101.636L178.79,101.38L178.793,101.125L178.796,100.869L178.798,100.613L178.8,100.356L178.8,100.1L178.8,99.844L178.798,99.587L178.796,99.331L178.793,99.075L178.79,98.82L178.785,98.564L178.78,98.309L178.774,98.054L178.767,97.799L178.76,97.544L178.751,97.29L178.742,97.035L178.732,96.781L178.721,96.527L178.709,96.274L178.697,96.02L178.683,95.767L178.669,95.514L178.655,95.261L178.639,95.009L178.623,94.756L178.605,94.504L178.587,94.252L178.569,94.001L178.549,93.749L178.529,93.498L178.507,93.247L178.486,92.996L178.463,92.745L178.439,92.495L178.415,92.245L178.39,91.995L178.364,91.745L178.338,91.496L178.31,91.246L178.282,90.997L178.254,90.749L178.224,90.5L178.193,90.252L178.162,90.004L178.13,89.756L178.098,89.508L178.064,89.261L178.03,89.014L177.995,88.767L177.959,88.521L177.923,88.274L177.886,88.028L177.848,87.782L177.809,87.537L177.769,87.291L177.729,87.046L177.688,86.801L177.646,86.557L177.604,86.313L177.56,86.068L177.516,85.825L177.472,85.581L177.426,85.338L177.38,85.095L177.333,84.852L177.285,84.609L177.237,84.367L177.188,84.125L177.138,83.884L177.087,83.642L177.036,83.401L176.984,83.16L176.931,82.919L176.877,82.679L176.823,82.439L176.768,82.199L176.712,81.96L176.656,81.72L176.599,81.481L176.541,81.243L176.482,81.004L176.423,80.766L176.363,80.528L176.302,80.291L176.24,80.053L176.178,79.816L176.115,79.58L176.052,79.343L175.987,79.107L175.922,78.871L175.856,78.636L175.79,78.401L175.723,78.166L175.655,77.931L175.586,77.697L175.517,77.463L175.447,77.229L175.376,76.995L175.305,76.762L175.233,76.53L175.16,76.297L175.086,76.065L175.012,75.833L174.937,75.601L174.862,75.37L174.786,75.139L174.709,74.908L174.631,74.678L174.553,74.448L174.474,74.218L174.394,73.989L174.314,73.76L174.233,73.531L174.151,73.302L174.069,73.074L173.985,72.847L173.902,72.619L173.817,72.392L173.732,72.165L173.646,71.939L173.56,71.712L173.473,71.487L173.385,71.261L173.297,71.036L173.207,70.811L173.118,70.587L173.027,70.362L172.936,70.139L172.844,69.915L172.752,69.692L172.659,69.469L172.565,69.247L172.471,69.025L172.375,68.803L172.28,68.581L172.183,68.36L172.086,68.14L171.989,67.919L171.89,67.699L171.791,67.479L171.692,67.26L171.591,67.041L171.491,66.822L171.389,66.604L171.287,66.386L171.184,66.169L171.08,65.952L170.976,65.735L170.872,65.518L170.767,65.304L170.553,64.871L170.338,64.442L170.12,64.013L169.9,63.587L169.677,63.162L169.452,62.738L169.224,62.316L168.994,61.895L168.761,61.476L168.526,61.059L168.289,60.643L168.049,60.229L167.806,59.816L167.561,59.405L167.314,58.995L167.064,58.587L166.812,58.181L166.558,57.776L166.301,57.373L166.042,56.972L165.78,56.572L165.516,56.174L165.25,55.777L164.982,55.383L164.711,54.99L164.438,54.598L164.162,54.209L163.885,53.821L163.605,53.435L163.323,53.05L163.038,52.668L162.752,52.287L162.463,51.908L162.172,51.531L161.878,51.155L161.583,50.781L161.285,50.41L160.985,50.039L160.683,49.671L160.379,49.305L160.072,48.94L159.764,48.578L159.453,48.217L159.14,47.858L158.825,47.501L158.508,47.146L158.189,46.793L157.868,46.442L157.545,46.092L157.219,45.745L156.892,45.4L156.563,45.056L156.231,44.715L155.898,44.375L155.562,44.038L155.225,43.702L154.885,43.369L154.544,43.037L154.2,42.708L153.855,42.381L153.508,42.055L153.158,41.732L152.807,41.411L152.454,41.092L152.099,40.775L151.742,40.46L151.383,40.147L151.022,39.836L150.66,39.528L150.295,39.221L149.929,38.917L149.56,38.615L149.19,38.315L148.819,38.017L148.445,37.722L148.069,37.428L147.692,37.137L147.313,36.848L146.932,36.562L146.55,36.277L146.165,35.995L145.779,35.715L145.391,35.438L145.002,35.162L144.61,34.889L144.217,34.618L143.823,34.35L143.426,34.084L143.028,33.82L142.628,33.558L142.227,33.299L141.824,33.042L141.419,32.788L141.013,32.536L140.605,32.286L140.195,32.039L139.784,31.794L139.371,31.551L138.957,31.311L138.541,31.074L138.124,30.839L137.705,30.606L137.284,30.376L136.862,30.148L136.438,29.923L136.013,29.7L135.587,29.48L135.158,29.262L134.729,29.047L134.296,28.833L134.082,28.728L133.865,28.624L133.648,28.52L133.431,28.416L133.214,28.313L132.996,28.211L132.777,28.109L132.559,28.009L132.34,27.908L132.121,27.809L131.901,27.71L131.681,27.611L131.461,27.514L131.24,27.417L131.019,27.32L130.797,27.224L130.575,27.129L130.353,27.035L130.131,26.941L129.908,26.848L129.685,26.756L129.461,26.664L129.238,26.573L129.013,26.482L128.789,26.393L128.564,26.303L128.339,26.215L128.113,26.127L127.888,26.04L127.661,25.954L127.435,25.868L127.208,25.783L126.981,25.698L126.753,25.615L126.526,25.531L126.298,25.449L126.069,25.367L125.84,25.286L125.611,25.206L125.382,25.126L125.152,25.047L124.922,24.969L124.692,24.891L124.461,24.814L124.23,24.738L123.999,24.663L123.767,24.588L123.535,24.514L123.303,24.44L123.07,24.367L122.838,24.295L122.605,24.224L122.371,24.153L122.137,24.083L121.903,24.014L121.669,23.945L121.434,23.877L121.199,23.81L120.964,23.744L120.729,23.678L120.493,23.613L120.257,23.548L120.02,23.485L119.784,23.422L119.547,23.36L119.309,23.298L119.072,23.237L118.834,23.177L118.596,23.118L118.357,23.059L118.119,23.001L117.88,22.944L117.64,22.888L117.401,22.832L117.161,22.777L116.921,22.723L116.681,22.669L116.44,22.616L116.199,22.564L115.958,22.513L115.717,22.462L115.475,22.412L115.233,22.363L114.991,22.315L114.748,22.267L114.505,22.22L114.262,22.174L114.019,22.128L113.775,22.084L113.532,22.04L113.287,21.996L113.043,21.954L112.799,21.912L112.554,21.871L112.309,21.831L112.063,21.791L111.818,21.752L111.572,21.714L111.326,21.677L111.079,21.641L110.833,21.605L110.586,21.57L110.339,21.536L110.092,21.502L109.844,21.47L109.596,21.438L109.348,21.407L109.1,21.376L108.851,21.346L108.603,21.318L108.354,21.289L108.104,21.262L107.855,21.236L107.605,21.21L107.355,21.185L107.105,21.161L106.855,21.137L106.604,21.114L106.353,21.093L106.102,21.071L105.851,21.051L105.599,21.031L105.348,21.013L105.096,20.995L104.844,20.977L104.591,20.961L104.339,20.945L104.086,20.931L103.833,20.917L103.58,20.903L103.326,20.891L103.073,20.879L102.819,20.868L102.565,20.858L102.31,20.849L102.056,20.84L101.801,20.833L101.546,20.826L101.291,20.82L101.036,20.815L100.78,20.81L100.525,20.806L100.269,20.804L100.013,20.802L99.756,20.8L99.5,20.8L99.244,20.8Z" style="fill:white;"/>
    </g>
</svg>
