<?xml version="1.0" encoding="UTF-8" standalone="no"?><!DOCTYPE svg PUBLIC "-//W3C//DTD SVG 1.1//EN" "http://www.w3.org/Graphics/SVG/1.1/DTD/svg11.dtd"><svg width="100%" height="100%" viewBox="0 0 27 68" version="1.1" xmlns="http://www.w3.org/2000/svg" xmlns:xlink="http://www.w3.org/1999/xlink" xml:space="preserve" style="fill-rule:evenodd;clip-rule:evenodd;stroke-linecap:round;stroke-linejoin:round;stroke-miterlimit:10;"><path d="M1.904,29.86l-0.341,22.698l22.897,0.344l0.341,-22.698l-22.897,-0.344Z" style="fill:none;stroke:#fff;stroke-width:3.13px;"/><path d="M20.404,41.362c0,4 -3.3,7.3 -7.3,7.3c-4,0 -7.3,-3.3 -7.3,-7.3c0,-4 3.3,-7.3 7.3,-7.3c4.1,0 7.3,3.3 7.3,7.3" style="fill:none;stroke:#fff;stroke-width:3.13px;"/><path d="M3.731,52.586l-0.193,12.799l17.798,0.268l0.193,-12.799l-17.798,-0.268Z" style="fill:none;stroke:#fff;stroke-width:3.13px;"/><path d="M4.304,28.962l0.1,-8.3l2.7,0.1l2.1,-9l2.8,0.1l1.8,-10.3" style="fill:none;stroke:#fff;stroke-width:3.13px;"/><path d="M22.404,29.262l0.1,-8.3l-2.6,0l-1.9,-9l-2.8,-0.1l-1.4,-10.3" style="fill:none;stroke:#fff;stroke-width:3.13px;"/></svg>