<?xml version="1.0" encoding="UTF-8" standalone="no"?><!DOCTYPE svg PUBLIC "-//W3C//DTD SVG 1.1//EN" "http://www.w3.org/Graphics/SVG/1.1/DTD/svg11.dtd"><svg width="100%" height="100%" viewBox="0 0 33 33" version="1.1" xmlns="http://www.w3.org/2000/svg" xmlns:xlink="http://www.w3.org/1999/xlink" xml:space="preserve" style="fill-rule:evenodd;clip-rule:evenodd;stroke-miterlimit:10;"><g><path d="M12.412,10.712c0,0.1 0,0.2 -0.1,0.3c0,0.1 -0.1,0.2 -0.2,0.2c-0.1,0.1 -0.1,0.1 -0.2,0.2c-0.1,0 -0.2,0.1 -0.3,0.1c-0.1,0 -0.2,0 -0.3,-0.1c-0.1,-0.1 -0.2,-0.1 -0.2,-0.2c-0.1,-0.1 -0.1,-0.1 -0.2,-0.2c0,-0.1 -0.1,-0.2 -0.1,-0.3c0,-0.1 0,-0.2 0.1,-0.3c0.1,-0.1 0.1,-0.2 0.2,-0.2c0.1,-0.1 0.1,-0.1 0.2,-0.2c0.1,0 0.2,-0.1 0.3,-0.1c0.1,0 0.2,0 0.3,0.1c0.1,0 0.2,0.1 0.2,0.2c0.1,0.1 0.1,0.1 0.2,0.2c0.1,0.1 0.1,0.2 0.1,0.3Zm-0.3,2.7l0,8l-0.8,0l0,-8l0.8,0Z" style="fill:#feca12;fill-rule:nonzero;"/><path d="M14.912,21.412l0,-8l0.4,0c0.1,0 0.2,0.1 0.2,0.2l0.1,1.2c0.4,-0.5 0.8,-0.8 1.3,-1.1c0.5,-0.3 1,-0.4 1.6,-0.4c0.4,0 0.8,0.1 1.2,0.2c0.3,0.1 0.6,0.3 0.8,0.6c0.2,0.3 0.4,0.6 0.5,0.9c0.1,0.4 0.2,0.8 0.2,1.2l0,5.1l-0.8,0l0,-5c0,-0.7 -0.2,-1.3 -0.5,-1.8c-0.3,-0.4 -0.9,-0.6 -1.6,-0.6c-0.5,0 -1,0.1 -1.5,0.4c-0.4,0.3 -0.8,0.6 -1.2,1.1l0,6l-0.7,0l0,0Z" style="fill:#feca12;fill-rule:nonzero;"/></g><path d="M23.812,29.512l-15.6,0c-3.1,0 -5.7,-2.6 -5.7,-5.7l0,-15.6c0,-3.1 2.6,-5.7 5.7,-5.7l15.6,0c3.1,0 5.7,2.6 5.7,5.7l0,15.6c0,3.2 -2.6,5.7 -5.7,5.7Z" style="fill:none;stroke:#feca12;stroke-width:0.5px;"/></svg>