<?xml version="1.0" encoding="UTF-8" standalone="no"?>
<!DOCTYPE svg PUBLIC "-//W3C//DTD SVG 1.1//EN" "http://www.w3.org/Graphics/SVG/1.1/DTD/svg11.dtd">
<svg width="100%" height="100%" viewBox="0 0 44 60" version="1.1" xmlns="http://www.w3.org/2000/svg" xmlns:xlink="http://www.w3.org/1999/xlink" xml:space="preserve" style="fill-rule:evenodd;clip-rule:evenodd;stroke-linejoin:round;stroke-miterlimit:1.41421;">
    <g transform="matrix(1,0,0,1,-77.9,-69.9)">
        <path d="M107.7,127C107.3,121.6 103.3,118.8 99.4,118.8C95.5,118.8 91.6,121.6 91.1,127L83.1,127L90.6,114.9L107.7,114.9L115.1,127L107.7,127ZM95.9,103.3L98.2,103.3L98.2,112.8L92.6,112.8L95.9,103.3ZM98.3,85.4L100.1,85.4L101.7,101.2L96.8,101.2L98.3,85.4ZM99.1,78.4C100.5,78.4 101.5,79.5 101.5,80.8C101.5,82.1 100.4,83.2 99.1,83.2C97.8,83.2 96.7,82.1 96.7,80.8C96.7,79.5 97.7,78.4 99.1,78.4ZM102.5,103.3L105.7,112.8L100.2,112.8L100.2,103.3L102.5,103.3ZM119.7,127L117.5,127L110,114.9L113.1,114.9C113.6,114.9 114.2,114.4 114.2,113.8C114.2,113.2 113.7,112.7 113.1,112.7L108,112.7L104.8,103.2L109,103.2C109.5,103.2 110.1,102.8 110.1,102.1C110.1,101.5 109.6,101 109,101L103.8,101L102.1,84.2C103,83.4 103.7,82.1 103.7,80.7C103.7,78.6 102.2,76.8 100.2,76.3L100.2,71C100.2,70.5 99.8,69.9 99.1,69.9C98.6,69.9 98,70.4 98,71L98,76.2C96,76.6 94.5,78.5 94.5,80.6C94.5,82 95.1,83.2 96.1,84.1L94.4,100.9L89.9,100.9C89.4,100.9 88.8,101.3 88.8,102C88.8,102.6 89.3,103.1 89.9,103.1L93.5,103.1L90.3,112.6L85.6,112.6C85.1,112.6 84.5,113 84.5,113.7C84.5,114.2 85,114.8 85.6,114.8L88.1,114.8L80.6,126.9L79,126.9C78.5,126.9 77.9,127.4 77.9,128C77.9,128.6 78.4,129.1 79,129.1L95,129.1C95.5,129.1 96.1,128.7 96.1,128C96.1,127.5 95.6,126.9 95,126.9L93.2,126.9C93.6,122.8 96.6,120.8 99.4,120.8C102.2,120.8 105.1,122.7 105.5,126.9L104,126.9C103.5,126.9 102.9,127.4 102.9,128C102.9,128.6 103.4,129.1 104,129.1L120,129.1C120.6,129.1 121.1,128.7 121.1,128C120.8,127.5 120.4,127 119.7,127Z" style="fill:white;fill-rule:nonzero;"/>
    </g>
</svg>
