<?xml version="1.0" encoding="utf-8"?>
<!-- Generator: Adobe Illustrator 21.0.2, SVG Export Plug-In . SVG Version: 6.00 Build 0)  -->
<svg version="1.1" id="Calque_1" xmlns="http://www.w3.org/2000/svg" xmlns:xlink="http://www.w3.org/1999/xlink" x="0px" y="0px"
	 viewBox="0 0 200 200" style="enable-background:new 0 0 200 200;" xml:space="preserve">
<style type="text/css">
	.st0{fill:#FDC911;}
</style>
<g>
	<path d="M102.3,83.9c-1.9,0.3-3.3,1.9-3.3,3.8c0,2.1,1.7,3.9,3.9,3.9c0.4,0,0.7-0.1,1.1-0.2l0.2-0.1c2.7-0.8,5-2.4,6.7-4.6v16.4
		h12.1l0-22.6c0-3.3-2.7-6-6-6c-2.5,0-4.7,1.6-5.6,3.8l0,0c-2,2.9-5.1,4.9-8.7,5.5H102.3z M83.6,58c3.3,0,6,2.7,6,6c0,3.3-2.7,6-6,6
		c-3.3,0-6-2.7-6-6C77.6,60.7,80.3,58,83.6,58z M110.8,64.1c0,3.3,2.7,6,6,6c3.3,0,6-2.7,6-6c0-3.3-2.7-6-6-6
		C113.5,58,110.8,60.7,110.8,64.1z M77.6,80.6c0-3.3,2.7-6,6-6c2.6,0,4.8,1.7,5.7,4c1.8,2.5,4.5,4.4,7.5,5.2l0.1,0
		c0,0-0.1,0-0.1,0.1c-1.3,1-2.1,2.5-2.1,4.3c0,1.2,0.4,2.3,1.1,3.2l0,0c0,0,0,0,0,0c0,0-0.1,0-0.1,0c-2.4-0.9-4.5-2.4-6.1-4.4
		l0,16.4H77.5L77.6,80.6L77.6,80.6z"/>
	<g>
		<path class="st0" d="M138.1,91.1c0,0.3,0,0.6,0,0.9c0,21-17,38-38,38s-38-17-38-38c0-0.3,0-0.6,0-0.9h-11c0,0.3,0,0.6,0,0.9
			c0,27.1,21.9,49,49,49s49-21.9,49-49c0-0.3,0-0.6,0-0.9H138.1z"/>
	</g>
</g>
</svg>
