<?xml version="1.0" encoding="utf-8"?>
<!-- Generator: Adobe Illustrator 21.0.2, SVG Export Plug-In . SVG Version: 6.00 Build 0)  -->
<svg version="1.1" id="Calque_1" xmlns="http://www.w3.org/2000/svg" xmlns:xlink="http://www.w3.org/1999/xlink" x="0px" y="0px"
	 viewBox="0 0 200 200" style="enable-background:new 0 0 200 200;" xml:space="preserve">
<style type="text/css">
	.st0{fill:#FDC911;}
</style>
<g>
	<circle cx="68.9" cy="130.9" r="8.5"/>
	<g>
		<path class="st0" d="M63.6,71.6c34.9,0,63.2,28.3,63.2,63.2c0,1.5-0.1,3-0.2,4.5h12.3c0.1-1.5,0.1-3,0.1-4.5
			c0-41.7-33.8-75.4-75.4-75.4c-1,0-2.1,0-3.1,0.1v12.2C61.5,71.6,62.5,71.6,63.6,71.6z"/>
		<path class="st0" d="M63.6,102c18.1,0,32.8,14.7,32.8,32.8c0,1.5-0.1,3-0.3,4.5h13.7c0.1-1.5,0.2-3,0.2-4.5
			c0-25.7-20.8-46.5-46.5-46.5c-1,0-2.1,0-3.1,0.1v13.7C61.5,102.1,62.5,102,63.6,102z"/>
	</g>
</g>
</svg>
