<?xml version="1.0" encoding="utf-8"?>
<!-- Generator: Adobe Illustrator 21.0.2, SVG Export Plug-In . SVG Version: 6.00 Build 0)  -->
<svg version="1.1" id="Calque_1" xmlns="http://www.w3.org/2000/svg" xmlns:xlink="http://www.w3.org/1999/xlink" x="0px" y="0px"
	 viewBox="0 0 200 200" style="enable-background:new 0 0 200 200;" xml:space="preserve">
<style type="text/css">
	.st0{fill:#000000;}
</style>
<g>
	<path class="st0" d="M77.6,89.3c-5.5,0-10,4.5-10,10c0,5.5,4.5,10,10,10c5.5,0,10-4.5,10-10C87.6,93.8,83.1,89.3,77.6,89.3z
		 M77.6,114.4c-8.3,0-15.1-6.8-15.1-15.1s6.8-15.1,15.1-15.1s15.1,6.8,15.1,15.1S85.9,114.4,77.6,114.4z"/>
	<path class="st0" d="M122.8,88.9c-5.5,0-10,4.5-10,10c0,5.5,4.5,10,10,10c5.5,0,10-4.5,10-10C132.8,93.4,128.3,88.9,122.8,88.9z
		 M122.8,114c-8.3,0-15.1-6.8-15.1-15.1s6.8-15.1,15.1-15.1s15.1,6.8,15.1,15.1S131.1,114,122.8,114z"/>
	<path class="st0" d="M110.2,101.4c-1.4,0-2.5-1.1-2.5-2.5c0-4.2-3.4-7.5-7.5-7.5c-4.2,0-7.5,3.4-7.5,7.5c0,1.4-1.1,2.5-2.5,2.5
		c-1.4,0-2.5-1.1-2.5-2.5c0-6.9,5.6-12.6,12.6-12.6c6.9,0,12.6,5.6,12.6,12.6C112.7,100.3,111.6,101.4,110.2,101.4z"/>
	<path class="st0" d="M65,99.1c0,3.3-5,3.3-5,0S65,95.8,65,99.1"/>
	<path class="st0" d="M140.3,99.1c0,3.3-5,3.3-5,0S140.3,95.8,140.3,99.1"/>
</g>
</svg>
