<?xml version="1.0" encoding="utf-8"?>
<!-- Generator: Adobe Illustrator 21.0.2, SVG Export Plug-In . SVG Version: 6.00 Build 0)  -->
<svg version="1.1" id="Calque_1" xmlns="http://www.w3.org/2000/svg" xmlns:xlink="http://www.w3.org/1999/xlink" x="0px" y="0px"
	 viewBox="0 0 200 200" style="enable-background:new 0 0 200 200;" xml:space="preserve">
<style type="text/css">
	.st0{fill:#FDC815;}
</style>
<g>
	<path d="M110.3,75.7c0,12.6-18.9,12.6-18.9,0S110.3,63.1,110.3,75.7"/>
	<path d="M106.2,87.9H95.4c-7.3,0-13.2,3.2-13.5,7.2h0v7.7h37.8V95h0C119.4,91.1,113.5,87.9,106.2,87.9z"/>
	<path class="st0" d="M100.8,122.9c-19.3,0-35.1-15.7-35.1-35.1s15.7-35.1,35.1-35.1s35.1,15.7,35.1,35.1S120.2,122.9,100.8,122.9z
		 M150.7,109.4c-2.1,0-4.1,0.7-5.7,1.9l-4.7-2.9c3.2-6.2,5-13.1,5-20.6c0-24.6-19.9-44.5-44.5-44.5c-24.6,0-44.5,19.9-44.5,44.5
		c0,7.2,1.7,14,4.8,20l-5.7,3.5c-1.6-1.3-3.6-2-5.8-2c-5.2,0-9.4,4.2-9.4,9.4s4.2,9.4,9.4,9.4s9.4-4.2,9.4-9.4
		c0-0.6-0.1-1.1-0.2-1.7l5.7-3.6c7.5,10.5,19.3,17.6,32.9,18.6v6.2c-3.5,1.4-6.1,4.8-6.1,8.8c0,5.2,4.2,9.4,9.4,9.4
		c5.2,0,9.4-4.2,9.4-9.4c0-4-2.5-7.5-6.1-8.8v-6.2c13.4-1,25.1-7.9,32.6-18.1l4.7,2.9c-0.1,0.6-0.2,1.2-0.2,1.8
		c0,5.2,4.2,9.4,9.4,9.4s9.4-4.2,9.4-9.4S156,109.4,150.7,109.4z"/>
</g>
</svg>
