<?xml version="1.0" encoding="utf-8"?>
<!-- Generator: Adobe Illustrator 21.0.2, SVG Export Plug-In . SVG Version: 6.00 Build 0)  -->
<svg version="1.1" id="Calque_1" xmlns="http://www.w3.org/2000/svg" xmlns:xlink="http://www.w3.org/1999/xlink" x="0px" y="0px"
	 viewBox="0 0 200 200" style="enable-background:new 0 0 200 200;" xml:space="preserve">
<style type="text/css">
	.st0{fill:none;stroke:#FDC911;stroke-width:12;stroke-miterlimit:10;}
	.st1{fill:#1D1D1B;}
</style>
<g>
	<path class="st0" d="M143.4,90.5c0,29.2-43.6,59.5-43.6,59.5s-43.6-29.3-43.6-58.6c0-23.6,19.5-42.7,43.6-42.7
		C123.9,48.8,143.4,66.9,143.4,90.5z"/>
	<path class="st1" d="M113.4,84.7h-27c-1.6,0-2.9-1.3-2.9-2.9v-1.4c0-1.6,1.3-2.9,2.9-2.9h27c1.6,0,2.9,1.3,2.9,2.9v1.4
		C116.3,83.4,115,84.7,113.4,84.7z"/>
	<path class="st1" d="M113.4,96.7h-27c-1.6,0-2.9-1.3-2.9-2.9v-1.4c0-1.6,1.3-2.9,2.9-2.9h27c1.6,0,2.9,1.3,2.9,2.9v1.4
		C116.3,95.4,115,96.7,113.4,96.7z"/>
	<path class="st1" d="M113.4,108.7h-27c-1.6,0-2.9-1.3-2.9-2.9v-1.4c0-1.6,1.3-2.9,2.9-2.9h27c1.6,0,2.9,1.3,2.9,2.9v1.4
		C116.3,107.4,115,108.7,113.4,108.7z"/>
</g>
</svg>
