<?xml version="1.0" encoding="utf-8"?>
<!-- Generator: Adobe Illustrator 21.0.2, SVG Export Plug-In . SVG Version: 6.00 Build 0)  -->
<svg version="1.1" id="Calque_1" xmlns="http://www.w3.org/2000/svg" xmlns:xlink="http://www.w3.org/1999/xlink" x="0px" y="0px"
	 viewBox="0 0 200 200" style="enable-background:new 0 0 200 200;" xml:space="preserve">
<style type="text/css">
	.st0{fill:#FDC815;}
</style>
<g>
	<path class="st0" d="M93.1,126.3c-19,0-34.4-15.4-34.4-34.4c0-19,15.4-34.4,34.4-34.4c19,0,34.4,15.5,34.4,34.4
		C127.5,110.9,112.1,126.3,93.1,126.3z M93.1,44.7c-26,0-47.2,21.2-47.2,47.2c0,26,21.2,47.1,47.2,47.1c8.4,0,16.8-2.3,24.2-6.7
		l1.8-1.1l21.7,21.7c1.4,1.4,3.4,2.2,5.3,2.2c2,0,4-0.8,5.3-2.2c1.4-1.4,2.2-3.4,2.2-5.3s-0.8-4-2.2-5.3l-20.9-21.2l1.9-2.8
		c5.3-7.8,8.1-17,8.1-26.3C140.3,65.9,119.1,44.7,93.1,44.7z"/>
	<path d="M88.6,77.5h9.2v3.1h-9.2V77.5z M109.9,80.5h-9.5v-4.3c0-0.7-0.6-1.4-1.4-1.4H87.2c-0.7,0-1.4,0.6-1.4,1.4v4.3h-9.5
		c-1.2,0-2.1,1-2.1,2.1v22c0,1.2,1,2.1,2.1,2.1h33.5c1.2,0,2.1-1,2.1-2.1v-22C111.9,81.4,111,80.5,109.9,80.5z"/>
</g>
</svg>
