<?xml version="1.0" encoding="UTF-8" standalone="no"?><!DOCTYPE svg PUBLIC "-//W3C//DTD SVG 1.1//EN" "http://www.w3.org/Graphics/SVG/1.1/DTD/svg11.dtd"><svg width="100%" height="100%" viewBox="0 0 27 24" version="1.1" xmlns="http://www.w3.org/2000/svg" xmlns:xlink="http://www.w3.org/1999/xlink" xml:space="preserve" style="fill-rule:evenodd;clip-rule:evenodd;stroke-linejoin:round;stroke-miterlimit:1.41421;"><path d="M18.959,0c-3.6,0 -6.5,2.8 -6.6,6.4c-3.4,-0.5 -6.4,-2.3 -8.6,-5c-0.2,-0.3 -0.6,-0.5 -1,-0.5c-0.1,0 -0.1,0 -0.2,0c-0.4,0.1 -0.8,0.3 -1,0.7c-2.7,5.7 -1.4,9.8 0.2,12.3c1.1,1.8 2.7,3.2 4.2,4.1c-1.2,0.5 -2.4,0.8 -3.7,0.8c-0.7,0 -1.3,0.6 -1.3,1.3c0,1.2 1.9,2.1 2.6,2.4c1.2,0.5 3.1,1.1 5.6,1.1c6.2,0 10,-2.9 12.2,-5.4c2.7,-3 4.2,-7.1 4.2,-11c0,-0.2 0,-0.3 0,-0.5c0.1,-0.3 0.2,-0.5 0.2,-0.8c0.3,-1 0.5,-1.4 0.8,-2.6c0,-0.1 0.1,-0.3 0.1,-0.4c0,-0.7 -0.6,-1.3 -1.2,-1.3l-0.4,0l-1.5,0l-0.1,0c-1.3,-1 -2.8,-1.6 -4.5,-1.6Zm0,1.3c1.5,0 2.9,0.6 3.9,1.7l2.6,0c-0.4,1.5 -0.5,1.8 -1.1,3.6c0,0.2 0,0.5 0,0.7c0,7 -5.4,15.1 -15.1,15.1c-4.7,0 -7.3,-2.3 -6.9,-2.3c2.5,0 4.8,-0.8 6.6,-2.3c-2.3,0 -10.8,-5.4 -6.1,-15.5c2.6,3.2 6.5,5.3 11,5.6c-0.1,-0.4 -0.1,-0.8 -0.1,-1.2c-0.1,-3.1 2.3,-5.4 5.2,-5.4" style="fill:#fff;fill-rule:nonzero;"/></svg>